<?xml version="1.0" encoding="utf-8"?>
<!-- Generator: Adobe Illustrator 23.0.1, SVG Export Plug-In . SVG Version: 6.00 Build 0)  -->
<svg version="1.1" id="Capa_1" xmlns="http://www.w3.org/2000/svg" xmlns:xlink="http://www.w3.org/1999/xlink" x="0px" y="0px"
	 viewBox="0 0 200 100" style="enable-background:new 0 0 200 100;" xml:space="preserve">
<style type="text/css">
	.st0{fill:#2BBBA0;}
	.st1{fill:none;stroke:#2BBBA0;stroke-width:0.5;stroke-miterlimit:10;}
	.st2{fill:none;stroke:#58595C;stroke-width:0.5;stroke-miterlimit:10;}
	.st3{fill:#58595C;}
	.st4{font-family:'WorkSans-Medium';}
	.st5{font-size:2.92px;}
	.st6{font-family:'WorkSans-LightItalic';}
	.st7{font-size:2.7px;}
	.st8{font-family:'WorkSans-Light';}
	.st9{font-size:7.64px;}
	.st10{fill:none;stroke:#CCCCCC;stroke-width:0.25;stroke-miterlimit:10;}
</style>
<title>1</title>
<g>
	<g id="Figura_1">
		<g id="Agua">
			<path class="st0" d="M122.2,58.4c-0.1-0.1,0-0.3,0.1-0.4c0,0,0.1,0,0.1,0c0.5-0.1,1,0,1.5,0.1c0.6,0.1,1.1,0.1,1.7,0
				c0.1,0,0.1,0,0.2,0l1.9,1.1h0.1l1.8,0.1c0,0,0.1,0,0.1,0l1,0.6c0,0,0.1,0,0.1,0l3,0.1c0.1,0,0.1,0,0.2,0.1l1,0.9l1.6,1.5
				c0,0,0.1,0.1,0.1,0.1l1.1,0.2c0.1,0,0.1,0,0.2,0.1l0.4,0.5c0,0.1,0.1,0.1,0.2,0.1l0.6,0.1c0.1,0,0.1,0,0.2,0.1l0.5,0.5l0,0
				c0.7,0.9,1.4,1.6,2.2,2.3c0.8,0.6,1.6,1.3,2.3,2c0,0,0.1,0.1,0.1,0.1c0.9,0.2,1.7,0.4,2.6,0.8c0.1,0.1,0.1,0.3,0.2,0.4
				c0,0.1-0.1,0.3-0.2,0.3l-0.6,0.2c-0.1,0-0.2,0.2-0.2,0.3V71c0,0.2,0.1,0.3,0.3,0.3h0.6c0.1,0,0.1,0,0.2,0.1l1.1,0.8
				c0.1,0,0.1,0.1,0.2,0.1h1.5c0.1,0,0.1,0,0.2,0.1l0.9,0.8c0,0,0.1,0.1,0.1,0.1l0.4,0.9c0,0,0,0.1,0,0.1v1.5c0,0.1-0.1,0.2-0.2,0.2
				l-0.3,0.1c-0.1,0.1-0.2,0.1-0.3,0l-0.8-0.7H150l-1.6-0.8l0,0l-0.7-0.4c-0.1,0-0.1,0-0.2,0l-1.4,0.2H146l-1.2-0.4c0,0-0.1,0-0.1,0
				l-1.1-1.1c-0.1-0.1-0.1-0.2-0.1-0.2v-0.5c0-0.1,0-0.2-0.1-0.2l-1.3-1l-1.1-0.7c-0.1-0.1-0.1-0.2-0.1-0.3v-0.1
				c0-0.2-0.1-0.3-0.2-0.3c0,0-0.1,0-0.1,0h-0.2c-0.1,0-0.2-0.1-0.2-0.1l-0.1-0.2c-0.1-0.1-0.2-0.1-0.3-0.1h-0.3
				c-0.1,0-0.2-0.1-0.3-0.2l-0.1-0.2c0-0.1-0.2-0.2-0.3-0.2h-0.3c-0.1,0-0.1,0-0.2,0l-3.4-2.2c-0.1-0.1-0.1-0.1-0.1-0.2v-0.8
				c0-0.1,0-0.2-0.1-0.2l-0.6-0.4l-0.6-0.4c0,0-0.1,0-0.1-0.1l-0.3-0.4c-0.1-0.1-0.2-0.1-0.3-0.1l-1.1,0.1c-0.1,0-0.2,0.1-0.2,0.1
				l-0.2,0.3c-0.1,0.1-0.3,0.2-0.4,0.1c0,0,0,0,0,0l0,0c-0.1-0.1-0.3-0.1-0.4,0c0,0,0,0,0,0.1l-0.1,0.2c0,0-0.1,0.1-0.1,0.1
				l-0.6,0.4c-0.1,0-0.1,0-0.2,0l-1.2,0l0,0l-1.3,0.1c0,0-0.1,0-0.1,0l-0.9-0.4h-0.1l-0.9-0.2h-0.1l-0.6,0.1c-0.2,0-0.3-0.1-0.3-0.2
				c0,0,0-0.1,0-0.1v-0.5c0,0,0-0.1,0-0.1l0.3-0.6c0-0.1,0.1-0.1,0.1-0.1l0.8-0.3c0.1,0,0.1,0,0.2,0l0.9,0.2c0.1,0,0.3,0,0.3-0.2
				l0.2-0.5c0.1-0.1,0-0.3-0.1-0.4l-2.9-1.8l0,0l-1.3-1.1c0,0,0,0-0.1-0.1L122.2,58.4z"/>
			<path class="st0" d="M157,65.1l0.1-0.4c0-0.1,0-0.2-0.1-0.2l-0.4-0.1c-0.1,0-0.1-0.1-0.1-0.2v-0.4c0-0.1,0-0.1-0.1-0.2l-0.9-0.3
				h-0.1l-0.9-1.2c0,0,0-0.1,0-0.1v-0.8c0,0,0-0.1,0-0.1l-0.4-0.5c-0.1-0.1-0.1-0.1-0.2,0l-0.7,0.4c-0.1,0-0.1,0-0.2,0l-0.5-0.2
				c-0.1,0-0.1-0.1-0.1-0.2V60l0.3-0.8c0,0,0-0.1,0-0.1l-0.2-0.9c0,0,0-0.1,0-0.1l-1.3-1.2l0,0l-1.2-0.6l0,0l-1.1-0.9
				c0,0,0-0.1-0.1-0.1l-0.2-1c0,0,0,0,0-0.1l-1.2-1.5c0,0-0.1-0.1-0.1-0.1h-0.7c0,0-0.1,0-0.1,0l-0.7-0.4l-0.6-0.4H145l-0.3-0.1
				c-0.1,0-0.1-0.1-0.1-0.2c0,0,0,0,0,0l0.1-0.1c0,0,0.1-0.1,0.1-0.1h0.3c0.1,0,0.2-0.1,0.2-0.2c0,0,0,0,0,0v-0.3l0,0l-0.2-0.5
				c0-0.1-0.1-0.1-0.2-0.1c0,0,0,0-0.1,0l-0.3,0.3c0,0-0.1,0-0.2,0l-0.5-0.2h-0.1l-1-0.9l0,0l-1-0.4c0,0-0.1,0-0.1,0l-1.2,0.4
				c0,0-0.1,0-0.1,0l-0.5,0.6c0,0-0.1,0-0.1,0l-1-0.1l-0.9-0.1l-0.8-0.1c0,0-0.1,0-0.1,0l-0.3-0.2c0,0-0.1,0-0.1,0l-0.9,0.1h-0.1
				l-0.9,0.5c0,0-0.1,0-0.1,0l-0.9-0.4c0,0-0.1,0-0.1,0h-0.6c-0.1,0-0.1,0-0.2-0.1l-0.2-0.4l0,0l-0.2-1.1c0-0.1,0-0.1,0.1-0.2
				l0.4-0.4l0,0l0.3-0.5c0,0,0,0,0.1,0l0.5-0.2l0,0l0.8-0.2c0.1,0,0.2,0,0.2,0.1l0.1,0.2c0,0.1,0,0.1,0,0.2l-0.1,0.2
				c-0.1,0.1,0,0.2,0,0.2c0,0,0.1,0,0.1,0h0.2c0.1,0,0.1,0,0.1-0.1l0.3-0.5c0,0,0.1-0.1,0.1-0.1l0.5-0.1c0,0,0.1,0,0.1-0.1l0.1-0.2
				c0,0,0-0.1,0-0.1v-0.8l0,0l0.1-0.7c0-0.1,0.1-0.1,0.1-0.1l0.4-0.1c0.1,0,0.1,0,0.2,0l0.2,0.2c0,0.1,0.1,0.1,0.2,0l0.6-0.2
				c0,0,0.1,0,0.1,0l0.5,0.2c0,0,0.1,0,0.1,0.1l0.3,0.6c0,0,0.1,0.1,0.1,0.1l0.7,0.1l0,0l0.2,0.1c0,0,0.1,0.1,0.1,0.1l0.1,0.3
				c0,0.1,0.1,0.1,0.2,0.1l0.6-0.1h0.1l0.3-0.1c0.1,0,0.1-0.1,0.1-0.2l-0.1-0.4c0-0.1-0.1-0.1-0.1-0.1h-0.2c-0.1,0.1-0.3,0-0.3-0.1
				c-0.1-0.1,0-0.3,0.1-0.3l0,0l0.1-0.4c0-0.1,0-0.2-0.1-0.2l-0.5-0.2h-0.1L140,44v0l-0.4-0.8c0-0.1-0.1-0.1-0.1-0.1h-1.5l-1.7-0.5
				c0,0-0.1-0.1-0.1-0.1l-0.3-0.8c0,0,0-0.1-0.1-0.1l-0.9-0.6l0,0l-0.4-0.5c-0.1-0.1-0.1-0.2,0-0.2l0.2-0.2c0,0,0.1,0,0.1,0l1.2-0.1
				h1.1c0,0,0.1,0,0.1,0l0.6,0.6l0,0l0.7,0.4l0,0l0.5,0.2c0.1,0,0.1,0.1,0.1,0.1v0.3c0,0.1,0.1,0.1,0.2,0.1h0.8c0,0,0.1,0,0.1,0
				l0.6-0.5l0,0l0.3-0.4v-0.1V40c0-0.1,0-0.1,0.1-0.1l1.2-0.7c0,0,0.1-0.1,0.1-0.1l0.1-1l0,0l0.1-0.4c0-0.1,0.1-0.1,0.2-0.1h1
				c0.1,0,0.1,0,0.1-0.1l0.6-0.7l0,0l0.2-0.3c0-0.1,0.1-0.1,0.2-0.1c0,0,0,0,0,0l0.3,0.1c0.1,0,0.1,0.1,0.1,0.2v0.8l0,0l-0.1,1l0,0
				l-0.1,0.6c0,0,0,0.1-0.1,0.1l-0.6,0.5l0,0l-0.3,0.4l-0.1,0l-0.6,0.2c-0.1,0-0.1,0.1-0.1,0.2l0.1,0.3c0,0,0,0,0,0l0.2,0.3
				c0.1,0.1,0.1,0.1,0.2,0l0.7-0.3l0,0l0.5-0.4l0,0l0.4-0.6c0-0.1,0.1-0.1,0.2-0.1l0.2,0.1c0,0,0,0,0.1,0l0.3,0.3c0,0.1,0,0.1,0,0.2
				l-0.1,0.4l0,0l-0.1,0.5l0,0l-0.1,0.5l0,0l-0.7,1.5c0,0.1,0,0.1,0,0.2l0.4,0.7l0.4,0.8c0,0,0,0.1,0,0.2l-0.2,0.5c0,0,0,0.1,0,0.1
				l0.1,0.7l0,0l0.4,1l0,0l0.1,0.8c0,0,0,0.1,0,0.1l0.4,0.6l0,0l0.2,0.5l0,0v0.2c0,0,0,0.1,0,0.1l0.4,0.4l0,0l1.3,1l0,0l0.8,1.1v0.1
				l0.1,0.7c0,0,0,0,0,0.1l0.4,0.5c0,0,0.1,0.1,0.1,0.1l0.6,0.1l0,0h1.1c0,0,0.1,0,0.1,0l1.1,0.9l0,0l0.4,0.6c0,0,0,0.1,0,0.2
				l-0.1,0.1c-0.1,0.2-0.1,0.5,0.1,0.6s0.5,0.1,0.6-0.1l0,0l0.3,0.1l0,0l0.6,0.3l0,0l0.9,0.2c0.1,0,0.1,0.1,0.1,0.1l0.4,1.2l0,0
				l0.2,0.9c0,0.1,0,0.2-0.1,0.2l-0.6,0.3l0,0l-0.4,0.3c-0.1,0.1-0.1,0.2-0.1,0.2l0.3,0.5c0,0,0,0.1,0,0.1l0.1,1.1c0,0,0,0,0,0.1
				l0.3,0.5c0,0.1,0.1,0.1,0.2,0.1l1.3-0.1l0,0l0.9-0.2l0,0l0.2-0.1c0.1,0,0.2,0,0.2,0.1l0.3,0.7l0,0l0.3,0.4c0.1,0.1,0.2,0.1,0.2,0
				c0,0,0,0,0,0l0.3-0.3c0,0,0.1,0,0.1,0h0.1c0.1,0,0.2,0.1,0.2,0.1c0,0,0,0,0,0v0.1c0,0.1,0,0.1-0.1,0.1l-0.4,0.3
				c-0.1,0-0.1,0.1-0.1,0.2l0.1,0.3c0,0,0,0,0,0.1l0.3,0.5c0,0.1,0,0.1,0,0.2l-0.6,0.8c0,0-0.1,0.1-0.1,0.1h-1.2l-0.7,0.1
				c0,0-0.1,0-0.1,0l-0.5-0.2h-0.1C156.9,65.3,156.9,65.2,157,65.1C157,65.1,157,65.1,157,65.1z"/>
			<path class="st0" d="M168.3,61.2c0.2-0.2,0.3-0.5,0.5-0.7c0-0.1,0-0.1,0-0.2l-0.2-0.6l0,0l-0.1-0.3c0,0,0-0.1,0-0.1l0.6-0.6l0,0
				l1-1l0,0l0.8-0.9l0,0l0.9-1.2c0,0,0-0.1,0-0.1l-0.1-0.5c0-0.1,0-0.1,0.1-0.2l0.3-0.2c0.1,0,0.1,0,0.2,0l0.2,0.1
				c0.1,0,0.1,0.1,0.1,0.2v1c0,0,0,0.1,0,0.1l0.5,0.5c0,0,0,0.1,0,0.1v0.9c0,0,0,0.1,0,0.1l-0.7,1l0,0l-0.7,0.7c0,0,0,0,0,0.1
				l-0.2,0.7c0,0,0,0,0,0.1l-0.4,0.3c-0.1,0-0.1,0-0.2,0l-0.6-0.2c-0.1,0-0.2,0-0.2,0.1c0,0,0,0,0,0l-0.1,0.2l0,0l-0.1,0.7
				c0,0.1,0,0.1-0.1,0.1l-0.8,0.4c0,0-0.1,0-0.1,0l-0.5-0.1h-0.1c-0.1,0-0.2-0.1-0.2-0.2c0,0,0-0.1,0-0.1l0,0L168.3,61.2z"/>
			<path class="st0" d="M180.9,68.9l0.4-0.3c0,0,0.1,0,0.1,0h0.9c0.1,0,0.1,0,0.1,0.1l0.5,0.9l0,0l0.2,0.5c0.1,0.1,0.2,0.1,0.2,0
				c0,0,0,0,0,0l0.7-0.8l0,0l0.6-0.4c0,0,0.1,0,0.1,0l0.9,0.2c0.1,0,0.2,0,0.2,0.1l0.3,0.8c0,0,0,0,0,0.1l0.9,1.2l0,0l1.1,0.6l0,0
				l1.2,0.8c0,0,0.1,0.1,0.1,0.1l0.2,0.8l0.3,1l0.2,0.7c0,0.1,0.1,0.1,0.1,0.1l1.8,0.6h0.1l0.7-0.1c0,0,0.1,0,0.1,0l0.4-0.3
				c0.1,0,0.1,0,0.2,0l1.1,0.8l0,0l0.9,1.2v0.1L196,79c0,0,0,0.1,0,0.1l0.7,0.7c0,0,0,0.1,0.1,0.1v0.6c0,0,0,0.1,0,0.1l0.6,1l0,0
				l0.2,1l0.2,0.8c0,0,0,0,0,0.1l-0.2,1.1c0,0,0,0.1,0,0.1l0.4,0.7c0,0,0,0.1,0,0.1l-0.1,0.7c0,0,0,0.1-0.1,0.1l-0.2,0.2
				c-0.1,0.1-0.1,0.2,0,0.2c0,0,0,0,0.1,0l0.4,0.2c0.1,0,0.1,0.1,0.1,0.2v0.1c0,0.1-0.1,0.2-0.2,0.2l0,0c-0.1,0-0.2,0.1-0.2,0.1
				c0,0,0,0.1,0,0.1l0.1,0.1l0,0l0.2,0.7c0,0,0,0.1,0,0.1l-0.1,0.2c0,0-0.1,0.1-0.1,0.1l-0.3,0.1h-0.1l-0.9-0.3c0,0-0.1,0-0.1-0.1
				l-0.6-0.9l0,0l-0.3-0.5c0,0,0-0.1,0-0.1l0.1-1.1l0,0l-0.2-1.4c0,0,0,0,0-0.1l-0.3-0.4c0,0,0-0.1,0-0.1l0.4-2.6l0,0l-0.1-1.2v-0.1
				l-0.8-1.1l0,0l-0.6-0.6c0,0-0.1-0.1-0.1-0.2l0.2-0.9c0,0,0-0.1,0-0.1l-0.4-0.8c0-0.1-0.1-0.1-0.2-0.1c0,0,0,0,0,0l-0.4,0.2
				c0,0-0.1,0-0.1,0.1l-0.1,0.2c0,0.1-0.1,0.1-0.2,0.1l-0.7-0.1h-0.1l-0.8,0.2c0,0,0,0-0.1,0l-0.8-0.1c0,0-0.1,0-0.1-0.1l-0.4-0.4
				l0,0l-0.3-0.5c0,0,0-0.1-0.1-0.1l-0.6-0.3c0,0-0.1,0-0.1-0.1l-0.4-0.7l0,0l-0.2-0.9c0,0,0-0.1,0-0.2l0.3-0.3
				c0.1-0.1,0.1-0.2,0-0.2c0,0,0,0,0,0l-0.3-0.2h-0.1h-0.6c0,0-0.1,0-0.1,0l-1.1-0.8c0,0-0.1,0-0.1-0.1l-0.3-0.8c0,0,0-0.1-0.1-0.1
				l-0.3-0.1c0,0-0.1-0.1-0.1-0.1l-0.2-0.8c0-0.1-0.1-0.1-0.2-0.1L185,70c-0.1,0-0.1,0-0.1,0.1l-0.4,0.5c0,0,0,0.1,0,0.1v0.8
				c0,0.1,0,0.1-0.1,0.2l-0.8,0.4l0,0l-0.4,0.3c0,0-0.1,0-0.1,0l-0.8-0.1c-0.1,0-0.1-0.1-0.1-0.1l-1-2.5l0,0l-0.3-0.4
				c0,0,0-0.1,0-0.1L180.9,68.9C180.9,69,180.9,69,180.9,68.9z"/>
			<path class="st0" d="M150,30L150,30c0.1,0.1,0.2,0.1,0.3,0l0.5-0.1c0.1,0,0.2,0,0.3,0.1l0.1,0.1c0.1,0.1,0.3,0.1,0.4,0.1l0.8-0.5
				c0.1,0,0.1,0,0.2,0l0.7,0.1c0.1,0,0.2,0,0.3-0.1l0.3-0.3c0,0,0,0,0-0.1l0.3-0.7v-0.1l0.1-0.2c0.1-0.1,0.2-0.1,0.3-0.1h0.1
				c0.2,0,0.3-0.1,0.3-0.3v-0.2c0-0.2-0.1-0.3-0.3-0.3c0,0,0,0,0,0h-0.3l-0.2,0.1c-0.1,0.1-0.3,0-0.4-0.1l-0.2-0.3
				c-0.1-0.1-0.2-0.2-0.3-0.1h-0.2c-0.2,0-0.3,0.2-0.3,0.4v0.1c0,0.2-0.1,0.3-0.2,0.4l-0.5,0.1c0,0-0.1,0-0.1,0.1l-0.5,0.4h-0.1
				l-0.3,0.2c0,0-0.1,0-0.1,0h-0.4c-0.1,0-0.2,0.1-0.3,0.2l-0.3,0.5l-0.2,0.4c-0.1,0.1-0.1,0.3,0.1,0.4C149.9,30,150,30,150,30z"/>
			<path class="st0" d="M157.1,26.1V25c0-0.1,0-0.1-0.1-0.1l-0.6-0.3c0,0-0.1,0-0.1,0l-0.2,0.1c-0.1,0-0.1,0-0.2,0l-0.7-0.6
				c0,0-0.1,0-0.1,0h-0.7c0,0-0.1,0-0.1,0l-0.9,0.8c0,0,0,0,0,0.1l-0.2,0.5c0,0-0.1,0.1-0.1,0.1l-1,0.4l0,0l-1.7,0.5l0,0l-1.7,0.9
				l0,0l-2,0.5c0,0-0.1,0-0.2,0l-0.1-0.1c-0.1-0.1-0.2-0.1-0.2,0c0,0,0,0,0,0l-0.5,0.6l0,0l-1.8,1.7c0,0-0.1,0.1-0.1,0l-1.2-0.2
				c0,0-0.1,0-0.1-0.1l-0.5-0.6c0,0,0-0.1,0-0.1l0.1-0.5c0-0.1,0-0.2-0.1-0.2c0,0-0.1,0-0.1,0l-1,0.4l-1,0.4c-0.1,0-0.2,0-0.2-0.1
				l-0.4-0.7l0,0l-0.3-0.9c0,0,0,0,0-0.1v-0.3c0-0.1,0-0.1,0.1-0.2l0.6-0.2c0.1,0,0.1-0.1,0.1-0.2c0,0,0,0,0,0l-0.2-0.4l0,0
				l-0.3-0.5c0-0.1,0-0.2,0.1-0.2l0.6-0.5c0,0,0.1-0.1,0.1-0.1v-0.6c0-0.1,0-0.2-0.1-0.2c0,0,0,0,0,0l-0.5-0.1c0,0-0.1,0-0.1-0.1
				l-0.3-0.3c0,0,0-0.1,0-0.1l0.1-0.5c0,0,0-0.1,0.1-0.1l1.5-1.1h0.1l3.6-0.5h1.4l1.4-0.7c0,0,0,0,0.1,0l0.4-0.4c0,0,0,0,0.1-0.1
				l1.4-0.5l0,0l1-0.2c0,0,0.1,0,0.1-0.1l0.2-0.2c0,0,0.1-0.1,0.2-0.1l0.8,0.2c0,0,0.1,0,0.1,0l0.6,0.6l0,0l0.4,0.2
				c0.1,0,0.1,0,0.2,0l0.2-0.1c0.1,0,0.1-0.1,0.1-0.2c0,0,0,0-0.1-0.1l-0.3-0.2c-0.1,0-0.1-0.1-0.1-0.2L152,19v-0.1l0.4-0.4l0,0
				l0.8-0.6c0.1,0,0.1,0,0.2,0l0.5,0.4c0,0,0,0,0,0.1l0.2,0.5c0,0.1,0.1,0.1,0.1,0.1l1.5,0.2c0.1,0,0.1,0.1,0.1,0.1l0.1,0.8l0.1,0.9
				c0,0.1,0.1,0.2,0.2,0.1l0.9-0.1c0,0,0.1,0,0.1,0l0.6,0.5l0,0l1.6,0.6l0.8,0.3c0.1,0,0.1,0.1,0.1,0.2c0,0,0,0,0,0l-0.2,0.6l0,0
				l-0.1,1.5c0,0.1,0.1,0.2,0.1,0.2c0,0,0,0,0,0h0.8c0.1,0,0.1,0,0.1,0.1l0.5,0.7c0,0,0.1,0.1,0.1,0.1l1.3,0.3l0,0l1,0.4l0.6,0.2
				c0.1,0,0.1,0.1,0.1,0.2V27c0,0.1,0.1,0.2,0.2,0.2c0,0,0,0,0,0l0.6-0.1c0,0,0.1,0,0.1,0l0.6,0.7l0,0l0.3,0.5c0,0,0,0.1,0,0.1
				l-0.3,0.8l0,0l-0.8,1c0,0-0.1,0.1-0.1,0.1l-1.4-0.1l0,0l-1.6-0.6c0,0-0.1,0-0.1-0.1l-0.9-1.2l0,0l-1.3-0.9l0,0l-0.9-0.8h-0.1
				l-1.1-0.3l-0.8-0.2C157.2,26.2,157.2,26.2,157.1,26.1z"/>
			<path class="st0" d="M169.9,32.2L170,32c0-0.1,0.1-0.1,0.2-0.1h0.5c0.1,0,0.1,0,0.2-0.1l0.4-1.2c0-0.1,0.1-0.1,0.1-0.1l1.1-0.2
				h0.1l2,0.4h0.1l0.6,0.5c0,0,0.1,0.1,0.1,0.2l-0.1,0.6c0,0,0,0.1,0,0.1l0.3,0.3l0,0l0.7,0.6l0,0l0.5,0.7l0,0l0.4,0.5
				c0,0,0,0.1,0,0.1v0.4c0,0.1,0,0.1,0.1,0.1l0.4,0.3c0.1,0.1,0.1,0.2,0,0.2l-0.1,0.2c0,0-0.1,0.1-0.1,0.1l-0.5,0.1c0,0-0.1,0-0.1,0
				l-0.8-0.6l0,0l-0.6-0.5c0,0-0.1-0.1-0.1-0.2l0.2-0.8c0,0,0-0.1,0-0.1l-0.4-0.8c0,0-0.1-0.1-0.1-0.1h-0.1c-0.1,0-0.2,0-0.2,0.1
				c0,0,0,0.1,0,0.1l0.2,0.3c0,0,0,0,0,0.1v0.2c0,0.1-0.1,0.2-0.2,0.2c0,0,0,0-0.1,0l-0.3-0.1c0,0-0.1-0.1-0.1-0.1l-0.2-0.7v-0.1
				l-0.2-0.2c-0.1,0-0.1,0-0.2,0l-0.7,0.2l-1,0.3h-0.1l-0.9-0.2l-0.6-0.2l0,0l-0.1-0.2C169.9,32.4,169.9,32.3,169.9,32.2z"/>
			<path class="st1" d="M39.5,69.8l1.2-1.3c0.1-0.1,0.2-0.3,0.1-0.5c-0.1-0.5-0.2-1.4,0.1-1.7s0.7-0.8,1.5,0.1s1,1.4,1.8,1.1
				s0.4-3.6,0.7-3.9s1.7-1.5,2.3-1.2s1.9,2.5,2.8,2.3c1.5,0,2.8-0.9,3.5-2.2c0.8-1.5,2.4,0.6,3.1,1.5c0.1,0.2,0.4,0.3,0.7,0.2
				C58,64,59,63.8,60,63.8c0.7,0.2,3.2-0.7,3.8-0.9c0.1,0,0.1-0.1,0.2-0.1l1.3-1.1c0.1-0.1,0.3-0.2,0.4-0.2l2.9,0.1
				c0.2,0,0.4,0.1,0.5,0.3c0.3,0.5,1,1.6,1.8,1.7c1,0.1,1.4,0.1,1.2,1c-0.1,0.9,1.9,1.2,2.3,1l2.1-1.3c0.1,0,0.1-0.1,0.2-0.1
				c0.4-0.1,1.8-0.2,2.4,0.2c0.1,0.1,0.2,0.1,0.4,0.2H80c0.3,0,0.6,0.7,0.8,1.2c0.1,0.2,0.3,0.4,0.5,0.4h1.8c0.3,0,0.5,0.2,0.6,0.4
				c0.1,0.3,0.1,0.7,0,1c-0.2,0.6,0.5,1.1,0.6,1.8c0,0.2,0.1,0.3,0.2,0.4l0.8,0.6c0.1,0.1,0.2,0.1,0.4,0.1c0.6,0,2.4-0.1,3,0.8
				c0,0.1,0.1,0.2,0.2,0.2c0.2,0.2,0.6,0.3,0.6-0.8c0-1.5,1.5-1,1.5-1c1,0.3,2.2-0.2,2.5-1.3c0-0.1,0.1-0.2,0.1-0.3
				c0.3-0.8,0.4-1.7,0.2-2.6c0-0.1,0-0.3,0-0.4c0.3-0.6,0.5-1.2,0.6-1.8c0-0.3,0.7-0.8,1-1c0.1-0.1,0.2-0.2,0.3-0.4
				c0.2-0.6,0.3-1.2,0.3-1.8c0-0.8,1.4-1.1,1.8-2.1c0.1-0.3,0.2-0.6,0.3-0.7c0.1-0.2,0.3-0.4,0.5-0.5l0.2,0c0.2-0.1,0.4-0.3,0.4-0.5
				v-0.3c0-0.3,0.3-0.5,0.6-0.5h0.3c0.2,0,0.4-0.1,0.5-0.2l0.2-0.1c0.2-0.1,0.4-0.2,0.6-0.1l0.6,0.3c0.1,0,0.2,0.1,0.3,0.1l1.4-0.1
				c0.2,0,0.3,0,0.4,0.1l0.6,0.5c0.1,0.1,0.3,0.2,0.5,0.1l0.5-0.1c0.1,0,0.3,0,0.4,0.1l0.5,0.3c0.1,0.1,0.2,0.1,0.3,0.1h1
				c0.1,0,0.1,0,0.2,0l0.5,0.2c0.1,0.1,0.3,0.1,0.4,0l3.1-1.5c0.1,0,0.1-0.1,0.2-0.1l1.7-0.1h0.2l1.3-0.5c0.1,0,0.1,0,0.2,0h1.2h0.1
				l0.8-0.2c0.2,0,0.4,0,0.5,0.1l0.8,0.6c0.1,0,0.1,0.1,0.2,0.1l0.6,0.2c0.1,0,0.2,0.1,0.3,0.2l0.6,0.7l0.4,0.5
				c0.1,0.1,0.1,0.2,0.2,0.3c0,0.1,0,0.1,0.1,0.2l0.8,1.1"/>
			<path class="st1" d="M144.2,37.9v-1.7v-0.8c0,0,0-0.1,0-0.1l-0.1-0.8c0,0,0-0.1,0-0.1v-0.2c0-0.2,0.1-0.4,0.3-0.5l0.4-0.3
				l0.2-0.1l0.5-0.1c0.1,0,0.2,0,0.3,0l0,0c0.2,0,0.4,0,0.5-0.1l0.6-0.6c0.1-0.1,0.1-0.1,0.2-0.1l0.5-0.2c0.1,0,0.2,0,0.3,0h0.2
				c0.3,0.1,0.6-0.1,0.7-0.4c0,0,0,0,0,0l0.2-1.1c0-0.1,0-0.2,0.1-0.2l0.2-0.2c0.1-0.1,0.2-0.2,0.3-0.2h0.2l0.2-0.1l0.1,0"/>
			<path class="st1" d="M151.6,75.8l1.4-0.7c0.1,0,0.1-0.1,0.2-0.2l1.1-1.3l0.1-0.1l1.2-1.1l0,0l0.4-0.4c0.1-0.1,0.1-0.1,0.1-0.2
				l1.7-5.7v-0.1l0.2-0.5"/>
			<path class="st1" d="M160.2,64.9l2.9-1.5h0.1l1.3-0.5c0.1,0,0.1,0,0.2,0h2.2c0.1,0,0.2,0,0.2,0l0.3-0.2c0.2-0.1,0.3-0.3,0.3-0.5
				V62c0-0.1,0-0.1,0-0.2l0.1-0.3h0.3"/>
			<path class="st1" d="M167.2,62.8l3.6,0.4c0,0,0.1,0,0.1,0l2.2,0.8l0,0l3.4,1.7l1.6,0.8l0,0l0.6,0.4h0.1l2.1,1.7"/>
			<path class="st1" d="M154.5,27.5l1.5-0.8c0,0,0.1,0,0.1,0l0.6-0.2h0.1L158,26"/>
			<path class="st1" d="M164.6,29.2l1.8,1.6c0.1,0.1,0.2,0.1,0.4,0h0.2c0.1,0,0.3,0,0.4,0.1l0.1,0.1c0.1,0,0.1,0.1,0.2,0.2l0,0
				c0.1,0.2,0.4,0.3,0.6,0.2h0.1c0.2,0,0.3,0,0.5,0.1l0.5,0.4l0,0l1.8,0.7"/>
		</g>
		<circle class="st2" cx="116.5" cy="54.4" r="5.6"/>
		<g id="Pueblos">
			<polygon class="st3" points="39,69.7 39.4,70.5 39.9,70.4 39.9,69.7 40.8,69.7 40.8,70.4 41.3,70.8 41.7,71.1 42.5,70.8 
				42.3,71.4 42.4,71.9 42.5,72.5 43,71.9 43.5,71.8 44.6,71.8 45.4,71.5 45.9,71.1 45.2,70.4 45.6,69.8 45.9,69.3 45.6,68.6 
				45,68.2 44.9,67.1 45.3,65.7 45.9,65 46.8,64.5 45.9,63.5 45.3,63.6 44.9,64.5 44.3,64.7 44.2,64.2 44.1,63.8 43.5,64.2 
				43.7,64.7 43.7,65.4 43.5,65.8 42.5,65.9 41.9,65.6 41,65.2 40.5,64.5 39.9,64.7 39.5,65.1 39.5,65.5 38.8,65.5 38.6,65.1 
				38.2,65.5 38.3,66.2 39.2,67.2 39.9,67.6 40.3,68 39.9,68.8 			"/>
			<circle class="st3" cx="116.5" cy="54.3" r="0.7"/>
			<circle class="st3" cx="118.6" cy="54.4" r="0.7"/>
			<circle class="st3" cx="113.9" cy="55" r="0.7"/>
			<circle class="st3" cx="62.5" cy="63.4" r="1.3"/>
			<circle class="st3" cx="75.2" cy="64.7" r="1.3"/>
			<circle class="st3" cx="85.2" cy="70.2" r="1.3"/>
		</g>
		<line class="st2" x1="116.5" y1="39.8" x2="116.5" y2="48.9"/>
		<polygon class="st0" points="43,53.8 45.6,53.8 46.8,52.8 48.4,52.3 49.3,51.2 50.6,50.2 51.4,49.8 52.7,50.5 55.2,50.3 59.9,50 
			59.6,48.8 57.2,47.2 55.5,49 53.8,49.1 52.6,48.9 51.7,47.7 50.7,48.2 49,48.4 48.5,47.5 48.9,47 50.3,46 50.6,44.3 50.8,42.8 
			52,40.6 51,41.1 50,41.2 49.9,39.3 51,38 52.6,35.7 51.7,36.2 50,37.1 51,35.8 50.3,34.9 48.7,36.7 47.7,38.3 48.1,39.8 
			48.1,43.3 48.1,45.6 46.4,46 45.2,49 44.1,51.2 43.2,51.6 41,52.2 41,53.6 39.1,54.6 37.6,53.6 35.7,54.1 34.3,56.2 35.8,55.9 
			38.2,55 38.2,56 39.1,57 37.1,63.5 36.4,65.1 37.3,66.3 36.7,67.1 37.2,68.7 37.8,70.5 36.7,72.5 35.5,72.5 33.7,71.5 32,72.8 
			30,72.8 28,74 26,74.3 25.2,74.8 24.9,75 24.4,74.9 24,74.8 22.7,74.9 23.6,72.5 24,71.4 21.7,71.4 21.7,69.8 22.9,67.5 
			22.1,65.9 24.1,64 24,62 23.4,60.5 24.3,59.3 24,57.4 23.5,54.1 22,51.9 22.1,50.6 22.8,48 25.3,48 26.9,46.5 26.6,45.7 
			28.5,45.2 28.6,43.8 27.6,42.8 28.2,42.2 29.6,42.2 30.6,41.5 32.4,39.8 32.5,36.8 34.1,35.9 34.1,34.2 35.8,32.9 37,31.8 
			37,30.1 36.3,27.8 35.9,26.6 37.5,25.8 37.1,25.2 39.1,25.2 40.8,23.1 39.5,19.9 41.8,5.6 39.5,3.7 39.5,0.6 40.9,0 -18.8,0 
			-18.8,100 5.3,100 3.3,97.5 4.5,83.8 6.1,84.3 7.3,83.2 9.5,81.3 11.5,80.7 13.4,78.1 15.1,74.6 15.8,72.5 18.6,73.3 20.9,74.4 
			19.9,76.6 19.3,77.8 21.9,79.3 23.1,81.8 21.5,84 23.1,86.8 26.3,86.4 26.3,82.9 24.1,80.7 25,78.8 27.4,81.7 29,82.7 29.7,80.7 
			31,82.3 31,84.6 32.1,87.3 34.6,87.6 32.8,83.6 32,81.2 29.8,79.3 28,78.6 26.8,77.2 25.4,76.6 25.7,76.1 26.8,75.8 27.9,75.4 
			28.8,75.1 31.6,74.5 33.2,73.7 33.2,74.9 34.2,74.3 35.3,75 36.1,76.6 37.2,77 37.3,78.6 39.2,79.3 39.5,79.9 38.2,82.3 
			38.8,82.7 39.5,81.4 40.5,80.7 40.5,81.9 41.6,82.6 41.6,80.7 40.3,78.4 39.2,76.6 40.2,75.8 42.5,76.8 43,77.1 44.3,78.3 
			46.8,78.8 48.8,77.7 49.9,78.6 50.3,80.3 50.3,81.5 52.2,82 52.3,83.6 53.1,84.6 54.1,83.8 54.2,81.4 52,80.1 51.4,78 50.3,75.3 
			49.2,75.8 47.9,76.2 46.2,76.9 44.9,76.6 43.8,74.7 42.2,75.6 40.4,74.3 38.8,74.7 38.8,71.9 39.9,67.6 39,65.9 38.2,64.7 
			38.9,62.8 41.7,58.1 41.7,56.8 41,55.4 41.5,53.7 		"/>
		<text transform="matrix(1 0 0 1 52.21 59.38)" class="st4 st5">HUELLELHUE</text>
		<text transform="matrix(1 0 0 1 64.77 70.22)" class="st4 st5">ANTILHUE</text>
		<text transform="matrix(1 0 0 1 77.9 76.55)" class="st4 st5">L</text>
		<text transform="matrix(1 0 0 1 79.55 76.55)" class="st4 st5">O</text>
		<text transform="matrix(1 0 0 1 81.5 76.55)" class="st4 st5">S L</text>
		<text transform="matrix(1 0 0 1 85.85 76.55)" class="st4 st5">A</text>
		<text transform="matrix(1 0 0 1 87.55 76.55)" class="st4 st5">G</text>
		<text transform="matrix(1 0 0 1 89.45 76.55)" class="st4 st5">O</text>
		<text transform="matrix(1 0 0 1 91.4 76.55)" class="st4 st5">S</text>
		<text transform="matrix(1 0 0 1 126.18 68.71)" class="st4 st5">L</text>
		<text transform="matrix(1 0 0 1 127.89 68.71)" class="st4 st5">A</text>
		<text transform="matrix(1 0 0 1 129.59 68.71)" class="st4 st5">GO</text>
		<text transform="matrix(1 0 0 1 124.36 72.22)" class="st4 st5">RIÑIHUE</text>
		<text transform="matrix(1 0 0 1 105.85 38.87)" class="st4 st5">Z</text>
		<text transform="matrix(1 0 0 1 107.49 38.87)" class="st4 st5">O</text>
		<text transform="matrix(1 0 0 1 109.45 38.87)" class="st4 st5">N</text>
		<text transform="matrix(1 0 0 1 111.36 38.87)" class="st4 st5">A DE </text>
		<text transform="matrix(1 0 0 1 118.61 38.87)" class="st4 st5">T</text>
		<text transform="matrix(1 0 0 1 120.05 38.87)" class="st4 st5">A</text>
		<text transform="matrix(1 0 0 1 121.75 38.87)" class="st4 st5">C</text>
		<text transform="matrix(1 0 0 1 123.54 38.87)" class="st4 st5">O</text>
		<text transform="matrix(1 0 0 1 125.49 38.87)" class="st4 st5">S</text>
		<text transform="matrix(1 0 0 1 155.45 45.4)" class="st4 st5">L</text>
		<text transform="matrix(1 0 0 1 157.16 45.4)" class="st4 st5">A</text>
		<text transform="matrix(1 0 0 1 158.86 45.4)" class="st4 st5">GO</text>
		<text transform="matrix(1 0 0 1 150.24 48.91)" class="st4 st5">P</text>
		<text transform="matrix(1 0 0 1 151.77 48.91)" class="st4 st5">ANGUIPULLI</text>
		<text transform="matrix(1 0 0 1 178.29 54.41)" class="st4 st5">L</text>
		<text transform="matrix(1 0 0 1 180 54.41)" class="st4 st5">A</text>
		<text transform="matrix(1 0 0 1 181.7 54.41)" class="st4 st5">GO</text>
		<text transform="matrix(1 0 0 1 175.68 57.92)" class="st4 st5">NE</text>
		<text transform="matrix(1 0 0 1 179.32 57.92)" class="st4 st5">L</text>
		<text transform="matrix(1 0 0 1 180.6 57.92)" class="st4 st5">TUME</text>
		<text transform="matrix(1 0 0 1 179.01 80.68)" class="st4 st5">L</text>
		<text transform="matrix(1 0 0 1 180.72 80.68)" class="st4 st5">A</text>
		<text transform="matrix(1 0 0 1 182.42 80.68)" class="st4 st5">GO</text>
		<text transform="matrix(1 0 0 1 175.05 84.19)" class="st4 st5">PIRIHUEICO</text>
		<text transform="matrix(1 0 0 1 180.11 28.51)" class="st4 st5">L</text>
		<text transform="matrix(1 0 0 1 181.82 28.51)" class="st4 st5">A</text>
		<text transform="matrix(1 0 0 1 183.52 28.51)" class="st4 st5">GO</text>
		<text transform="matrix(1 0 0 1 177.46 32.02)" class="st4 st5">PELLAI</text>
		<text transform="matrix(1 0 0 1 186.83 32.02)" class="st4 st5">F</text>
		<text transform="matrix(1 0 0 1 188.25 32.02)" class="st4 st5">A</text>
		<text transform="matrix(1 0 0 1 153.55 33.06)" class="st4 st5">L</text>
		<text transform="matrix(1 0 0 1 155.26 33.06)" class="st4 st5">A</text>
		<text transform="matrix(1 0 0 1 156.96 33.06)" class="st4 st5">GO</text>
		<text transform="matrix(1 0 0 1 149.53 36.57)" class="st4 st5">PULLINQUE</text>
		<text transform="matrix(1 0 0 1 150.27 12.3)" class="st4 st5">L</text>
		<text transform="matrix(1 0 0 1 151.98 12.3)" class="st4 st5">A</text>
		<text transform="matrix(1 0 0 1 153.68 12.3)" class="st4 st5">GO</text>
		<text transform="matrix(1 0 0 1 145.84 15.81)" class="st4 st5">CALA</text>
		<text transform="matrix(1 0 0 1 152.88 15.81)" class="st4 st5">F</text>
		<text transform="matrix(1 0 0 1 154.47 15.81)" class="st4 st5">QUEN</text>
		<text transform="matrix(1 0 0 1 102.53 60.58)" class="st6 st7">RÍO</text>
		<text transform="matrix(1 0 0 1 97.8 63.82)" class="st6 st7">S</text>
		<text transform="matrix(1 0 0 1 99.29 63.82)" class="st6 st7">AN PED</text>
		<text transform="matrix(1 0 0 1 107.91 63.82)" class="st6 st7">R</text>
		<text transform="matrix(1 0 0 1 109.41 63.82)" class="st6 st7">O</text>
		<text transform="matrix(1 0 0 1 78.87 57.94)" class="st6 st7">RÍO</text>
		<text transform="matrix(1 0 0 1 73.06 61.18)" class="st6 st7">CALLE CALLE</text>
		<text transform="matrix(1 0 0 1 154.01 79.27)" class="st6 st7">RÍO</text>
		<text transform="matrix(1 0 0 1 152.68 82.51)" class="st6 st7">ENCO</text>
		<text transform="matrix(1 0 0 1 166.89 67.54)" class="st6 st7">RÍO</text>
		<text transform="matrix(1 0 0 1 161.43 70.78)" class="st6 st7">LLANQUIHUE</text>
		<text transform="matrix(1 0 0 1 134.08 32.64)" class="st6 st7">RÍO</text>
		<text transform="matrix(1 0 0 1 131.9 35.88)" class="st6 st7">ZAHUIT</text>
		<text transform="matrix(1 0 0 1 42.95 75.85)" class="st4 st5">V</text>
		<text transform="matrix(1 0 0 1 44.5 75.85)" class="st4 st5">ALDIV</text>
		<text transform="matrix(1 0 0 1 52.45 75.85)" class="st4 st5">I</text>
		<text transform="matrix(1 0 0 1 53.23 75.85)" class="st4 st5">A</text>
		<text transform="matrix(1 0 0 1 181.29 17.49)" class="st3 st8 st9">N</text>
		<text transform="matrix(1 0 0 1 180.88 12.3)" class="st3 st8 st9">↑</text>
	</g>
	<g id="Capa_7">
		<g>
			<circle class="st10" cx="43" cy="68" r="5.9"/>
			<ellipse class="st10" cx="43" cy="68" rx="12.1" ry="12.3"/>
			<ellipse class="st10" cx="43" cy="68" rx="18.2" ry="18.6"/>
			<ellipse class="st10" cx="43" cy="68" rx="24.4" ry="25"/>
			<ellipse class="st10" cx="43" cy="68" rx="30.5" ry="31.3"/>
		</g>
	</g>
</g>
</svg>
