<svg xmlns="http://www.w3.org/2000/svg" xmlns:xlink="http://www.w3.org/1999/xlink" viewBox="0 0 200 100"><defs><style>.cls-1,.cls-6{fill:none;}.cls-2{fill:#ccc;}.cls-3{fill:#708088;}.cls-4{fill:#2bbba0;}.cls-5{clip-path:url(#clip-path);}.cls-6{stroke:#8c8c8c;stroke-miterlimit:10;stroke-width:0.2px;}.cls-7{clip-path:url(#clip-path-2);}.cls-8{fill:#9b9b9b;}.cls-9{fill:#666;}</style><clipPath id="clip-path"><path class="cls-1" d="M152.42,18.31l-6.93.46-3.91,2.09-7.75,3.27-6.66,5.42-6.78,5.3-5.5.41L112,43.68l-.44,19h45.07a8.81,8.81,0,0,0,9-8.62v-36l-11.47.49Z"/></clipPath><clipPath id="clip-path-2"><path class="cls-1" d="M58.65,62.66H89.56l-1-.85L86.79,42.26,84.24,36l-5.48-3.13L72,31l-4.39-3.85L59.33,24,56.4,18.06l-4.74-.74-2-.27V54A8.81,8.81,0,0,0,58.65,62.66Z"/></clipPath></defs><title>6</title><g id="Capa_2" data-name="Capa 2"><path class="cls-2" d="M45.32,4.24a7.36,7.36,0,0,1,2.55-1.52,1.92,1.92,0,0,1,1-.16c.08,0,.17,0,.17.14a.15.15,0,0,1-.14.12,7.63,7.63,0,0,0-2.48,1,2.67,2.67,0,0,0-1.31,1.51,3.84,3.84,0,0,1-.88,1.5c.08.09.14,0,.2,0s.18-.05.21,0,0,.16-.12.17c-.86.15-1.19,1-1.79,1.42a8.23,8.23,0,0,0-1.44,1.62,3.6,3.6,0,0,0-.7,2.49A9.38,9.38,0,0,1,39.83,17a3,3,0,0,0-.26,1.45c.21,2.36.15,4.72.13,7.08,0,.47-.07.52-.55.5a6.45,6.45,0,0,0-.76,0c-.28,0-.39-.11-.37-.38,0-.83.06-1.66.17-2.48a15.43,15.43,0,0,0,.12-2.25c0-.82,0-1.64.06-2.45,0-1.62.08-3.25,0-4.86a37.87,37.87,0,0,0-.5-4.75c0-.08-.06-.17,0-.23a5.3,5.3,0,0,0-.13-2.74,18.17,18.17,0,0,0-.22-1.95,16.92,16.92,0,0,0-.91-2.53A2.37,2.37,0,0,1,36.3.41c0-.1,0-.21.09-.25s.16.07.21.14a10.19,10.19,0,0,1,.79,1.75,8.88,8.88,0,0,1,.74,2.53s0,.1,0,.11c.45.2.2.54.2.84a2.93,2.93,0,0,0,.07.72,24.84,24.84,0,0,1,.32,3c.1.8.19,1.59.3,2.39,0,.13,0,.3.19.32s.17-.15.25-.24a2.28,2.28,0,0,0,.43-2,.31.31,0,0,0-.22-.3,1.91,1.91,0,0,1-.32-.16c-.13-.09-.33-.22-.22-.37s.25,0,.36.11c.42.24.64.13.65-.35s0-1.18,0-1.77a3.63,3.63,0,0,0-.67-1.45,1.42,1.42,0,0,0-.69-.7.19.19,0,0,1-.15-.25c.06-.16.2-.1.31-.06a1,1,0,0,1,.52.36c.22.32.45.63.67.94.13,0,.12-.11.12-.18a31.07,31.07,0,0,0,.37-3.71c0-.87.7-1.23,1-1.85a.16.16,0,0,1,.14,0c.07,0,.06.11,0,.18a.27.27,0,0,1-.06.1A4.36,4.36,0,0,0,41,3c0,.32.08.46.42.33A1.33,1.33,0,0,1,42,3.2c.11,0,.26,0,.27.12s-.16.16-.27.16a2.38,2.38,0,0,0-.75.15.41.41,0,0,0-.34.38,20.67,20.67,0,0,0-.2,2.2c0,.47,0,1,0,1.43,0,.26.14.3.34.2s.43-.26.65-.39A2.07,2.07,0,0,1,43,7.06a.53.53,0,0,0,.58-.58,2,2,0,0,1,.68-1.64,4,4,0,0,0,.89-1.73c.16-.53.49-1,.68-1.53s.47-1.26.66-1.9c.05-.14.09-.37.3-.3s.13.26.09.41a32.53,32.53,0,0,1-1.24,3.47c0,.08-.11.19-.08.22C45.8,3.82,45.42,4,45.32,4.24Zm-2.44,3.2a.92.92,0,0,0-.54.12l-.92.56a1.32,1.32,0,0,0-.66,1.63A14.86,14.86,0,0,1,42.88,7.44Z"/><path class="cls-2" d="M181.41,4.43A4.18,4.18,0,0,1,182,3.12,1.24,1.24,0,0,0,182.21,2,4,4,0,0,1,182,.62c0-.43,0-.89-.63-.71,0-.1,0-.14,0-.17.19-.26.62-.28.62-.72a2.86,2.86,0,0,0-.36-1.72c-.43-.65-1-1.17-1.44-1.85-.13-.23-.42-.45-.1-.71s.51,0,.68.24.54.67.8,1,.34.28.58,0a9.87,9.87,0,0,1,2.06-2.17c.29-.19.3-.5.34-.79a4.59,4.59,0,0,1,.79-1.89,1.29,1.29,0,0,0-.27-1.32,5.79,5.79,0,0,1-1.55-1.87,2.48,2.48,0,0,1-.06-2,2.85,2.85,0,0,1,.37,1.32c.11,1,.48,1.32,1.42,1.12.06.11-.05.15-.09.22s-.58.08-.37.46a.76.76,0,0,0,1,.27l1-.69c.11-.07.23-.2.34,0s0,.25-.12.33c-.29.23-.59.44-.9.65s-.44.43-.2.74,0,.68,0,1c0,.07,0,.14.05.27a3.92,3.92,0,0,0,.88-1c.06-.1.14-.19.26-.12a.21.21,0,0,1,.09.29,2.52,2.52,0,0,1-.44.79c-.17.17-.36.27-.23.53s.15.34.35.3A.76.76,0,0,0,187.6-8a2.35,2.35,0,0,1,.15-.47c.22-.35.62-.3.87.12-.21,0-.52-.21-.61.11s.24.06.3.19,0,.08,0,.1c-.7.5-.69.49-.06,1.1.23.22.54.35.62.7,0,.12.15.28,0,.36-.58.34-.15.49.13.6s.4.42.45.74c-.23,0-.26-.16-.38-.23-.28-.19-.5-.56-.95-.3-.12.07-.37,0-.53-.1A3.28,3.28,0,0,0,186-5.33a1,1,0,0,0-.82.85c0,.34.11.5.47.35l.42-.16c.09,0,.19,0,.26,0a1.23,1.23,0,0,1-.41,1,2.4,2.4,0,0,0-.69.21c-.26.12-.46.25-.37.59,0,.06,0,.19,0,.21-.66.28-.27.55,0,.8-.16.19-.3.09-.43,0s-.38,0-.39.22-.18.38-.36.52-.42.28-.43.55-.13.67.13.84.37-.22.58-.32c.39-.19.76-.39,1.15-.57a2.29,2.29,0,0,0,1.61-1.94c.31.44.33.45.74.14a3.24,3.24,0,0,1,.49-.36c.17-.09.41-.16.33.19s.11.19.23.21l.88.13c.09,0,.18.07.16.19s-.12.1-.22.09c-.31,0-.63,0-.94,0a2,2,0,0,0-1.6.78,3.63,3.63,0,0,1-1.14,1c-.11.06-.27.13-.3.23s-.37.52.17.56c.08,0,.16.07.23.21-.45,0-.91.07-1.37.07a.63.63,0,0,0-.66.5,21.61,21.61,0,0,0-.93,5.47,3.42,3.42,0,0,0,.2,1.31,4.27,4.27,0,0,1,0,2.16,23.57,23.57,0,0,0-.3,3.66c0,.62-.08,1.23-.08,1.84a17,17,0,0,0,1,6.12c.05.15.18.32.05.47s-.32.06-.47,0a13.93,13.93,0,0,0-2-.42c-.58-.14-.63-.27-.22-.69a.86.86,0,0,0,.27-.7c-.11-1.52,0-3.05-.29-4.56a.69.69,0,0,1,0-.38,4.65,4.65,0,0,0-.1-2.95,1.32,1.32,0,0,0-.37-.62c-.16-.17-.29-.36-.15-.6a.55.55,0,0,1,.6-.32c.47.11.52-.13.57-.5a31.11,31.11,0,0,0,.06-4.73,1.21,1.21,0,0,0-.37-.91,6.83,6.83,0,0,1-1.84-2.94,1.65,1.65,0,0,0-.54-.83.34.34,0,0,1-.06-.57c.2-.23.4-.21.63,0a2.88,2.88,0,0,1,.7,1,7.54,7.54,0,0,0,1.2,2.19Zm5.8-11.73a8.42,8.42,0,0,0-1.38.85c-.13.1-.41.16-.33.38s.32.23.53.22a4.15,4.15,0,0,1,1.53.22c.49.18.7-.23.91-.47s-.2-.32-.33-.48a7.14,7.14,0,0,0-.55-.55A.46.46,0,0,0,187.21-7.3ZM182.84-3c.14.13-.06.67.44.43a5.15,5.15,0,0,0,.91-.64c.13-.11.28-.3,0-.34s-.39-.22-.22-.49a.21.21,0,0,0,0-.26.14.14,0,0,0-.19,0A3.85,3.85,0,0,0,182.84-3Z"/><path class="cls-2" d="M39.78-19.18c1.26,0,.68.86.6,1.21-.15.65.21.88.61,1.14s.53.27.65.56c.19.46.44.29.67.08s.43-.4.74-.14c.13.1.29,0,.41-.08.39-.33.65-.24,1,.2a2.91,2.91,0,0,1,.47,1,.71.71,0,0,0,.52.51,1.34,1.34,0,0,1,1,1.19,1,1,0,0,0,.17.53c.35.36.09.52-.18.71.46.15.51.52.54.9a1,1,0,0,1-.56.82c-.38.24-.82.53-1.32.2a.24.24,0,0,0-.33.11.24.24,0,0,0,.07.34c.4.21.48.69.84.93.1.07.34.13.17.38s-.23.35-.49.3a1.45,1.45,0,0,1-1.09-.92c-.14-.31-.08-.69-.57-.28-.11.1-.4,0-.61,0s-.45,0-.52.3c.65-.15.95.14.76.78s.33.93.67,1.24a12.9,12.9,0,0,0,1.31,1.25c.41.3.31.88.18,1.31s-.61.32-.94.4c-.16,0-.37,0-.53.08s-.63.37-.1.72a4.34,4.34,0,0,1,.71.71c.12.12.24.27.14.45s-.27.18-.44.12-.39-.06-.53.29a2.79,2.79,0,0,1-.91,1c-.21.17-.29-.09-.4-.26s-.16-.41-.45-.37c-.12,0-.18.07-.17.21s.09.51.39.58A2.52,2.52,0,0,1,43-.4c.26.16.48.33.35.65s0,.72-.56.54c-.12,0-.11,0-.12.15a.71.71,0,0,1-1.06.47,1.25,1.25,0,0,0-1.16-.06A1.15,1.15,0,0,1,39,1,1.74,1.74,0,0,0,37.38.42c-.07,0-.2,0-.21.11-.16.56-.46.35-.74.13S36,.36,35.85.8c-.06.26-.21.21-.37.08s-.15-.24-.3-.12a.25.25,0,0,0,0,.35c.36.5.2.83-.3,1.1-.19.11-.27.24,0,.42s.25.79.43,1.18a.31.31,0,0,1-.22.35c-.36,0-.64.36-1,.38-.66,0-.61.4-.52.83l.09.57c.06.36.08.31.51.5a.59.59,0,0,1,.22.7c-.06.18-.31.48-.45.32-.4-.49-1.37-.29-1.37-1.25a.94.94,0,0,0-.39.69,14.41,14.41,0,0,1-1.76,3.87,1.1,1.1,0,0,1-.14.21c-1.15.92-1.13,2.09-.82,3.4a16.77,16.77,0,0,1,.4,3.46c0,.4-.05,3.53-.05,3.95a9.31,9.31,0,0,1-.32,3,.72.72,0,0,1-.58.6c-.45.06-.76,0-.75-.58s-.06-1,0-1.46a17,17,0,0,0,0-1.87c0-.36,0-2.33,0-2.78a37.12,37.12,0,0,0-.41-4.94A1.89,1.89,0,0,0,27,12.63a20.92,20.92,0,0,1-3.41-3.82,6.08,6.08,0,0,0-2-1.73,2.8,2.8,0,0,1-1.22-1.32c-.23-.5-.54-1.09-1.31-.87-.13,0-.22,0-.26-.11-.16-.57-.48-.45-.86-.22s-.69.39-.71-.27c0-.18-.23-.18-.31-.28-.22-.28-.84.27-.88-.43a3.8,3.8,0,0,0-.84-.08c-.35,0-.75.08-.73-.5,0-.11-.2-.27-.26-.17-.3.49-.86.24-1.24.49s-.6,0-.86-.14c-.06,0-.67-.5.09-.6a2.38,2.38,0,0,0,.43-1.19c-.22-.29-.44-.06-.67,0A6.53,6.53,0,0,1,8.85,2c-.16,0-.38-.1-.38-.29s-.19-.29-.35-.41S7.47.89,8,.56c.07-.05.12-.09.1-.2C7.9-.37,8.11-1,8.74-1c1,0,1.13-.7,1.45-1.32a.37.37,0,0,0,.05-.11.2.2,0,0,0,0-.08,1.11,1.11,0,0,0-.89.59c-.17.24-.39.5-.72.25-.11-.08-.23-.27-.2-.38.07-.27.38-.17.6-.25A1.3,1.3,0,0,1,8.73-4a3.38,3.38,0,0,1,1.52-1.47c.18-.07.33-.32.12-.34-.48,0-.72-.51-1.19-.53-.25,0-.35,0-.36.26a.49.49,0,0,1-.39.51.29.29,0,0,1-.31-.17.53.53,0,0,1,.08-.65,3,3,0,0,0,.63-1.44c.13-.57.37-1,1.07-1-.7-.53-.7-.55-.16-1.07a.31.31,0,0,0-.07-.09c-.2-.09-.46.3-.61,0a.59.59,0,0,1,.24-.73,1,1,0,0,0,.33-.44,4.38,4.38,0,0,1,1.22-1.17,5.58,5.58,0,0,1,1.82-.68,2,2,0,0,1,1.8.19c.2.13.26,0,.36-.1a14.35,14.35,0,0,1,1.68-1.44c.16-.09.28-.32.17-.44-1-1-.18-1.86.2-2.79.15-.37.47-.64.42-1.19-.07-.73.73-1.21,1-1.9.61.08.66-.52,1-.79a1,1,0,0,1,.76-.27c.94.2,1.9-.33,2.83.08.1,0,.28-.07.42-.11s.37,0,.38.19c0,.83.56.33.83.25s.9-.14.53-.77c-.08-.14-.11-.34.07-.38.82-.18.69-.92.78-1.44.13-.83.71-1.06,1.33-1.2s1.22-.35,1.7.36c.2.28.53.71,1,.29a.49.49,0,0,1,.6.05.35.35,0,0,1,0,.47c-.16.2,0,.28.12.39s.51.32.51.61c0,.64.52.85.88,1.2.11.11.19,0,.27,0A2.6,2.6,0,0,1,35-22.21c.62.24,1.23.5,1.21,1.32,0,.13,0,.3.18.3a9.42,9.42,0,0,0,2.54.16c.31-.09.69-.31.92.07S40.36-19.6,39.78-19.18Zm-12.15,31A2.62,2.62,0,0,0,27.1,9,30.64,30.64,0,0,1,23.83,4.3c-.2-.37-.36-.82-.94-.57a.21.21,0,0,1-.26-.14c-.09-.17-.12-.47-.43-.3s-.15.4-.07.65c.29.91,1,1.55,1.3,2.49C24.08,8.74,25.85,10.22,27.63,11.8ZM27,.41c-.1-.33-.49-.73-.06-.89s.27-.3.28-.49a2.48,2.48,0,0,0-.73-1.64c-.14-.19-.44-.24-.49,0a11.38,11.38,0,0,1-.82,2.45c-.08.19,0,.37.23.48s.32.2.45,0C26.24-.1,26.61-.08,27,.41Zm.5,7.33c-.05-.59.14-1.23-.18-1.34-.59-.19-.35-.48-.28-.78a.44.44,0,0,0-.12-.51,3.37,3.37,0,0,0-2.3-1A16.44,16.44,0,0,0,27.51,7.74ZM31.94-.19c-.4.2-.2.53-.3.77a1.52,1.52,0,0,0-1.3.89.82.82,0,0,0,.48.94c.17.08.4.25.5,0,.24-.52.78-.81,1-1.39S32.1.4,32,.09A.78.78,0,0,1,31.94-.19ZM22.79,6.88a14.81,14.81,0,0,0-1.43-2.64C20.47,5.65,20.72,6.13,22.79,6.88Zm8.43-1.44c-.09,0-.25.07-.3.16a6.78,6.78,0,0,0-.76,1.72c-.07.28.19.39.39.35a.78.78,0,0,0,.64-.44c.23-.43.17-.93.46-1.35C31.82,5.65,31.47,5.53,31.22,5.44ZM17.37,1.39c.32.32.34.58-.09.76s-.44-.08-.51-.36a.26.26,0,0,0-.34-.2.11.11,0,0,0-.07.19c.39.39.55,1,1,1.29.11.08.3.22.38,0,.18-.37.64-.65.55-1.11S17.8,1.48,17.37,1.39Zm12,6.78a4.81,4.81,0,0,0-.23,2.47,12.94,12.94,0,0,0,1.09-1.3c.1-.17.17-.5,0-.49C29.73,8.88,29.71,8.36,29.37,8.17Z"/><path class="cls-3" d="M185,2.6a1,1,0,0,1-.18.78.17.17,0,0,0,0,.24c.21.2.32.49.58.67a1.9,1.9,0,0,1,.83,2.45A5.16,5.16,0,0,0,186,9a2.43,2.43,0,0,1-.1,1,1.06,1.06,0,0,0-.06.66,1.93,1.93,0,0,1-.06,1,9.49,9.49,0,0,0-.36,3.17c0,.79,0,1.58-.06,2.36a11.14,11.14,0,0,1-.44,2,.23.23,0,0,1-.19.21,3,3,0,0,1-1.23-.13c-.22-.09-.15-.27,0-.34.43-.15.48-.5.5-.85a24.41,24.41,0,0,0-.29-4.52,2,2,0,0,0-.08-.33c0-.08,0-.18-.13-.2s-.14.09-.19.15a3.84,3.84,0,0,0-.61,1.37c-.3,1-.24,2.13-.6,3.14a1.37,1.37,0,0,0,0,.75c.16.81,0,1.05-.88,1-.46,0-.92,0-1.38-.05-.09,0-.21,0-.25-.12a.21.21,0,0,1,.19-.25c.92-.17,1.06-.79,1.08-1.58,0-.6,0-1.2.07-1.8a27.14,27.14,0,0,1,.4-2.81,19.51,19.51,0,0,1,.46-2c.14-.52.17-1.08.32-1.6,0-.17-.09-.26-.2-.34a1.42,1.42,0,0,1-.57-1.71,9.27,9.27,0,0,0,.25-1.49,1.66,1.66,0,0,1,1.17-1.39c.26-.11.33-.22.24-.46s-.12-.7-.38-1c-.08-.08-.13-.26,0-.31.32-.14.34-.46.5-.7a1.2,1.2,0,0,1,1.2-.49C184.82,1.49,185,1.84,185,2.6Z"/><path class="cls-3" d="M177,11.31a22.51,22.51,0,0,1-.25,3.69,2.43,2.43,0,0,0,.1,1c.23,1.06.1,2.15.24,3.23a.66.66,0,0,0,.54.68c.18,0,.41.08.38.32s-.28.23-.46.22c-.38,0-.77-.08-1.15-.13a.32.32,0,0,1-.29-.27c-.22-1.06-.35-2.13-.54-3.2s-.41-2.12-.62-3.18a1.26,1.26,0,0,0-.13-.23c-.15.51-.31.94-.4,1.38a22.85,22.85,0,0,0-.46,3.29,12.62,12.62,0,0,0-.1,1.38c0,.9-.52,1.35-1.32,1.13-.11,0-.24,0-.27-.17a.23.23,0,0,1,.15-.27c.26-.12.24-.32.24-.56a17.32,17.32,0,0,1,.09-3.94,5,5,0,0,0,0-1.64,7.13,7.13,0,0,1-.06-1.6,2.13,2.13,0,0,0,0-.71,1.27,1.27,0,0,1,0-.67c.37-.78.11-1.61.28-2.5a2.32,2.32,0,0,1-.85.76A.8.8,0,0,1,171,9l-.08-.1c-.37-.38-.44-.95-1.1-1.16s-.6-.68-.36-1.26c.09-.21,0-.51.29-.61a.59.59,0,0,1,.77.42,2.45,2.45,0,0,0,.75,1.38c.19.13.29.15.41,0a3.49,3.49,0,0,0,.47-.71,2.58,2.58,0,0,1,1.65-1.49c.32-.12.35-.26.19-.56a7.12,7.12,0,0,1-.36-1.16c-.14-.44.25-.77.59-1a1.06,1.06,0,0,1,1.18,0,.75.75,0,0,1,.43.84,2.78,2.78,0,0,1-.12,1.14.51.51,0,0,0,.25.62,1.35,1.35,0,0,0,.26.15,2.12,2.12,0,0,1,1.6,2.13c0,1,.31,1.91.27,2.89a6.1,6.1,0,0,0,.16,1.38,2,2,0,0,1-.2,1.57.46.46,0,0,1-.42.25c-.23,0-.15-.28-.17-.43,0-.46-.05-.92-.07-1.38A.61.61,0,0,0,177,11.31Z"/><rect class="cls-4" x="84.15" y="39.9" width="29.75" height="24.81"/><polygon class="cls-2" points="0 14.01 12.12 14.01 23.73 15.98 29.65 15 40.76 15 48.47 16.88 51.66 17.32 56.41 18.06 59.33 23.97 67.62 27.14 72.01 30.99 78.76 32.83 84.24 35.96 86.79 42.26 88.58 61.81 89.94 62.99 100.45 62.82 111.57 62.82 112.01 43.68 114.89 35.26 120.39 34.85 127.17 29.55 133.83 24.13 141.58 20.86 145.49 18.77 152.42 18.31 154.15 18.55 184.65 17.24 191.46 17.24 200 17.78 200 100 0 100 0 14.01"/><g class="cls-5"><line class="cls-6" x1="205.12" y1="8.28" x2="147.72" y2="65.68"/><line class="cls-6" x1="214.36" y1="8.28" x2="156.95" y2="65.68"/><line class="cls-6" x1="186.64" y1="8.28" x2="129.24" y2="65.68"/><line class="cls-6" x1="197.73" y1="8.28" x2="140.32" y2="65.68"/><line class="cls-6" x1="212.51" y1="8.28" x2="155.11" y2="65.68"/><line class="cls-6" x1="182.94" y1="8.28" x2="125.54" y2="65.68"/><line class="cls-6" x1="194.03" y1="8.28" x2="136.63" y2="65.68"/><line class="cls-6" x1="171.86" y1="8.28" x2="114.46" y2="65.68"/><line class="cls-6" x1="179.25" y1="8.28" x2="121.85" y2="65.68"/><line class="cls-6" x1="208.81" y1="8.28" x2="151.41" y2="65.68"/><line class="cls-6" x1="145.99" y1="8.28" x2="88.59" y2="65.68"/><line class="cls-6" x1="153.38" y1="8.28" x2="95.98" y2="65.68"/><line class="cls-6" x1="142.29" y1="8.28" x2="84.89" y2="65.68"/><line class="cls-6" x1="157.07" y1="8.28" x2="99.67" y2="65.68"/><line class="cls-6" x1="168.16" y1="8.28" x2="110.76" y2="65.68"/><line class="cls-6" x1="175.55" y1="8.28" x2="118.15" y2="65.68"/><line class="cls-6" x1="149.68" y1="8.28" x2="92.28" y2="65.68"/><line class="cls-6" x1="164.47" y1="8.28" x2="107.06" y2="65.68"/><line class="cls-6" x1="160.77" y1="8.28" x2="103.37" y2="65.68"/><line class="cls-6" x1="190.33" y1="8.28" x2="132.93" y2="65.68"/><line class="cls-6" x1="201.42" y1="8.28" x2="144.02" y2="65.68"/><line class="cls-6" x1="195.88" y1="8.28" x2="138.48" y2="65.68"/><line class="cls-6" x1="206.96" y1="8.28" x2="149.56" y2="65.68"/><line class="cls-6" x1="192.18" y1="8.28" x2="134.78" y2="65.68"/><line class="cls-6" x1="203.27" y1="8.28" x2="145.87" y2="65.68"/><line class="cls-6" x1="181.1" y1="8.28" x2="123.69" y2="65.68"/><line class="cls-6" x1="188.49" y1="8.28" x2="131.09" y2="65.68"/><line class="cls-6" x1="144.14" y1="8.28" x2="86.74" y2="65.68"/><line class="cls-6" x1="155.23" y1="8.28" x2="97.83" y2="65.68"/><line class="cls-6" x1="162.62" y1="8.28" x2="105.22" y2="65.68"/><line class="cls-6" x1="151.53" y1="8.28" x2="94.13" y2="65.68"/><line class="cls-6" x1="147.84" y1="8.28" x2="90.43" y2="65.68"/><line class="cls-6" x1="166.31" y1="8.28" x2="108.91" y2="65.68"/><line class="cls-6" x1="177.4" y1="8.28" x2="120" y2="65.68"/><line class="cls-6" x1="184.79" y1="8.28" x2="127.39" y2="65.68"/><line class="cls-6" x1="158.92" y1="8.28" x2="101.52" y2="65.68"/><line class="cls-6" x1="173.7" y1="8.28" x2="116.3" y2="65.68"/><line class="cls-6" x1="170.01" y1="8.28" x2="112.61" y2="65.68"/><line class="cls-6" x1="199.57" y1="8.28" x2="142.17" y2="65.68"/><line class="cls-6" x1="210.66" y1="8.28" x2="153.26" y2="65.68"/></g><g class="cls-7"><line class="cls-6" x1="129.21" y1="7.77" x2="71.81" y2="65.17"/><line class="cls-6" x1="138.45" y1="7.77" x2="81.05" y2="65.17"/><line class="cls-6" x1="110.74" y1="7.77" x2="53.33" y2="65.17"/><line class="cls-6" x1="121.82" y1="7.77" x2="64.42" y2="65.17"/><line class="cls-6" x1="144" y1="7.77" x2="86.59" y2="65.17"/><line class="cls-6" x1="136.6" y1="7.77" x2="79.2" y2="65.17"/><line class="cls-6" x1="142.15" y1="7.77" x2="84.75" y2="65.17"/><line class="cls-6" x1="107.04" y1="7.77" x2="49.64" y2="65.17"/><line class="cls-6" x1="118.13" y1="7.77" x2="60.73" y2="65.17"/><line class="cls-6" x1="95.95" y1="7.77" x2="38.55" y2="65.17"/><line class="cls-6" x1="103.34" y1="7.77" x2="45.94" y2="65.17"/><line class="cls-6" x1="132.91" y1="7.77" x2="75.51" y2="65.17"/><line class="cls-6" x1="140.3" y1="7.77" x2="82.9" y2="65.17"/><line class="cls-6" x1="60.85" y1="7.77" x2="3.44" y2="65.17"/><line class="cls-6" x1="70.08" y1="7.77" x2="12.68" y2="65.17"/><line class="cls-6" x1="77.48" y1="7.77" x2="20.07" y2="65.17"/><line class="cls-6" x1="59" y1="7.77" x2="1.6" y2="65.17"/><line class="cls-6" x1="66.39" y1="7.77" x2="8.99" y2="65.17"/><line class="cls-6" x1="62.69" y1="7.77" x2="5.29" y2="65.17"/><line class="cls-6" x1="81.17" y1="7.77" x2="23.77" y2="65.17"/><line class="cls-6" x1="92.26" y1="7.77" x2="34.86" y2="65.17"/><line class="cls-6" x1="99.65" y1="7.77" x2="42.25" y2="65.17"/><line class="cls-6" x1="73.78" y1="7.77" x2="16.38" y2="65.17"/><line class="cls-6" x1="88.56" y1="7.77" x2="31.16" y2="65.17"/><line class="cls-6" x1="84.87" y1="7.77" x2="27.47" y2="65.17"/><line class="cls-6" x1="114.43" y1="7.77" x2="57.03" y2="65.17"/><line class="cls-6" x1="125.52" y1="7.77" x2="68.12" y2="65.17"/><line class="cls-6" x1="119.97" y1="7.77" x2="62.57" y2="65.17"/><line class="cls-6" x1="131.06" y1="7.77" x2="73.66" y2="65.17"/><line class="cls-6" x1="116.28" y1="7.77" x2="58.88" y2="65.17"/><line class="cls-6" x1="127.37" y1="7.77" x2="69.96" y2="65.17"/><line class="cls-6" x1="105.19" y1="7.77" x2="47.79" y2="65.17"/><line class="cls-6" x1="112.58" y1="7.77" x2="55.18" y2="65.17"/><line class="cls-6" x1="68.24" y1="7.77" x2="10.84" y2="65.17"/><line class="cls-6" x1="79.32" y1="7.77" x2="21.92" y2="65.17"/><line class="cls-6" x1="86.71" y1="7.77" x2="29.31" y2="65.17"/><line class="cls-6" x1="64.54" y1="7.77" x2="7.14" y2="65.17"/><line class="cls-6" x1="75.63" y1="7.77" x2="18.23" y2="65.17"/><line class="cls-6" x1="71.93" y1="7.77" x2="14.53" y2="65.17"/><line class="cls-6" x1="90.41" y1="7.77" x2="33.01" y2="65.17"/><line class="cls-6" x1="101.5" y1="7.77" x2="44.1" y2="65.17"/><line class="cls-6" x1="108.89" y1="7.77" x2="51.49" y2="65.17"/><line class="cls-6" x1="83.02" y1="7.77" x2="25.62" y2="65.17"/><line class="cls-6" x1="97.8" y1="7.77" x2="40.4" y2="65.17"/><line class="cls-6" x1="94.11" y1="7.77" x2="36.7" y2="65.17"/><line class="cls-6" x1="123.67" y1="7.77" x2="66.27" y2="65.17"/><line class="cls-6" x1="134.76" y1="7.77" x2="77.36" y2="65.17"/></g><rect class="cls-8" x="54.39" y="14.94" width="0.96" height="42.88"/><ellipse class="cls-9" cx="54.87" cy="14.94" rx="0.48" ry="0.34"/><rect class="cls-8" x="73.09" y="22.67" width="0.96" height="36.07"/><ellipse class="cls-9" cx="73.57" cy="22.67" rx="0.48" ry="0.34"/><rect class="cls-8" x="147.23" y="14.36" width="0.96" height="42.88" transform="translate(295.42 71.59) rotate(-180)"/><ellipse class="cls-9" cx="147.71" cy="14.36" rx="0.48" ry="0.34"/><rect class="cls-8" x="128.26" y="22.5" width="0.96" height="36.07" transform="translate(257.48 81.06) rotate(-180)"/><ellipse class="cls-9" cx="128.74" cy="22.5" rx="0.48" ry="0.34"/></g></svg>