<svg xmlns="http://www.w3.org/2000/svg" viewBox="0 0 200 100"><defs><style>.cls-1{fill:#708088;}.cls-2{fill:#ccc;}.cls-3{fill:#2bbba0;}.cls-4{font-size:2.86px;fill:#fff;font-family:WorkSans-Medium, Work Sans;font-weight:500;}.cls-5{fill:none;stroke:#fff;stroke-miterlimit:10;stroke-width:0.5px;}</style></defs><title>5</title><g id="Capa_1" data-name="Capa 1"><path class="cls-1" d="M162.59,44.21a18.54,18.54,0,0,1-.22,3.18,2.36,2.36,0,0,0,.09.83c.19.91.09,1.85.2,2.78a.58.58,0,0,0,.48.58c.15,0,.35.07.32.28s-.24.2-.39.19c-.34,0-.67-.07-1-.11a.29.29,0,0,1-.25-.23c-.19-.92-.3-1.84-.46-2.76s-.35-1.83-.53-2.74a1.58,1.58,0,0,0-.12-.2c-.13.44-.26.81-.34,1.19A19.47,19.47,0,0,0,160,50c0,.4-.1.79-.09,1.19,0,.78-.45,1.16-1.13,1-.1,0-.21,0-.24-.15a.2.2,0,0,1,.14-.23c.22-.11.2-.28.2-.49a14.79,14.79,0,0,1,.08-3.39,4.45,4.45,0,0,0,0-1.41,5.8,5.8,0,0,1,0-1.38,2.09,2.09,0,0,0,0-.61,1.14,1.14,0,0,1,0-.58c.33-.67.1-1.38.25-2.16a2,2,0,0,1-.73.66.69.69,0,0,1-.95-.21l-.07-.09c-.32-.32-.38-.82-1-1s-.51-.59-.3-1.09c.07-.17,0-.44.24-.52a.5.5,0,0,1,.66.36,2.06,2.06,0,0,0,.66,1.19c.16.11.24.13.35,0a3.3,3.3,0,0,0,.4-.6,2.22,2.22,0,0,1,1.42-1.29c.28-.11.3-.22.17-.48a5,5,0,0,1-.31-1c-.13-.38.21-.66.5-.9a.9.9,0,0,1,1,0,.65.65,0,0,1,.37.72,2.4,2.4,0,0,1-.11,1,.45.45,0,0,0,.22.53,1,1,0,0,0,.23.13A1.85,1.85,0,0,1,163.31,41c0,.83.26,1.64.23,2.49a5.46,5.46,0,0,0,.13,1.18A1.67,1.67,0,0,1,163.5,46c-.09.12-.21.25-.36.22S163,46,163,45.89c0-.39-.05-.79-.07-1.19A.52.52,0,0,0,162.59,44.21Z"/><path class="cls-1" d="M169.47,36.71a.91.91,0,0,1-.16.67.14.14,0,0,0,0,.2c.18.18.27.43.5.58a1.63,1.63,0,0,1,.71,2.11,4.4,4.4,0,0,0-.19,1.93,2.11,2.11,0,0,1-.09.86,1,1,0,0,0-.05.57,1.59,1.59,0,0,1-.06.89,8.75,8.75,0,0,0-.31,2.74c0,.67,0,1.35,0,2a10,10,0,0,1-.39,1.72.2.2,0,0,1-.16.18,2.71,2.71,0,0,1-1.06-.11c-.19-.08-.13-.24,0-.29.37-.13.41-.44.43-.74a21.14,21.14,0,0,0-.25-3.89,1.53,1.53,0,0,0-.07-.29c0-.06,0-.15-.12-.17s-.11.08-.16.13a3.46,3.46,0,0,0-.52,1.18c-.26.89-.2,1.83-.52,2.7a1.2,1.2,0,0,0,0,.65c.13.7,0,.91-.76.84-.4,0-.79,0-1.19,0-.08,0-.18,0-.21-.1a.16.16,0,0,1,.15-.21c.8-.15.92-.69.94-1.37,0-.51,0-1,.06-1.54a20,20,0,0,1,.35-2.43,16.67,16.67,0,0,1,.39-1.73c.12-.45.14-.93.28-1.38,0-.14-.08-.22-.18-.29a1.24,1.24,0,0,1-.49-1.47,8.09,8.09,0,0,0,.22-1.29,1.45,1.45,0,0,1,1-1.2c.23-.09.29-.18.21-.39s-.1-.6-.33-.84c-.06-.07-.11-.22,0-.26.29-.12.3-.4.44-.61a1,1,0,0,1,1-.42C169.32,35.75,169.49,36.05,169.47,36.71Z"/><path class="cls-2" d="M44.75,28.91a7.2,7.2,0,0,1,2.41-1.43,1.81,1.81,0,0,1,.93-.15c.07,0,.16,0,.15.13s-.06.11-.13.12a7.64,7.64,0,0,0-2.34.93,2.53,2.53,0,0,0-1.24,1.43,3.69,3.69,0,0,1-.82,1.41c.07.09.13,0,.19,0s.16,0,.19.05,0,.15-.11.16c-.81.14-1.13.9-1.7,1.34a8.18,8.18,0,0,0-1.35,1.53,3.42,3.42,0,0,0-.66,2.36,8.85,8.85,0,0,1-.7,4.1,2.93,2.93,0,0,0-.25,1.37c.2,2.23.14,4.46.12,6.69,0,.44-.06.49-.51.47-.24,0-.49,0-.72,0s-.37-.11-.36-.36c.06-.79.07-1.58.17-2.35a15.06,15.06,0,0,0,.11-2.12c0-.78,0-1.55.06-2.32,0-1.53.07-3.06,0-4.59a35.81,35.81,0,0,0-.48-4.49.56.56,0,0,1,0-.22,5,5,0,0,0-.13-2.58,16.17,16.17,0,0,0-.2-1.84,15.14,15.14,0,0,0-.87-2.39,2.42,2.42,0,0,1-.25-.87c0-.09,0-.19.09-.24s.15.07.19.13a8.54,8.54,0,0,1,.75,1.66,8.64,8.64,0,0,1,.7,2.39s0,.1,0,.11c.42.18.18.51.18.78a3.08,3.08,0,0,0,.07.68,20.74,20.74,0,0,1,.3,2.83c.1.75.19,1.51.29,2.26,0,.12,0,.28.18.3s.16-.15.23-.22a2.15,2.15,0,0,0,.41-1.92.31.31,0,0,0-.21-.29,1.68,1.68,0,0,1-.3-.15c-.12-.09-.31-.2-.21-.35s.24,0,.35.1c.39.24.6.13.6-.33a15.54,15.54,0,0,0,0-1.67A3.36,3.36,0,0,0,39.24,30a1.33,1.33,0,0,0-.66-.66c-.09,0-.18-.12-.14-.24s.19-.1.29-.06a1,1,0,0,1,.49.34l.64.89c.12,0,.11-.11.11-.17a27.63,27.63,0,0,0,.35-3.51c0-.82.67-1.15,1-1.74a.14.14,0,0,1,.14,0c.07,0,0,.1,0,.16l-.06.1a4.1,4.1,0,0,0-.73,2.61c0,.31.08.43.4.31a1.08,1.08,0,0,1,.56-.08c.1,0,.24,0,.25.11s-.15.15-.26.15a2.35,2.35,0,0,0-.7.14.39.39,0,0,0-.33.36,18.44,18.44,0,0,0-.18,2.08c0,.44,0,.9,0,1.35,0,.24.14.28.32.19s.42-.25.62-.37a1.94,1.94,0,0,1,1.14-.37.5.5,0,0,0,.54-.55,1.89,1.89,0,0,1,.64-1.54,3.84,3.84,0,0,0,.85-1.64c.15-.5.46-1,.63-1.45s.45-1.18.63-1.79c0-.13.08-.34.29-.28s.11.24.08.38A28.42,28.42,0,0,1,45,28c0,.08-.09.18-.07.21C45.21,28.52,44.85,28.68,44.75,28.91Zm-2.3,3a.88.88,0,0,0-.51.11c-.3.17-.58.37-.87.54a1.23,1.23,0,0,0-.62,1.54A13.29,13.29,0,0,1,42.45,31.94Z"/><path class="cls-2" d="M173.3,34.48a4.06,4.06,0,0,1,.58-1.24,1.16,1.16,0,0,0,.17-1.06,4.08,4.08,0,0,1-.17-1.3c0-.41,0-.83-.6-.67,0-.09,0-.13,0-.16.17-.24.58-.26.58-.68a2.7,2.7,0,0,0-.34-1.62c-.41-.62-1-1.11-1.36-1.75-.13-.22-.4-.42-.1-.67s.48,0,.65.23.5.63.76,1,.32.27.54,0a9,9,0,0,1,2-2,1,1,0,0,0,.32-.76,4.32,4.32,0,0,1,.75-1.78,1.25,1.25,0,0,0-.26-1.25,5.62,5.62,0,0,1-1.47-1.76,2.34,2.34,0,0,1-.05-1.91,2.67,2.67,0,0,1,.35,1.25c.1.95.45,1.24,1.33,1.05.07.11,0,.15-.08.22s-.54.07-.35.43a.74.74,0,0,0,1,.25l.95-.65c.1-.07.21-.18.32,0s0,.24-.11.31c-.28.22-.56.42-.85.62s-.42.4-.19.69,0,.65,0,1c0,.07,0,.13.05.26a3.62,3.62,0,0,0,.82-.9c.07-.09.14-.18.26-.11a.2.2,0,0,1,.08.27,2.39,2.39,0,0,1-.42.75c-.16.16-.34.25-.22.5s.15.31.34.28a.72.72,0,0,0,.57-.41,2.65,2.65,0,0,1,.14-.45c.21-.33.59-.28.82.11-.2,0-.49-.2-.57.11s.22.05.28.18,0,.07,0,.09c-.66.47-.66.47-.06,1,.21.2.51.33.59.66,0,.11.14.27,0,.34-.54.33-.14.47.12.57s.38.4.43.69c-.21,0-.25-.14-.36-.21-.26-.18-.47-.53-.89-.28a.68.68,0,0,1-.5-.1,3.32,3.32,0,0,0-1.56-.2.89.89,0,0,0-.77.8c0,.32.1.48.45.33l.39-.14c.08,0,.18-.05.24,0s-.19.9-.38.93a2.88,2.88,0,0,0-.65.2c-.24.11-.44.24-.35.56,0,.06,0,.18,0,.2-.62.26-.25.52,0,.75-.15.18-.28.09-.4,0s-.36,0-.37.21-.17.36-.34.49-.4.26-.4.52-.13.63.12.8.35-.22.55-.31c.36-.17.72-.37,1.08-.53a2.16,2.16,0,0,0,1.52-1.84c.29.42.32.43.7.13a3.12,3.12,0,0,1,.47-.34c.16-.08.38-.14.3.19s.11.18.22.19l.83.13c.09,0,.18.06.16.17s-.12.1-.21.1c-.3,0-.6-.05-.89-.05a1.84,1.84,0,0,0-1.51.74,3.39,3.39,0,0,1-1.08.91c-.11.05-.25.12-.28.21s-.35.5.16.53c.07,0,.15.07.22.2-.43,0-.87.07-1.3.07a.58.58,0,0,0-.62.47,20.58,20.58,0,0,0-.88,5.17,3.32,3.32,0,0,0,.19,1.24,3.88,3.88,0,0,1,0,2,22.32,22.32,0,0,0-.28,3.46c0,.58-.08,1.16-.08,1.74a16.05,16.05,0,0,0,.91,5.78c0,.14.17.3,0,.45s-.3.05-.44,0a13.62,13.62,0,0,0-1.9-.39c-.55-.14-.6-.26-.21-.66a.81.81,0,0,0,.25-.66c-.1-1.43,0-2.88-.27-4.31a.63.63,0,0,1,0-.36,4.41,4.41,0,0,0-.1-2.78,1.28,1.28,0,0,0-.35-.59c-.15-.16-.28-.33-.14-.56a.53.53,0,0,1,.57-.31c.44.11.49-.11.53-.46a29,29,0,0,0,.06-4.47,1.12,1.12,0,0,0-.34-.86,6.43,6.43,0,0,1-1.75-2.78,1.51,1.51,0,0,0-.51-.78.33.33,0,0,1-.06-.54.38.38,0,0,1,.6,0,2.59,2.59,0,0,1,.66.94,7.48,7.48,0,0,0,1.14,2.07Zm5.48-11.07a7,7,0,0,0-1.31.8c-.13.09-.39.14-.31.35s.3.22.5.21a3.93,3.93,0,0,1,1.45.21c.46.17.65-.22.85-.44s-.19-.31-.31-.46-.34-.35-.52-.52A.38.38,0,0,0,178.78,23.41Zm-4.14,4.07c.14.12,0,.63.42.41a4.32,4.32,0,0,0,.86-.61c.12-.1.26-.28,0-.32s-.37-.21-.2-.46a.21.21,0,0,0,0-.24.14.14,0,0,0-.19-.05A3.78,3.78,0,0,0,174.64,27.48Z"/><path class="cls-2" d="M39.52,6.8c1.19,0,.64.81.57,1.14-.15.62.19.83.57,1.07s.51.26.62.54.42.27.63.07.4-.38.7-.13c.12.1.27,0,.38-.08.37-.31.62-.23.91.19a2.72,2.72,0,0,1,.45.94.67.67,0,0,0,.48.48,1.27,1.27,0,0,1,1,1.12.93.93,0,0,0,.15.51c.34.33.09.49-.17.66.44.14.49.5.51.85s-.28.62-.53.78-.77.5-1.25.19a.21.21,0,0,0-.3.1c-.07.13,0,.27.06.32.38.2.45.66.79.88.1.07.33.13.16.36s-.21.33-.46.29a1.4,1.4,0,0,1-1-.88c-.13-.29-.07-.65-.53-.26-.11.09-.39,0-.58,0s-.42,0-.49.28c.61-.14.9.14.71.74s.32.87.64,1.18a11.58,11.58,0,0,0,1.24,1.18c.38.27.29.82.16,1.23s-.57.3-.88.37c-.15,0-.35,0-.5.08s-.6.36-.1.68a4.3,4.3,0,0,1,.68.67c.11.12.22.26.13.43s-.26.16-.42.11-.37-.06-.5.27a2.51,2.51,0,0,1-.86.92c-.2.16-.28-.09-.38-.24s-.15-.39-.42-.35c-.12,0-.17.06-.16.19s.08.48.37.55a2.82,2.82,0,0,1,.71.32c.24.15.45.31.33.61s0,.68-.54.51c-.11,0-.1.05-.11.14a.67.67,0,0,1-1,.44,1.18,1.18,0,0,0-1.1,0,1.09,1.09,0,0,1-1.33-.36,1.63,1.63,0,0,0-1.52-.52c-.08,0-.2.05-.21.1-.15.53-.43.33-.7.13s-.44-.29-.54.13c-.06.25-.2.19-.35.08s-.14-.24-.29-.12a.24.24,0,0,0,0,.33c.33.47.19.79-.29,1-.18.1-.25.22,0,.39s.24.76.41,1.12a.3.3,0,0,1-.21.34c-.34,0-.61.33-.91.35-.62,0-.57.38-.49.79l.09.53c0,.35.07.3.48.47a.59.59,0,0,1,.21.67c-.06.17-.3.45-.43.3-.38-.47-1.29-.27-1.3-1.18a.89.89,0,0,0-.36.65,13.27,13.27,0,0,1-1.67,3.65c0,.07-.07.16-.13.2-1.08.88-1.06,2-.77,3.21a15.64,15.64,0,0,1,.38,3.28c0,.37-.05,3.33-.05,3.73a8.85,8.85,0,0,1-.3,2.85c-.09.28-.22.52-.55.56s-.72,0-.71-.54-.06-.93,0-1.38a15.21,15.21,0,0,0,0-1.77c0-.34,0-2.2,0-2.63a34.6,34.6,0,0,0-.39-4.66,1.81,1.81,0,0,0-.71-1.09,19.78,19.78,0,0,1-3.23-3.61,5.7,5.7,0,0,0-1.91-1.63,2.62,2.62,0,0,1-1.15-1.24c-.21-.48-.51-1-1.24-.83-.12,0-.21,0-.24-.1-.16-.54-.46-.42-.82-.21s-.65.37-.67-.25c0-.18-.21-.17-.29-.27-.21-.26-.79.25-.83-.41a3.59,3.59,0,0,0-.79-.07c-.34,0-.71.08-.69-.47,0-.11-.19-.26-.25-.16-.28.46-.81.22-1.17.46s-.56,0-.82-.13c-.05,0-.63-.48.09-.57a2.24,2.24,0,0,0,.41-1.13c-.21-.27-.42,0-.63,0a6.21,6.21,0,0,1-2.88.53c-.15,0-.37-.1-.36-.28s-.18-.27-.34-.39-.61-.34-.12-.66c.07,0,.12-.08.09-.18-.17-.69,0-1.27.62-1.26,1,0,1.07-.66,1.37-1.24a.47.47,0,0,1,0-.1.2.2,0,0,0,0-.08,1,1,0,0,0-.84.56c-.16.23-.37.47-.69.23-.1-.08-.21-.26-.18-.35.06-.26.36-.17.57-.24a1.22,1.22,0,0,1-.26-1.69,3.23,3.23,0,0,1,1.44-1.39c.17-.06.31-.31.11-.32-.46,0-.68-.48-1.13-.5-.23,0-.33,0-.33.24a.48.48,0,0,1-.37.49.3.3,0,0,1-.3-.17.5.5,0,0,1,.08-.61,2.93,2.93,0,0,0,.6-1.36c.12-.54.35-.93,1-1-.65-.5-.65-.52-.14-1,0,0,0-.07-.07-.08-.19-.09-.43.28-.58,0a.54.54,0,0,1,.23-.68,1,1,0,0,0,.31-.42,4,4,0,0,1,1.15-1.1,5.35,5.35,0,0,1,1.73-.65,1.87,1.87,0,0,1,1.69.18c.19.12.25,0,.34-.1a13.66,13.66,0,0,1,1.59-1.35c.15-.09.26-.31.16-.42-.93-1-.17-1.76.19-2.63.14-.35.45-.61.4-1.13-.07-.69.69-1.14.92-1.79.58.08.63-.49.93-.75a.89.89,0,0,1,.72-.25c.89.18,1.78-.31,2.67.07.1,0,.26-.06.39-.11s.36,0,.37.18c0,.79.52.32.78.25s.85-.14.5-.73c-.08-.13-.1-.33.06-.36.78-.17.66-.88.74-1.36.12-.79.67-1,1.26-1.13s1.15-.34,1.61.33c.18.27.5.67,1,.27a.48.48,0,0,1,.56.06.31.31,0,0,1,0,.44c-.15.19,0,.26.12.36s.48.31.48.58c0,.61.49.81.83,1.13.1.11.18,0,.25,0A2.42,2.42,0,0,1,35,3.94c.59.22,1.16.47,1.15,1.24,0,.13,0,.28.17.28a8.77,8.77,0,0,0,2.4.15c.29-.08.64-.29.87.07S40.06,6.4,39.52,6.8ZM28.05,36.06a2.48,2.48,0,0,0-.51-2.62A28.67,28.67,0,0,1,24.45,29c-.18-.35-.34-.77-.89-.54a.19.19,0,0,1-.24-.12c-.09-.17-.11-.45-.4-.29s-.15.38-.07.62c.27.85,1,1.46,1.22,2.35C24.69,33.17,26.37,34.57,28.05,36.06ZM27.46,25.3c-.1-.32-.47-.69-.06-.84s.25-.29.26-.47A2.37,2.37,0,0,0,27,22.45c-.13-.18-.42-.23-.47.05a11,11,0,0,1-.77,2.31.36.36,0,0,0,.21.45c.14.08.31.19.43,0C26.73,24.82,27.08,24.84,27.46,25.3Zm.47,6.92c0-.55.13-1.16-.17-1.26-.56-.18-.33-.46-.27-.74s.05-.36-.11-.48a3.17,3.17,0,0,0-2.18-1A16,16,0,0,0,27.93,32.22Zm4.19-7.48c-.38.18-.19.5-.29.72a1.45,1.45,0,0,0-1.23.84.78.78,0,0,0,.46.89c.16.08.37.24.47,0,.22-.49.74-.76.9-1.3s-.16-.63-.31-.92C32.09,24.94,32.12,24.85,32.12,24.74Zm-8.65,6.67a13.78,13.78,0,0,0-1.35-2.49C21.28,30.25,21.52,30.7,23.47,31.41Zm8-1.36c-.09,0-.24.07-.29.15a6.59,6.59,0,0,0-.72,1.63c-.06.26.18.36.37.33a.74.74,0,0,0,.6-.42c.22-.4.16-.88.44-1.27C32,30.25,31.67,30.13,31.44,30.05ZM18.36,26.23c.29.3.31.55-.09.72s-.42-.08-.48-.35a.25.25,0,0,0-.32-.19.11.11,0,0,0-.07.18c.37.37.51.91,1,1.22.11.08.29.21.36,0,.17-.35.6-.62.52-1S18.76,26.31,18.36,26.23Zm11.33,6.4A4.54,4.54,0,0,0,29.47,35a13.14,13.14,0,0,0,1-1.24c.09-.16.16-.46,0-.46C30,33.3,30,32.81,29.69,32.63Z"/><rect class="cls-3" x="52.89" y="55.84" width="99.89" height="35.63"/></g><g id="Capa_2" data-name="Capa 2"><polygon class="cls-2" points="0 47.36 27.77 47.36 30.55 49.06 35.64 48.21 45.22 48.21 52.89 50.84 55.42 55.94 56.87 60.92 59.32 62.64 59.95 67.96 61.99 70.16 63.66 73.4 62.61 77.67 62.3 83.31 62.61 86.76 65.12 89.71 85.02 90.2 90.52 89.55 96.64 89.4 102.51 89.4 139.72 89.9 142.88 84.93 144.12 81.59 143.19 76.27 145.06 72.97 148.94 66.55 148.51 58.63 149.22 53.26 152.59 51.46 158.56 51.06 160.05 51.27 169.18 50.14 175.05 50.14 204.33 50.6 204.33 103.16 0 103.16 0 47.36"/><text class="cls-4" transform="translate(99.06 93.86)">25 MT</text><line class="cls-5" x1="62.67" y1="93.33" x2="97.86" y2="93.33"/><line class="cls-5" x1="108.2" y1="93.34" x2="143.38" y2="93.34"/><line class="cls-5" x1="62.67" y1="91.72" x2="62.67" y2="94.96"/><line class="cls-5" x1="143.79" y1="91.72" x2="143.79" y2="94.96"/></g></svg>