<svg xmlns="http://www.w3.org/2000/svg" viewBox="0 0 100 100"><defs><style>.cls-1{fill:#708088;}.cls-2{fill:#ccc;}.cls-3{fill:#2bbba0;}.cls-4{font-size:2.27px;font-family:WorkSans-ExtraLight, Work Sans;font-weight:200;}.cls-5{letter-spacing:-0.03em;}.cls-6{letter-spacing:0em;}.cls-7{letter-spacing:-0.03em;}.cls-8{letter-spacing:-0.02em;}.cls-9{letter-spacing:-0.01em;}.cls-10{letter-spacing:-0.03em;}.cls-11{letter-spacing:-0.03em;}.cls-12{letter-spacing:-0.05em;}.cls-13{letter-spacing:-0.01em;}.cls-14{letter-spacing:-0.01em;}.cls-15{letter-spacing:-0.08em;}.cls-16{letter-spacing:-0.02em;}.cls-17{letter-spacing:-0.02em;}.cls-18{letter-spacing:-0.01em;}.cls-19{font-size:2.05px;fill:#fff;font-family:WorkSans-Medium, Work Sans;font-weight:500;}.cls-20{fill:none;stroke:#fff;stroke-miterlimit:10;stroke-width:0.25px;}</style></defs><title>riñihuazo</title><g id="Capa_1" data-name="Capa 1"><path class="cls-1" d="M88.75,46.43a13.17,13.17,0,0,1-.15,2.28,1.67,1.67,0,0,0,.06.59c.14.66.07,1.33.15,2a.41.41,0,0,0,.34.42c.11,0,.25.05.23.2s-.17.14-.28.13L88.39,52a.19.19,0,0,1-.18-.17c-.14-.65-.22-1.31-.34-2s-.25-1.31-.38-2c0,0,0-.06-.08-.15-.09.32-.19.59-.25.86a15.33,15.33,0,0,0-.28,2,8.28,8.28,0,0,0-.06.86c0,.55-.33.83-.82.7-.06,0-.14,0-.16-.11a.14.14,0,0,1,.09-.17c.16-.07.15-.19.15-.34a9.88,9.88,0,0,1,.06-2.43,3.49,3.49,0,0,0,0-1,4,4,0,0,1,0-1,1.63,1.63,0,0,0,0-.44.71.71,0,0,1,0-.41c.23-.48.07-1,.17-1.55a1.35,1.35,0,0,1-.52.47.5.5,0,0,1-.68-.15S85,45,85,45c-.23-.23-.27-.59-.68-.72s-.37-.42-.22-.78c0-.12,0-.31.18-.38a.37.37,0,0,1,.47.27,1.57,1.57,0,0,0,.47.85c.12.08.17.09.25,0a2.71,2.71,0,0,0,.29-.43,1.59,1.59,0,0,1,1-.92c.2-.08.22-.17.13-.35a4.52,4.52,0,0,1-.23-.71c-.08-.28.15-.48.37-.65a.65.65,0,0,1,.72,0,.48.48,0,0,1,.27.52,1.73,1.73,0,0,1-.08.71.32.32,0,0,0,.16.38.65.65,0,0,0,.16.09,1.32,1.32,0,0,1,1,1.32c0,.59.19,1.17.17,1.78a3.62,3.62,0,0,0,.09.85,1.25,1.25,0,0,1-.12,1c-.06.08-.15.17-.26.15s-.09-.17-.1-.26c0-.28,0-.57,0-.85A.4.4,0,0,0,88.75,46.43Z"/><path class="cls-1" d="M93.68,41.06a.62.62,0,0,1-.11.48.11.11,0,0,0,0,.15c.13.13.19.3.36.41a1.17,1.17,0,0,1,.51,1.51A3.12,3.12,0,0,0,94.3,45a1.31,1.31,0,0,1-.07.62.7.7,0,0,0,0,.41,1.17,1.17,0,0,1,0,.64,5.91,5.91,0,0,0-.22,2c0,.48,0,1,0,1.45a6.7,6.7,0,0,1-.27,1.24.13.13,0,0,1-.12.12,1.77,1.77,0,0,1-.76-.08c-.13-.05-.09-.16,0-.2.27-.1.3-.31.31-.53a15.33,15.33,0,0,0-.18-2.79,1.17,1.17,0,0,0-.05-.2c0-.05,0-.12-.08-.13s-.08.06-.12.1a2.54,2.54,0,0,0-.37.84c-.19.64-.15,1.31-.37,1.94a.81.81,0,0,0,0,.46c.1.5,0,.65-.54.6-.29,0-.57,0-.85,0-.07,0-.14,0-.16-.07a.12.12,0,0,1,.11-.15c.57-.11.66-.49.67-1s0-.74,0-1.11a17.12,17.12,0,0,1,.24-1.73c.07-.42.18-.83.29-1.25s.1-.66.2-1c0-.1-.06-.16-.13-.21a.87.87,0,0,1-.35-1,5.81,5.81,0,0,0,.15-.93,1,1,0,0,1,.72-.85c.17-.07.21-.14.15-.29s-.07-.43-.23-.6-.08-.16,0-.19.22-.28.32-.43a.73.73,0,0,1,.74-.3C93.58,40.38,93.7,40.59,93.68,41.06Z"/><path class="cls-2" d="M13.16,35.48a4.92,4.92,0,0,1,1.73-1,1.23,1.23,0,0,1,.66-.1c.06,0,.12,0,.11.09a.08.08,0,0,1-.09.08,5.43,5.43,0,0,0-1.68.67,1.8,1.8,0,0,0-.88,1,2.63,2.63,0,0,1-.6,1c.06.06.1,0,.14,0s.12,0,.14,0,0,.11-.08.11c-.58.1-.81.65-1.22,1a6,6,0,0,0-1,1.1A2.5,2.5,0,0,0,10,41.15a6.31,6.31,0,0,1-.5,2.94,2.06,2.06,0,0,0-.18,1c.14,1.59.1,3.19.09,4.79,0,.31,0,.35-.37.33l-.52,0c-.19,0-.26-.07-.25-.26,0-.56,0-1.12.12-1.68a11.06,11.06,0,0,0,.08-1.52c0-.55,0-1.1,0-1.66,0-1.09,0-2.19,0-3.28a24.75,24.75,0,0,0-.34-3.22s0-.11,0-.16A3.63,3.63,0,0,0,8,36.54c-.07-.44,0-.88-.15-1.32a11.65,11.65,0,0,0-.62-1.71,1.7,1.7,0,0,1-.18-.62c0-.07,0-.14.06-.17s.11.05.14.09A6.69,6.69,0,0,1,7.8,34a6.34,6.34,0,0,1,.5,1.71s0,.07,0,.08c.3.13.13.36.13.56a2,2,0,0,0,.05.49,17.09,17.09,0,0,1,.22,2c.06.54.13,1.08.2,1.62,0,.09,0,.2.13.21s.11-.1.17-.15a1.59,1.59,0,0,0,.29-1.38.23.23,0,0,0-.15-.2l-.22-.11c-.08-.06-.22-.15-.14-.25s.17,0,.24.07c.28.17.43.09.44-.23s0-.8,0-1.2a2.43,2.43,0,0,0-.45-1,.94.94,0,0,0-.47-.47c-.07,0-.13-.09-.1-.17s.14-.07.21,0a.65.65,0,0,1,.35.24c.15.22.31.43.46.64.09,0,.08-.08.08-.13A19.4,19.4,0,0,0,10,33.82c0-.58.48-.83.7-1.25a.13.13,0,0,1,.09,0c.05,0,0,.08,0,.12l-.05.07a3,3,0,0,0-.52,1.87c0,.21.06.31.29.22a.78.78,0,0,1,.4-.06c.07,0,.17,0,.18.08s-.11.11-.19.1a1.8,1.8,0,0,0-.5.11.27.27,0,0,0-.23.26A12.34,12.34,0,0,0,10,36.81c0,.32,0,.65,0,1s.09.2.23.14.29-.18.44-.27a1.45,1.45,0,0,1,.81-.26A.37.37,0,0,0,12,37a1.34,1.34,0,0,1,.46-1.1A2.8,2.8,0,0,0,13,34.72c.1-.36.32-.68.45-1s.32-.85.45-1.28c0-.1.06-.25.21-.21s.08.18,0,.28a19.93,19.93,0,0,1-.84,2.35s-.07.13-.05.15C13.49,35.2,13.23,35.31,13.16,35.48Zm-1.65,2.17a.54.54,0,0,0-.36.08l-.63.38a.88.88,0,0,0-.44,1.1A9.52,9.52,0,0,1,11.51,37.65Z"/><path class="cls-2" d="M96.43,39.47a2.92,2.92,0,0,1,.41-.89.79.79,0,0,0,.12-.76,2.7,2.7,0,0,1-.11-.93c0-.29,0-.6-.43-.48a.31.31,0,0,1,0-.12c.13-.17.42-.18.42-.48a2,2,0,0,0-.24-1.17c-.29-.44-.7-.79-1-1.25-.1-.15-.29-.3-.08-.48s.35,0,.47.17l.54.68c.14.17.23.19.39,0a6.46,6.46,0,0,1,1.4-1.46.65.65,0,0,0,.22-.54,3.16,3.16,0,0,1,.54-1.28.87.87,0,0,0-.19-.89,4.09,4.09,0,0,1-1.05-1.26,1.73,1.73,0,0,1,0-1.37,2.08,2.08,0,0,1,.25.89c.07.69.32.89,1,.76,0,.08,0,.1-.06.15s-.39.05-.25.31a.53.53,0,0,0,.72.18l.68-.46c.07-.05.15-.14.23,0s0,.17-.08.22-.4.3-.61.44-.3.29-.14.5,0,.46,0,.69a1,1,0,0,0,0,.18,2.72,2.72,0,0,0,.59-.64c0-.07.09-.13.18-.08a.15.15,0,0,1,.06.19,1.88,1.88,0,0,1-.3.54c-.12.11-.24.18-.16.36s.1.22.24.2a.52.52,0,0,0,.41-.3c0-.1,0-.23.1-.32s.43-.2.59.08c-.14,0-.35-.14-.41.08s.16,0,.2.13,0,.05,0,.06c-.47.34-.47.34,0,.75.16.14.37.24.42.47,0,.08.1.19,0,.24-.39.24-.1.34.09.41s.27.29.31.5c-.16,0-.18-.1-.26-.16s-.34-.37-.64-.2c-.09,0-.25,0-.36-.06a2.24,2.24,0,0,0-1.11-.15.64.64,0,0,0-.56.58c0,.23.08.34.32.23l.28-.1c.06,0,.13,0,.18,0s-.14.65-.28.67a1.53,1.53,0,0,0-.46.14c-.18.08-.31.17-.25.4,0,0,0,.13,0,.14-.45.19-.19.38,0,.54-.11.13-.21.06-.29,0s-.26,0-.26.15-.13.26-.25.35-.29.19-.29.38-.09.45.09.56.25-.15.39-.22.51-.26.78-.38A1.55,1.55,0,0,0,100,35.05c.2.3.22.3.5.09a2.52,2.52,0,0,1,.33-.24c.11-.06.27-.11.22.13s.08.13.15.14l.6.09c.06,0,.13.05.11.12s-.08.07-.15.07-.42,0-.64,0A1.34,1.34,0,0,0,100,36a2.31,2.31,0,0,1-.77.65c-.07,0-.18.09-.2.15s-.25.36.11.38c.06,0,.11,0,.16.14-.31,0-.62,0-.93,0a.42.42,0,0,0-.44.34,14.06,14.06,0,0,0-.63,3.7,2.43,2.43,0,0,0,.13.89,2.68,2.68,0,0,1,0,1.46,15.75,15.75,0,0,0-.19,2.48c0,.41-.06.83-.06,1.24a11.47,11.47,0,0,0,.65,4.14c0,.1.12.22,0,.32s-.21,0-.31,0a9.22,9.22,0,0,0-1.37-.27c-.39-.1-.43-.19-.15-.48a.55.55,0,0,0,.18-.47c-.07-1,0-2.06-.19-3.08a.46.46,0,0,1,0-.26,3.11,3.11,0,0,0-.07-2,.88.88,0,0,0-.25-.42c-.1-.11-.2-.23-.09-.4a.37.37,0,0,1,.4-.22c.31.08.35-.08.38-.33a20.14,20.14,0,0,0,0-3.2.85.85,0,0,0-.25-.62,4.59,4.59,0,0,1-1.25-2,1.13,1.13,0,0,0-.37-.56.24.24,0,0,1,0-.39.27.27,0,0,1,.43,0,1.85,1.85,0,0,1,.47.67,5.1,5.1,0,0,0,.82,1.48A1.1,1.1,0,0,0,96.43,39.47Zm3.92-7.94a5.56,5.56,0,0,0-.94.58c-.09.06-.27.1-.22.25s.22.16.36.15a3,3,0,0,1,1,.15c.33.12.47-.16.61-.32s-.14-.22-.22-.32-.25-.25-.37-.38A.32.32,0,0,0,100.35,31.53Zm-3,2.92c.1.09,0,.45.3.29a3.14,3.14,0,0,0,.62-.43c.08-.07.18-.2,0-.23s-.27-.15-.15-.33a.15.15,0,0,0,0-.18.11.11,0,0,0-.13,0A2.65,2.65,0,0,0,97.39,34.45Z"/><path class="cls-2" d="M9.42,19.64c.85,0,.46.58.4.81-.1.45.14.6.41.77s.36.19.44.39.3.19.46.05.28-.27.5-.1.19,0,.27,0c.27-.22.44-.16.65.13a1.93,1.93,0,0,1,.32.68.48.48,0,0,0,.35.34.92.92,0,0,1,.68.8.62.62,0,0,0,.11.37c.24.24.06.35-.12.47.31.1.34.36.36.61s-.2.44-.38.56-.55.36-.89.13a.16.16,0,0,0-.22.08.17.17,0,0,0,0,.23c.28.14.33.47.57.63.07.05.23.09.12.25s-.15.24-.33.21a1,1,0,0,1-.74-.63c-.09-.2-.06-.46-.38-.19-.08.07-.28,0-.42,0s-.3,0-.35.2c.44-.1.64.1.51.53s.23.62.46.84a8.87,8.87,0,0,0,.88.85c.28.19.21.59.12.88s-.41.22-.63.27-.25,0-.36.05-.43.26-.07.49a2.73,2.73,0,0,1,.48.48c.08.09.16.18.1.31s-.18.12-.3.08-.26,0-.36.19a1.91,1.91,0,0,1-.61.66c-.15.11-.2-.06-.27-.17s-.11-.28-.31-.25-.12,0-.11.13.06.35.26.4a1.64,1.64,0,0,1,.51.22c.17.11.32.23.24.44s0,.49-.39.37c-.08,0-.07,0-.08.1a.47.47,0,0,1-.71.31.91.91,0,0,0-.79,0,.77.77,0,0,1-1-.25,1.17,1.17,0,0,0-1.09-.37s-.13,0-.14.07c-.11.38-.32.24-.5.09s-.32-.21-.39.09-.15.14-.26.06-.1-.17-.2-.08a.16.16,0,0,0,0,.23c.24.34.13.57-.21.75-.13.07-.18.16,0,.28s.17.54.29.8a.22.22,0,0,1-.15.24c-.24,0-.43.24-.65.25-.45,0-.41.27-.35.57l.06.38c0,.25,0,.21.34.34a.39.39,0,0,1,.15.47c0,.13-.21.33-.3.22-.27-.33-.93-.2-.93-.85a.65.65,0,0,0-.26.47A9.69,9.69,0,0,1,3.09,39.9S3,40,3,40a2,2,0,0,0-.55,2.3,10.93,10.93,0,0,1,.27,2.35c0,.26,0,2.38,0,2.67a6.39,6.39,0,0,1-.22,2,.48.48,0,0,1-.4.4c-.3,0-.51,0-.5-.39s0-.66,0-1a10.73,10.73,0,0,0,0-1.26c0-.24,0-1.58,0-1.89a24.65,24.65,0,0,0-.27-3.33,1.33,1.33,0,0,0-.51-.78,14.53,14.53,0,0,1-2.31-2.59A4.12,4.12,0,0,0-2.93,37.4a1.84,1.84,0,0,1-.83-.89c-.15-.34-.36-.74-.89-.59a.12.12,0,0,1-.17-.07c-.11-.39-.33-.31-.59-.15s-.46.26-.47-.18c0-.13-.16-.13-.21-.19s-.57.18-.59-.3A2.22,2.22,0,0,0-7.25,35c-.25,0-.51.06-.5-.34,0-.08-.14-.18-.18-.11-.2.33-.58.16-.84.33s-.4,0-.58-.1-.45-.34.06-.4a1.66,1.66,0,0,0,.3-.81c-.15-.19-.3,0-.46,0a4.42,4.42,0,0,1-2.06.38c-.11,0-.26-.07-.26-.2s-.12-.19-.24-.28-.43-.24-.09-.47c.06,0,.09-.06.07-.13-.12-.5,0-.91.45-.9.68,0,.76-.47,1-.89a.25.25,0,0,0,0-.07.39.39,0,0,0,0-.06.75.75,0,0,0-.6.4c-.12.16-.27.34-.49.17s-.16-.19-.14-.26.26-.11.41-.16a.88.88,0,0,1-.18-1.22,2.25,2.25,0,0,1,1-1c.12-.05.22-.22.08-.23-.33,0-.49-.35-.81-.36s-.24,0-.24.17a.35.35,0,0,1-.26.35.21.21,0,0,1-.22-.12.35.35,0,0,1,.06-.43,2.11,2.11,0,0,0,.43-1c.09-.38.25-.66.72-.7-.47-.36-.47-.37-.11-.72A.15.15,0,0,0-11,25.8c-.13-.07-.31.2-.41,0a.38.38,0,0,1,.17-.49A.73.73,0,0,0-11,25a2.8,2.8,0,0,1,.82-.79,4.08,4.08,0,0,1,1.24-.46,1.36,1.36,0,0,1,1.21.13c.14.08.18,0,.25-.07a9.48,9.48,0,0,1,1.13-1c.11-.06.19-.22.12-.3-.67-.69-.13-1.26.13-1.89.1-.25.32-.43.29-.8s.49-.82.66-1.29c.41.06.45-.35.66-.54a.64.64,0,0,1,.52-.17c.63.13,1.28-.23,1.91.05.07,0,.19-.05.28-.08s.26,0,.26.13c0,.57.38.22.56.17s.62-.09.36-.52c-.05-.09-.07-.23,0-.26.55-.12.47-.62.52-1,.09-.56.48-.72.91-.81s.82-.24,1.15.24c.13.19.36.48.7.19a.34.34,0,0,1,.4,0,.23.23,0,0,1,0,.32c-.11.14,0,.19.08.26s.35.22.34.41c0,.44.35.58.6.82.07.07.13,0,.18,0a1.75,1.75,0,0,1,1.85-.21c.42.16.83.33.82.89,0,.09,0,.2.12.2a6.18,6.18,0,0,0,1.72.11c.21-.06.46-.21.62.05S9.81,19.35,9.42,19.64ZM1.2,40.6a1.81,1.81,0,0,0-.36-1.88,20.76,20.76,0,0,1-2.22-3.2c-.13-.25-.24-.55-.63-.39-.08,0-.14,0-.18-.09s-.08-.32-.29-.2-.1.27,0,.44c.2.61.7,1,.88,1.68C-1.21,38.53,0,39.53,1.2,40.6ZM.78,32.89c-.07-.23-.34-.49-.05-.6s.19-.21.19-.34a1.64,1.64,0,0,0-.49-1.1c-.09-.13-.3-.16-.33,0a7.38,7.38,0,0,1-.56,1.66.26.26,0,0,0,.16.32c.1.06.22.14.31,0C.26,32.55.5,32.56.78,32.89Zm.34,5c0-.4.09-.83-.13-.9-.4-.13-.24-.34-.19-.54a.3.3,0,0,0-.08-.34,2.25,2.25,0,0,0-1.56-.7A11.25,11.25,0,0,0,1.12,37.85Zm3-5.36c-.27.13-.13.35-.2.51a1,1,0,0,0-.88.61.55.55,0,0,0,.32.63c.12.06.27.17.34,0,.16-.35.53-.55.65-.94s-.12-.45-.22-.66A.48.48,0,0,1,4.11,32.49Zm-6.19,4.77a10.49,10.49,0,0,0-1-1.78C-3.65,36.44-3.48,36.76-2.08,37.26Zm5.7-1c-.06,0-.17.05-.2.11a4.6,4.6,0,0,0-.51,1.16c-.05.19.12.27.26.24a.53.53,0,0,0,.43-.3c.16-.29.12-.63.32-.91S3.79,36.35,3.62,36.29Zm-9.36-2.74c.21.22.22.4-.07.52s-.3-.06-.34-.25a.17.17,0,0,0-.23-.13.07.07,0,0,0,0,.12c.26.27.37.66.69.88.08.05.2.15.26,0s.43-.45.37-.75S-5.46,33.62-5.74,33.55Zm8.11,4.59a3.19,3.19,0,0,0-.15,1.67A8,8,0,0,0,3,38.93c.07-.12.12-.33,0-.33C2.62,38.62,2.6,38.27,2.37,38.14Z"/><rect class="cls-3" x="14.71" y="54.76" width="71.55" height="25.52"/></g><g id="Capa_2" data-name="Capa 2"><text class="cls-4" transform="translate(24.61 31.74)">E<tspan class="cls-5" x="1.34" y="0">l</tspan><tspan x="1.84" y="0"> </tspan><tspan class="cls-5" x="2.51" y="0">r</tspan><tspan class="cls-6" x="3.25" y="0">ebalse de</tspan><tspan class="cls-7" x="13.14" y="0">l</tspan><tspan class="cls-8" x="13.64" y="0"> </tspan><tspan x="14.25" y="0">taco ar</tspan><tspan class="cls-9" x="21.39" y="0">r</tspan><tspan x="22.17" y="0">asarí</tspan><tspan class="cls-10" x="26.92" y="0">a</tspan><tspan x="28.05" y="0" xml:space="preserve"> con l</tspan><tspan class="cls-11" x="33.76" y="0">a</tspan><tspan x="34.9" y="0" xml:space="preserve"> ciudad de </tspan><tspan class="cls-12" x="0" y="2.72">V</tspan><tspan x="1.22" y="2.72">a</tspan><tspan class="cls-13" x="2.41" y="2.72">l</tspan><tspan x="2.96" y="2.72">divi</tspan><tspan class="cls-11" x="6.32" y="2.72">a</tspan><tspan x="7.45" y="2.72" xml:space="preserve"> hast</tspan><tspan class="cls-11" x="12.51" y="2.72">a</tspan><tspan x="13.65" y="2.72" xml:space="preserve"> b</tspan><tspan class="cls-14" x="15.65" y="2.72">o</tspan><tspan x="16.93" y="2.72">tarl</tspan><tspan class="cls-11" x="20.28" y="2.72">a</tspan><tspan x="21.41" y="2.72" xml:space="preserve"> en e</tspan><tspan class="cls-5" x="26.51" y="2.72">l</tspan><tspan x="27.01" y="2.72" xml:space="preserve"> ma</tspan><tspan class="cls-15" x="31.05" y="2.72">r</tspan><tspan x="31.67" y="2.72">, po</tspan><tspan class="cls-16" x="35.39" y="2.72">r</tspan><tspan x="36.14" y="2.72"> </tspan><tspan class="cls-13" x="36.8" y="2.72">l</tspan><tspan x="37.35" y="2.72">o que se </tspan><tspan x="0" y="5.44">necesitab</tspan><tspan class="cls-11" x="9.86" y="5.44">a</tspan><tspan x="10.99" y="5.44" xml:space="preserve"> libe</tspan><tspan class="cls-9" x="15.24" y="5.44">r</tspan><tspan x="16.02" y="5.44">a</tspan><tspan class="cls-16" x="17.21" y="5.44">r</tspan><tspan x="17.96" y="5.44" xml:space="preserve"> suficie</tspan><tspan class="cls-17" x="25.13" y="5.44">n</tspan><tspan x="26.4" y="5.44">te agu</tspan><tspan class="cls-11" x="32.71" y="5.44">a</tspan><tspan x="33.84" y="5.44" xml:space="preserve"> diariame</tspan><tspan class="cls-17" x="43.36" y="5.44">n</tspan><tspan x="44.63" y="5.44">te pa</tspan><tspan class="cls-9" x="49.84" y="5.44">r</tspan><tspan class="cls-11" x="50.62" y="5.44">a</tspan><tspan x="51.75" y="5.44"> </tspan><tspan class="cls-18" x="0" y="8.16">v</tspan><tspan x="1.07" y="8.16">acia</tspan><tspan class="cls-16" x="5.12" y="8.16">r</tspan><tspan x="5.86" y="8.16" xml:space="preserve"> e</tspan><tspan class="cls-7" x="7.75" y="8.16">l</tspan><tspan class="cls-8" x="8.25" y="8.16"> </tspan><tspan x="8.87" y="8.16">taco sin las consecuencias a</tspan><tspan class="cls-17" x="38.09" y="8.16">n</tspan><tspan x="39.37" y="8.16">terio</tspan><tspan class="cls-5" x="43.94" y="8.16">r</tspan><tspan x="44.68" y="8.16">es.</tspan></text><polygon class="cls-2" points="-23.18 48.69 -3.29 48.69 -1.3 49.91 2.35 49.3 9.21 49.3 14.71 51.19 16.51 54.84 17.56 58.4 19.31 59.63 19.76 63.45 21.22 65.02 22.42 67.34 21.67 70.41 21.45 74.44 21.67 76.91 23.46 79.03 37.72 79.38 41.66 78.91 46.05 78.81 50.25 78.81 76.9 79.16 79.16 75.6 80.05 73.21 79.38 69.4 80.72 67.03 83.51 62.43 83.19 56.77 83.7 52.91 86.12 51.63 90.39 51.34 91.47 51.49 98 50.68 102.21 50.68 123.18 51.01 123.18 100 -23.18 100 -23.18 48.69"/><text class="cls-19" transform="translate(48.08 82)">25 m</text><line class="cls-20" x1="21.71" y1="81.62" x2="46.91" y2="81.62"/><line class="cls-20" x1="54.32" y1="81.63" x2="79.52" y2="81.63"/><line class="cls-20" x1="21.71" y1="80.46" x2="21.71" y2="82.79"/><line class="cls-20" x1="79.81" y1="80.46" x2="79.81" y2="82.79"/></g></svg>