<svg xmlns="http://www.w3.org/2000/svg" viewBox="0 0 200 100"><defs><style>.cls-1{fill:#ccc;}.cls-2{fill:none;stroke:#708088;stroke-miterlimit:10;stroke-width:0.5px;}.cls-3{fill:#9b9b9b;}.cls-4{fill:#708088;}</style></defs><title>6</title><g id="Capa_1" data-name="Capa 1"><path class="cls-1" d="M45.32,5.16a7.19,7.19,0,0,1,2.55-1.51,1.73,1.73,0,0,1,1-.16c.08,0,.17,0,.17.13a.15.15,0,0,1-.14.13,7.63,7.63,0,0,0-2.48,1,2.64,2.64,0,0,0-1.31,1.51,3.92,3.92,0,0,1-.88,1.5c.08.09.14,0,.2,0s.18,0,.21,0A.13.13,0,0,1,44.5,8c-.86.14-1.19,1-1.79,1.42A8.47,8.47,0,0,0,41.27,11a3.64,3.64,0,0,0-.7,2.5,9.4,9.4,0,0,1-.74,4.35,3,3,0,0,0-.26,1.45c.21,2.35.15,4.72.13,7.08,0,.46-.07.52-.55.49-.25,0-.51,0-.76,0S38,26.77,38,26.5c0-.83.06-1.67.17-2.49a15.29,15.29,0,0,0,.12-2.24c0-.82,0-1.64.06-2.45,0-1.62.08-3.25,0-4.86a38.23,38.23,0,0,0-.5-4.76.47.47,0,0,1,0-.23,5.27,5.27,0,0,0-.13-2.73,18.65,18.65,0,0,0-.22-2,17.33,17.33,0,0,0-.91-2.53,2.28,2.28,0,0,1-.27-.92c0-.09,0-.2.09-.24s.16.06.21.13A10.55,10.55,0,0,1,37.39,3a9,9,0,0,1,.74,2.54s0,.1,0,.11c.45.19.2.54.2.83a2.89,2.89,0,0,0,.07.72,25.23,25.23,0,0,1,.32,3c.1.79.19,1.59.3,2.39,0,.12,0,.3.19.31s.17-.15.25-.23a2.29,2.29,0,0,0,.43-2,.3.3,0,0,0-.22-.3,2,2,0,0,1-.32-.17c-.13-.09-.33-.21-.22-.37s.25.05.36.11c.42.25.64.14.65-.34s0-1.19,0-1.77a3.63,3.63,0,0,0-.67-1.45,1.38,1.38,0,0,0-.69-.7c-.1,0-.2-.13-.15-.25s.2-.1.31-.06a1,1,0,0,1,.52.36c.22.32.45.63.67.94.13,0,.12-.12.12-.18a31,31,0,0,0,.37-3.72c0-.86.7-1.22,1-1.84,0,0,.1,0,.14,0s.06.11,0,.17a.21.21,0,0,1-.06.1A4.41,4.41,0,0,0,41,3.89c0,.32.08.46.42.32A1.32,1.32,0,0,1,42,4.13c.11,0,.26,0,.27.12s-.16.15-.27.15a2.71,2.71,0,0,0-.75.16.4.4,0,0,0-.34.38,20.43,20.43,0,0,0-.2,2.2c0,.47,0,1,0,1.42,0,.27.14.31.34.21s.43-.26.65-.39A2.16,2.16,0,0,1,43,8a.53.53,0,0,0,.58-.58,2,2,0,0,1,.68-1.63A4,4,0,0,0,45.1,4c.16-.53.49-1,.68-1.54s.47-1.25.66-1.89c.05-.14.09-.37.3-.31s.13.26.09.42a32.53,32.53,0,0,1-1.24,3.47c0,.07-.11.19-.08.22C45.8,4.75,45.42,4.91,45.32,5.16ZM42.88,8.37a.93.93,0,0,0-.54.11c-.31.19-.61.39-.92.57a1.32,1.32,0,0,0-.66,1.63A14.42,14.42,0,0,1,42.88,8.37Z"/><path class="cls-1" d="M181.41,5.36A4.24,4.24,0,0,1,182,4a1.22,1.22,0,0,0,.18-1.12A4,4,0,0,1,182,1.54c0-.43,0-.88-.63-.7,0-.1,0-.15,0-.17.19-.26.62-.28.62-.73a2.84,2.84,0,0,0-.36-1.71c-.43-.66-1-1.17-1.44-1.85-.13-.23-.42-.45-.1-.71s.51,0,.68.24.54.67.8,1,.34.28.58,0a10,10,0,0,1,2.06-2.16c.29-.19.3-.5.34-.79a4.69,4.69,0,0,1,.79-1.9,1.3,1.3,0,0,0-.27-1.32,5.76,5.76,0,0,1-1.55-1.86,2.5,2.5,0,0,1-.06-2,2.92,2.92,0,0,1,.37,1.33c.11,1,.48,1.31,1.42,1.11.06.12-.05.16-.09.23s-.58.07-.37.46a.77.77,0,0,0,1,.27l1-.7c.11-.06.23-.19.34,0s0,.26-.12.34c-.29.22-.59.44-.9.65s-.44.42-.2.73,0,.68,0,1c0,.07,0,.14.05.27a4.11,4.11,0,0,0,.88-1c.06-.1.14-.19.26-.12a.21.21,0,0,1,.09.29,2.64,2.64,0,0,1-.44.79c-.17.17-.36.26-.23.53s.15.33.35.29a.75.75,0,0,0,.61-.43,2.35,2.35,0,0,1,.15-.47c.22-.35.62-.3.87.11-.21,0-.52-.21-.61.12s.24,0,.3.19,0,.08,0,.09c-.7.51-.69.5-.06,1.11.23.21.54.35.62.69,0,.13.15.29,0,.37-.58.34-.15.49.13.6s.4.42.45.73c-.23,0-.26-.15-.38-.23-.28-.19-.5-.55-.95-.29-.12.07-.37,0-.53-.1A3.4,3.4,0,0,0,186-4.41a1,1,0,0,0-.82.85c0,.34.11.51.47.35.14,0,.28-.11.42-.15s.19-.05.26,0-.21,1-.41,1a2.75,2.75,0,0,0-.69.21c-.26.12-.46.26-.37.59,0,.07,0,.2,0,.21-.66.28-.27.56,0,.8-.16.19-.3.09-.43,0s-.38,0-.39.22-.18.39-.36.52-.42.28-.43.56-.13.66.13.84.37-.23.58-.33c.39-.18.76-.39,1.15-.56a2.29,2.29,0,0,0,1.61-1.95c.31.45.33.45.74.14a4.1,4.1,0,0,1,.49-.36c.17-.08.41-.15.33.2s.11.19.23.21l.88.13c.09,0,.18.07.16.18s-.12.11-.22.1c-.31,0-.63,0-.94,0a1.93,1.93,0,0,0-1.6.78,3.63,3.63,0,0,1-1.14,1c-.11.06-.27.13-.3.22s-.37.53.17.57c.08,0,.16.07.23.2-.45,0-.91.07-1.37.08a.63.63,0,0,0-.66.49,21.69,21.69,0,0,0-.93,5.48,3.45,3.45,0,0,0,.2,1.31,4.23,4.23,0,0,1,0,2.15,23.8,23.8,0,0,0-.3,3.67c0,.61-.08,1.22-.08,1.83a17.07,17.07,0,0,0,1,6.13c.05.15.18.32.05.47s-.32.05-.47,0a13.91,13.91,0,0,0-2-.41c-.58-.15-.63-.28-.22-.7a.85.85,0,0,0,.27-.7c-.11-1.52,0-3-.29-4.56a.7.7,0,0,1,0-.38,4.66,4.66,0,0,0-.1-3,1.37,1.37,0,0,0-.37-.62c-.16-.17-.29-.35-.15-.59a.57.57,0,0,1,.6-.33c.47.12.52-.12.57-.49a31.14,31.14,0,0,0,.06-4.73,1.21,1.21,0,0,0-.37-.91,6.81,6.81,0,0,1-1.84-2.95,1.67,1.67,0,0,0-.54-.82.34.34,0,0,1-.06-.57c.2-.23.4-.21.63,0a2.92,2.92,0,0,1,.7,1,7.8,7.8,0,0,0,1.2,2.19C181.24,5.21,181.3,5.25,181.41,5.36Zm5.8-11.73a7.79,7.79,0,0,0-1.38.85c-.13.09-.41.15-.33.37s.32.23.53.23a4.15,4.15,0,0,1,1.53.22c.49.18.7-.23.91-.47s-.2-.33-.33-.48a7.27,7.27,0,0,0-.55-.56A.43.43,0,0,0,187.21-6.37ZM182.84-2c.14.12-.06.66.44.43a5.21,5.21,0,0,0,.91-.65c.13-.1.28-.29,0-.34s-.39-.22-.22-.48a.21.21,0,0,0,0-.26.14.14,0,0,0-.19,0A3.76,3.76,0,0,0,182.84-2Z"/><path class="cls-1" d="M39.78-18.25c1.26,0,.68.86.6,1.2-.15.66.21.89.61,1.14s.53.28.65.57c.19.46.44.29.67.07s.43-.4.74-.14c.13.11.29,0,.41-.08.39-.32.65-.24,1,.2a3,3,0,0,1,.47,1,.7.7,0,0,0,.52.5,1.36,1.36,0,0,1,1,1.19,1,1,0,0,0,.17.54c.35.35.09.52-.18.71.46.14.51.52.54.89a.93.93,0,0,1-.56.82c-.38.25-.82.54-1.32.21-.12-.08-.25,0-.33.11a.25.25,0,0,0,.07.34c.4.2.48.69.84.93.1.07.34.13.17.37s-.23.36-.49.31a1.45,1.45,0,0,1-1.09-.92c-.14-.31-.08-.69-.57-.28-.11.09-.4,0-.61,0s-.45,0-.52.3c.65-.14.95.15.76.79s.33.92.67,1.24A12.9,12.9,0,0,0,45.26-5c.41.29.31.88.18,1.3s-.61.33-.94.4c-.16,0-.37,0-.53.08s-.63.38-.1.73a4,4,0,0,1,.71.71c.12.12.24.26.14.45s-.27.17-.44.12-.39-.07-.53.28a2.73,2.73,0,0,1-.91,1c-.21.16-.29-.1-.4-.26S42.28-.64,42-.59c-.12,0-.18.06-.17.2s.09.51.39.59A2.29,2.29,0,0,1,43,.53c.26.16.48.33.35.64s0,.73-.56.55c-.12,0-.11.05-.12.14a.7.7,0,0,1-1.06.47,1.28,1.28,0,0,0-1.16-.06A1.15,1.15,0,0,1,39,1.9a1.74,1.74,0,0,0-1.62-.55c-.07,0-.2,0-.21.1-.16.57-.46.36-.74.14s-.47-.31-.58.14c-.06.26-.21.2-.37.08s-.15-.25-.3-.12a.25.25,0,0,0,0,.35c.36.49.2.83-.3,1.1-.19.1-.27.23,0,.41s.25.8.43,1.19a.31.31,0,0,1-.22.35c-.36,0-.64.35-1,.37-.66,0-.61.4-.52.84l.09.56c.06.37.08.32.51.5a.61.61,0,0,1,.22.71c-.06.18-.31.48-.45.32-.4-.49-1.37-.29-1.37-1.26a1,1,0,0,0-.39.69,14.41,14.41,0,0,1-1.76,3.87,1.18,1.18,0,0,1-.14.22c-1.15.92-1.13,2.09-.82,3.39a16.86,16.86,0,0,1,.4,3.47c0,.39-.05,3.52-.05,3.95a9.34,9.34,0,0,1-.32,3c-.09.29-.24.55-.58.59s-.76,0-.75-.57-.06-1,0-1.46a17.18,17.18,0,0,0,0-1.88c0-.35,0-2.33,0-2.78a36.83,36.83,0,0,0-.41-4.93A1.94,1.94,0,0,0,27,13.55a20.54,20.54,0,0,1-3.41-3.81,5.86,5.86,0,0,0-2-1.73,2.85,2.85,0,0,1-1.22-1.32c-.23-.5-.54-1.1-1.31-.87-.13,0-.22,0-.26-.11-.16-.58-.48-.45-.86-.22s-.69.39-.71-.27c0-.19-.23-.18-.31-.28-.22-.28-.84.26-.88-.44a3.42,3.42,0,0,0-.84-.07c-.35,0-.75.08-.73-.5,0-.12-.2-.27-.26-.17-.3.49-.86.24-1.24.48s-.6,0-.86-.13c-.06,0-.67-.51.09-.6a2.38,2.38,0,0,0,.43-1.2c-.22-.28-.44-.05-.67,0a6.53,6.53,0,0,1-3.05.56c-.16,0-.38-.11-.38-.29s-.19-.29-.35-.41-.65-.37-.13-.7c.07-.05.12-.09.1-.2C7.9.56,8.11,0,8.74,0c1,0,1.13-.7,1.45-1.31a.54.54,0,0,0,.05-.11.29.29,0,0,0,0-.09,1.15,1.15,0,0,0-.89.6c-.17.24-.39.49-.72.24-.11-.08-.23-.27-.2-.37.07-.28.38-.17.6-.25a1.3,1.3,0,0,1-.27-1.79,3.33,3.33,0,0,1,1.52-1.47c.18-.07.33-.33.12-.34-.48,0-.72-.51-1.19-.53-.25,0-.35,0-.36.25a.5.5,0,0,1-.39.52.29.29,0,0,1-.31-.17.53.53,0,0,1,.08-.65,3.05,3.05,0,0,0,.63-1.44c.13-.57.37-1,1.07-1-.7-.53-.7-.55-.16-1.07a.31.31,0,0,0-.07-.09c-.2-.09-.46.3-.61,0a.58.58,0,0,1,.24-.73,1.09,1.09,0,0,0,.33-.44,4.24,4.24,0,0,1,1.22-1.17,5.83,5.83,0,0,1,1.82-.69,2,2,0,0,1,1.8.19c.2.13.26,0,.36-.1a14.26,14.26,0,0,1,1.68-1.43c.16-.09.28-.33.17-.44-1-1-.18-1.87.2-2.79.15-.37.47-.64.42-1.19-.07-.73.73-1.21,1-1.9.61.08.66-.52,1-.8a1,1,0,0,1,.76-.26c.94.19,1.9-.33,2.83.07.1.05.28-.06.42-.11s.37,0,.38.19c0,.84.56.33.83.26s.9-.14.53-.77c-.08-.14-.11-.34.07-.38.82-.18.69-.93.78-1.44.13-.83.71-1.06,1.33-1.2s1.22-.35,1.7.36c.2.28.53.71,1,.28a.51.51,0,0,1,.6.06.35.35,0,0,1,0,.47c-.16.2,0,.28.12.38s.51.32.51.62c0,.64.52.85.88,1.2.11.1.19,0,.27,0A2.56,2.56,0,0,1,35-21.28c.62.23,1.23.49,1.21,1.32,0,.13,0,.3.18.3.85,0,1.68.39,2.54.15.31-.08.69-.3.92.08S40.36-18.68,39.78-18.25Zm-12.15,31A2.64,2.64,0,0,0,27.1,10a30.17,30.17,0,0,1-3.27-4.73c-.2-.37-.36-.81-.94-.57-.11,0-.21,0-.26-.13s-.12-.47-.43-.31-.15.41-.07.66c.29.9,1,1.55,1.3,2.49C24.08,9.67,25.85,11.15,27.63,12.73ZM27,1.34C26.91,1,26.52.61,27,.45s.27-.31.28-.5a2.46,2.46,0,0,0-.73-1.63c-.14-.19-.44-.24-.49.05A11.76,11.76,0,0,1,25.19.82c-.08.19,0,.37.23.48s.32.2.45,0C26.24.83,26.61.85,27,1.34Zm.5,7.32c-.05-.58.14-1.23-.18-1.33-.59-.19-.35-.49-.28-.78A.45.45,0,0,0,26.93,6a3.36,3.36,0,0,0-2.3-1A16.39,16.39,0,0,0,27.51,8.66ZM31.94.74c-.4.2-.2.53-.3.77a1.5,1.5,0,0,0-1.3.89.83.83,0,0,0,.48.94c.17.08.4.25.5,0,.24-.52.78-.81,1-1.38S32.1,1.33,32,1A.82.82,0,0,1,31.94.74ZM22.79,7.8a15.17,15.17,0,0,0-1.43-2.64C20.47,6.58,20.72,7.05,22.79,7.8Zm8.43-1.44c-.09,0-.25.08-.3.17a6.63,6.63,0,0,0-.76,1.72c-.07.27.19.38.39.35a.8.8,0,0,0,.64-.45c.23-.42.17-.92.46-1.34C31.82,6.57,31.47,6.45,31.22,6.36Zm-13.85-4c.32.32.34.58-.09.76s-.44-.08-.51-.36a.26.26,0,0,0-.34-.21c-.1,0-.14.13-.07.19.39.4.55,1,1,1.29.11.08.3.22.38,0,.18-.38.64-.66.55-1.11S17.8,2.41,17.37,2.32Zm12,6.77a4.85,4.85,0,0,0-.23,2.48,12.94,12.94,0,0,0,1.09-1.3c.1-.18.17-.5,0-.49C29.73,9.81,29.71,9.29,29.37,9.09Z"/></g><g id="Capa_2" data-name="Capa 2"><path class="cls-2" d="M143.8,20.61a4.62,4.62,0,0,0,1.39-.43c2.87-1.57,8.55-7.56,9.4-8.38"/><path class="cls-3" d="M142.82,19.59l0-.35a.08.08,0,0,0-.07-.08l-4-.28a.08.08,0,0,0-.08.07l0,.35-1.58-.11L137,20l6.94.48.05-.76Zm-4-.55,3.84.26v.28l-3.85-.27Z"/><path class="cls-3" d="M144.68,20.42l-.72-.05h-.08l-3.31-.23h-.15l-3.31-.23H137l-.72-.05a.08.08,0,0,0-.08.07l0,.41a.08.08,0,0,0,.07.08l.72.05-.14,2,.31,0v.15l-.31,0,0,.21,3.4.23h.15l3.39.24,0-.2-.31,0V22.9l.31,0,.14-2,.71.05a.07.07,0,0,0,.08-.07l0-.41S144.72,20.43,144.68,20.42ZM137,20.3l-.65-.05,0-.25.64,0Zm7.58.52-.64,0v-.26l.65.05Z"/><path class="cls-3" d="M132.83,21.2l0-.35a.08.08,0,0,0-.08-.07l-4,.43a.08.08,0,0,0-.07.08l0,.35-1.58.17.09.76,6.91-.74-.08-.76Zm-4,.15,3.83-.41,0,.28-3.83.41Z"/><path class="cls-3" d="M134.86,22l-.72.07h-.08l-3.3.35-.15,0-3.3.35h-.08l-.72.08a.08.08,0,0,0-.07.08l0,.41a.06.06,0,0,0,.08.06l.72-.07.21,2,.31,0v.14l-.3,0,0,.2,3.38-.37h.15l3.38-.36,0-.2-.31,0v-.14l.31,0-.22-2,.72-.08a.08.08,0,0,0,.07-.08l-.05-.41A.06.06,0,0,0,134.86,22Zm-7.59,1.22-.64.07,0-.26.64-.07Zm7.56-.81-.64.07,0-.26.64-.07Z"/><path class="cls-3" d="M55.58,19.44l-.72,0h-.09l-3.31-.19h-.15L48,19h-.09l-.72,0s-.07,0-.08.07l0,.4a.08.08,0,0,0,.07.08l.72,0-.12,2,.31,0v.14l-.31,0,0,.2,3.4.2h.15l3.4.2v-.21h-.31v-.15l.31,0,.11-2,.72.05a.08.08,0,0,0,.08-.07l0-.41A.08.08,0,0,0,55.58,19.44Zm-7.69,0-.64,0v-.25l.64,0Zm7.59.44-.65,0,0-.25.64,0Z"/><path class="cls-3" d="M62.25,24.94l0-.35a.07.07,0,0,0-.07-.08l-4-.23a.08.08,0,0,0-.08.07l0,.35-1.59-.09,0,.76,6.94.4,0-.76Zm-4-.51,3.85.23,0,.27-3.84-.22Z"/><path class="cls-3" d="M64.13,26l-.72,0h-.08L60,25.78h-.15l-3.32-.19h-.08l-.72,0a.08.08,0,0,0-.08.08l0,.4a.07.07,0,0,0,.07.08l.72,0-.12,2,.31,0v.14l-.31,0v.2l3.4.2h.15l3.4.19v-.2l-.31,0v-.14l.31,0,.11-2,.72,0a.08.08,0,0,0,.08-.08l0-.4A.07.07,0,0,0,64.13,26Zm-7.68,0-.65,0,0-.25.64,0Zm7.58.44-.64,0v-.25l.65,0Z"/><path class="cls-3" d="M125.37,29.65l-.72,0h-.09l-3.31.19h-.15l-3.31.19h-.09l-.71,0a.08.08,0,0,0-.08.08l0,.4a.07.07,0,0,0,.08.07l.72,0,.11,2,.31,0v.14l-.31,0V33l3.4-.19h.15l3.4-.2,0-.2-.31,0v-.15h.31l-.12-2,.72,0a.08.08,0,0,0,.07-.08l0-.41A.08.08,0,0,0,125.37,29.65Zm-7.64.85-.65,0v-.25l.64,0Zm7.59-.44-.65,0v-.25l.64,0Z"/><path class="cls-3" d="M75,32.63H66.64a.09.09,0,0,0-.08.08v.4a.09.09,0,0,0,.08.08h.72v2h.31v.14h-.31v.2h7v-.2H74v-.14h.31v-2H75a.09.09,0,0,0,.08-.08v-.4A.09.09,0,0,0,75,32.63ZM67.36,33h-.65v-.26h.65ZM75,33h-.65v-.26H75Z"/><path class="cls-4" d="M96.68,47.49l-.42.44c-.19.2-.37.4-.56.59a.56.56,0,0,0-.15.45,5.76,5.76,0,0,1-.1,2.07,3.59,3.59,0,0,0,0,.46.32.32,0,0,0,0,.14,1.4,1.4,0,0,1,.06.7.29.29,0,0,0,0,.16.64.64,0,0,1,0,.49.15.15,0,0,1-.12.1l-.23,0c-.08,0-.15,0-.2,0s0,0,0,0-.1.11-.18.14a2.57,2.57,0,0,1-1.48.06c-.12,0-.14-.1-.12-.2a.37.37,0,0,1,.23-.28,1.93,1.93,0,0,0,.6-.32.16.16,0,0,0,.08-.19,1,1,0,0,1,.09-.7.62.62,0,0,0,.06-.3,9.33,9.33,0,0,0,0-1.83c0-.27,0-.54-.05-.81a1.15,1.15,0,0,1,.19-.65c.27-.4.5-.84.74-1.26a5,5,0,0,1,.56-.8s0,0,0-.07,0,0-.08,0-.29,0-.32-.23a.42.42,0,0,0-.06-.14c0,.2-.22.21-.37.26a14.3,14.3,0,0,1-1.57.37c-.07,0-.13,0-.14.12v0c-.07.15-.09.33-.28.42s-.11.11-.16.16,0,0-.06,0-.12.06-.15.12c-.18.42-.37.83-.55,1.25s-.27.71-.4,1.07a.3.3,0,0,0,.2.4l.47.19c.07,0,.08.05,0,.11a1.78,1.78,0,0,1-1.3.89,1.75,1.75,0,0,1-.56,0,.85.85,0,0,1-.51-.31.65.65,0,0,1,0-.67,2.73,2.73,0,0,1,.34-.6c0-.05.07-.05.12,0l.48.15a.25.25,0,0,0,.36-.16c.37-.89.75-1.78,1.15-2.66a.11.11,0,0,0,0-.14c-.08-.11-.07-.15,0-.25s.23-.23.34-.36a1.76,1.76,0,0,0,.19-.39L93.52,44a.15.15,0,0,0,0-.18s0-.09-.08-.12a.36.36,0,0,1-.08-.36,2,2,0,0,1,.07-.45c-.13.09-.21,0-.28-.06s-.16,0-.22-.09,0,0-.07,0,0,0-.08,0-.12.07-.18,0-.13-.29-.28-.37-.08,0-.12,0a.31.31,0,0,1-.25.11c-.1,0-.13-.06-.1-.15v0c.11-.12.08-.22,0-.34a1,1,0,0,1-.13-.32,1.11,1.11,0,0,0-.13-.36.12.12,0,0,1,0-.1,1.15,1.15,0,0,1,1.1-.87,1.13,1.13,0,0,1,.8.42.17.17,0,0,0,.08.06c.08,0,.11,0,.06.12s0,.1,0,.15a2.16,2.16,0,0,1,.22.36.18.18,0,0,0,0,.07c.09.08.1.07.17,0a1.24,1.24,0,0,1,.41-.38.85.85,0,0,1,.59-.06.29.29,0,0,0,.16,0l.51-.17a1.27,1.27,0,0,1,.39-.06c.11,0,.15,0,.17.15a1.91,1.91,0,0,1,0,.79.14.14,0,0,0,.06.16A5.37,5.37,0,0,1,97.58,43c.23.26.45.54.69.8a.11.11,0,0,1,0,.17L98,44.2a.11.11,0,0,0,0,.14,2,2,0,0,1,0,1.75.47.47,0,0,0,0,.17,6.65,6.65,0,0,1-.13,1.26.2.2,0,0,0,0,.17,1.45,1.45,0,0,0,.09.22.31.31,0,0,1,0,.31s0,.06,0,.1a2.38,2.38,0,0,1,.39,1.28,2.22,2.22,0,0,1,0,.44.34.34,0,0,0,0,.2,2.56,2.56,0,0,1,.18,1,1,1,0,0,0,0,.3.25.25,0,0,1-.16.33.41.41,0,0,1-.24.06.76.76,0,0,1-.54-.17c-.06-.06-.15,0-.22,0a1,1,0,0,1-.67-.14.3.3,0,0,1-.17-.37.29.29,0,0,1,.35-.18h.13c.15,0,.16,0,.13-.16a.4.4,0,0,1,0-.19,4.6,4.6,0,0,1,.06-.52.39.39,0,0,0,0-.15,5.4,5.4,0,0,1-.38-1.36c-.05-.28-.13-.55-.17-.83Zm-3.55-1.82a1.06,1.06,0,0,0,.51-.21,4,4,0,0,1,.42-.3s.1,0,.09-.09,0-.14-.11-.17-.11-.08-.13-.16a2.38,2.38,0,0,0-.14-.46Z"/><path class="cls-4" d="M108.31,25.21a1.38,1.38,0,0,0-.06-.16,1,1,0,0,1,.5-1.29.86.86,0,0,1,1,.41,3.14,3.14,0,0,1,.23.53.22.22,0,0,0,.16.16,1.37,1.37,0,0,1,.68.36c.18.2.44.33.64.53.39.39.76.8,1.15,1.2a2.46,2.46,0,0,0,.44.31,4,4,0,0,1,.92,1,.94.94,0,0,0,.91.4.29.29,0,0,1,.21.08.35.35,0,0,0,.34.08l2.33-.51.9-.16c.15,0,.21-.08.17-.25a.63.63,0,0,1,.57-.87l1-.21a.33.33,0,0,1,.42.28l.24,1.4a.36.36,0,0,1-.27.46q-.58.16-1.17.3a.55.55,0,0,1-.66-.54c0-.25-.05-.26-.29-.21l-3.19.62a2.44,2.44,0,0,0-.41.19.21.21,0,0,1,0,.13.15.15,0,0,1-.11,0,1.41,1.41,0,0,0-.76-.08l-3.38.72c-.28.06-.27.07-.23.35.08.56.15,1.12.23,1.68a6.75,6.75,0,0,0,.14.76,1.43,1.43,0,0,1,0,.87,3.37,3.37,0,0,0-.14.89c0,.44,0,1.63,0,2.08a.91.91,0,0,0,.3.55,1.7,1.7,0,0,0,.71.42,1.07,1.07,0,0,1,.44.27.17.17,0,0,1-.13.28,3.2,3.2,0,0,1-.69,0c-.4-.06-.8-.15-1.2-.23L110,37.9c-.13,0-.11-.13-.07-.24a1.37,1.37,0,0,0,.15-.54,13.93,13.93,0,0,0-.26-2.58,2.17,2.17,0,0,1-.05-.72,2.14,2.14,0,0,0-.21-1,4.14,4.14,0,0,1-.21-.59c-.12-.37-.22-.74-.33-1.1a1.07,1.07,0,0,0-.14-.2,1.94,1.94,0,0,0-.13.42c-.09.69-.16,1.37-.25,2.06a5.2,5.2,0,0,1-.2.75c0,.08-.12.14-.18.22a.91.91,0,0,0-.09.17c-.15.62-.31,1.23-.44,1.85a1.5,1.5,0,0,0,0,.42,2.64,2.64,0,0,0,0,.28.49.49,0,0,0,.09.22c.22.22.46.42.68.64a.68.68,0,0,1,.14.23c-.08,0-.15.09-.23.09l-.87,0c-.31,0-.48-.27-.7-.43a.12.12,0,0,1,0-.12A4.22,4.22,0,0,0,107,36c0-.5,0-1,0-1.49,0,0,0-.08,0-.11.07-.41.15-.81.23-1.22a.57.57,0,0,0,0-.13c0-.27,0-.53,0-.8s0-.78,0-1.17-.07-.79-.1-1.18a.24.24,0,0,0-.07-.12c-.22-.19-.45-.37-.67-.57a.3.3,0,0,1-.1-.22,3.12,3.12,0,0,1,.22-1.09c.12-.3.2-.61.29-.92,0-.05,0-.1,0-.14.16-.33.33-.65.5-1a1.33,1.33,0,0,1,.79-.58Zm5.79,3.85L114,29c-.24-.21-.48-.43-.73-.63s-.42-.33-.63-.49c-.54-.39-1.07-.78-1.62-1.16-.23-.17-.3-.13-.41.14l0,.07a3.94,3.94,0,0,0-.47,1.49.56.56,0,0,0,.11.48s0,.07,0,.09c-.17.34.11.61.11.94Z"/><path class="cls-4" d="M45.3,15c-.08.38-.18.76-.25,1.14s-.14.86-.2,1.3a0,0,0,0,1,0,0,16,16,0,0,0-.46,2.27c0,.07,0,.16,0,.24s0,.45,0,.67a4,4,0,0,0,0,.5c.08.34,0,.42-.32.39a3.4,3.4,0,0,1-.46-.07.19.19,0,0,1-.17-.24c.05-.15.12-.3.18-.44a1.52,1.52,0,0,0,.16-.4,8.35,8.35,0,0,0-.07-1.87c0-.25,0-.51,0-.76a5.47,5.47,0,0,1,.12-1.15.25.25,0,0,0,0-.09,1,1,0,0,1-.07-.62c0-.12-.06-.24,0-.35a4.13,4.13,0,0,0-.17-.93c0-.21-.08-.41-.09-.62s0-.33.06-.5,0-.46,0-.69a2.46,2.46,0,0,1,0-.26,8.72,8.72,0,0,0-.09-1.77,2.13,2.13,0,0,0-.1-.49.19.19,0,0,0-.17-.12c-.31,0-.62,0-.92,0s-.23,0-.17.25a.2.2,0,0,0,0,.07.35.35,0,0,0-.29.35c0,.23,0,.46,0,.69,0,1.11,0,2.22,0,3.33,0,1.59,0,3.19,0,4.79,0,.22,0,.45,0,.67s0,.18.16.19a.87.87,0,0,1,.4.08.72.72,0,0,1,.31.34c.1.37.14.75.21,1.13H41c-.1-.4-.21-.78-.29-1.16s.12-.52.47-.47.25,0,.25-.21l.09-3.08c0-.56,0-1.11,0-1.67,0-1.58,0-3.15,0-4.72,0-.09-.08-.16-.11-.25s-.06-.24-.09-.36a.71.71,0,0,1,.18-.75A.37.37,0,0,1,42,9.28a.69.69,0,0,0,.88-.12,1.52,1.52,0,0,1,.41-.24c.24-.12.42-.35.7-.39s.16-.27.07-.42-.15-.26-.23-.38a.76.76,0,0,1,.1-.94.88.88,0,0,1,1-.09,1,1,0,0,1,.35,1,.23.23,0,0,0,.06.21c.16.15.31.32.56.31a1.06,1.06,0,0,1,.86.43c.3.35.59.71.88,1.07a.74.74,0,0,1,.08.62A10.26,10.26,0,0,1,47,12.11a4.37,4.37,0,0,1-.4.65.2.2,0,0,0,0,.08,4.1,4.1,0,0,0,.06.49c.06.27.16.53.2.8s.08.86.12,1.28.11.86.15,1.29c0,.24,0,.49,0,.73,0,.73.06,1.45.14,2.17a1.07,1.07,0,0,0,.44.87l.67.37a3.58,3.58,0,0,1,.45.31.15.15,0,0,1,0,.14.21.21,0,0,1-.13.07l-.63,0-1.37-.22a.84.84,0,0,1-.22-.1.5.5,0,0,0,.11-.17,1.85,1.85,0,0,0,.07-.41A5.28,5.28,0,0,0,46.34,19c-.1-.3-.15-.62-.23-.92a2.65,2.65,0,0,0-.11-.3.76.76,0,0,1-.06-.2c0-.4-.06-.8-.12-1.2a4,4,0,0,0-.16-.49c-.06-.2-.09-.4-.15-.59a1.59,1.59,0,0,0-.15-.29Zm1.12-5.18a6.58,6.58,0,0,0,.06,2,.35.35,0,0,0,.13-.08.59.59,0,0,0,.12-.2q.2-.62.36-1.23a.23.23,0,0,0-.09-.18Z"/><path class="cls-4" d="M76.71,26.13a2.49,2.49,0,0,1,1.89-.39,4.59,4.59,0,0,1,2.26,1.06A.38.38,0,0,1,81,27c0,.17.08.23.2.3a.54.54,0,0,1,.27.18c.23.47.45.95.65,1.44s.27.75.41,1.12a.25.25,0,0,0,.11.15.29.29,0,0,1,0,.49,2.52,2.52,0,0,1-.33.24c-.11.06-.23.15-.37,0a.2.2,0,0,0-.2,0c-.38.17-.75.34-1.11.53a.21.21,0,0,0-.1.2,3.34,3.34,0,0,0,.19.77A3.49,3.49,0,0,1,81,33.79a9.2,9.2,0,0,0,.31,2.45.33.33,0,0,1-.08.26,1.71,1.71,0,0,1-1.4.34.21.21,0,0,1-.24-.17.28.28,0,0,1,.15-.29,4.66,4.66,0,0,0,.47-.3c.08-.07.18-.15.19-.24a2.34,2.34,0,0,0,0-.83c-.17-.73-.39-1.45-.61-2.17a.17.17,0,0,0-.15-.12c-.15,0-.19-.11-.2-.22s0-.25,0-.4l-1.69.84a.2.2,0,0,0-.08.15c0,.42,0,.84,0,1.26s.16.75.23,1.13,0,.28-.21.32L76.58,36l-.7.07a.23.23,0,0,1-.27-.22c0-.17.08-.22.19-.28.31-.14.61-.27.91-.42a.47.47,0,0,0,.24-.36,2.61,2.61,0,0,0-.06-1.14c-.08,0-.15.1-.22.09a1.11,1.11,0,0,1-.22-.07s0,0-.08,0L74.09,35.1a1.83,1.83,0,0,1-.24.13c-.22.09-.45.16-.68.23a1.51,1.51,0,0,1-.37.07l-1.38,0-.17,0v0s.08-.08.11-.07a1,1,0,0,0,.61-.25.48.48,0,0,1,.28-.1c.39,0,.78,0,1.17,0a.53.53,0,0,0,.28-.07l2.42-1.49c.12-.07.29-.11.22-.32,0,0,0-.07,0-.1.31-.35.21-.76.17-1.17-.25,0-.25-.11-.24-.28s0-.57,0-.86a3.94,3.94,0,0,0,0-.69A4.83,4.83,0,0,0,76,29a4.66,4.66,0,0,1-.38-.93c0-.11-.07-.17-.19-.14s-.14,0-.17-.13a1.69,1.69,0,0,0-.13-.31c-.11-.21-.27-.4-.19-.66a2,2,0,0,1,.2-.48.72.72,0,0,1,1-.32l.41.21Zm2.69,5.66c.06,0,.09-.19.09-.29,0-.28,0-.56,0-.84s.06-.54.07-.81a5,5,0,0,0,0-.52.68.68,0,0,0-.14.09c-.34.36-.7.72-1,1.1a8,8,0,0,0-.71.94.72.72,0,0,0-.07.46,5.44,5.44,0,0,0,.16.71C78.28,32.35,78.84,32.08,79.4,31.79Zm1.3-.62.4-.19.32-.16c.12-.08.31-.14.36-.25a.85.85,0,0,0,0-.82c-.18-.3-.33-.62-.49-.93l-.07,0C81.17,29.63,80.71,30.33,80.7,31.17ZM77,29.73c.18-.31,0-1.22.16-1.5-.21,0-.08.55-.34.5Z"/><path class="cls-4" d="M152.79,22.73c-.27-.19-.61-.69-.85-.88s-.35-.77-.71-1c-.18-.13.08-.4,0-.54-.29-.44-.15-.93-.22-1.39h0a6.6,6.6,0,0,1,3-5.61,8.79,8.79,0,0,0,1-.75c.09-.07.22-.11.19-.25s-.19-.11-.31-.11c-.4,0-.58-.16-.49-.56s.27-.84,0-1.27c0,0,0-.05,0-.08s0-.23.16-.27a.28.28,0,0,1,.31.08l.18.24c.08-1.21.18-2.39.19-3.58a1,1,0,0,0-.19-.66.67.67,0,0,1,.11-1,.51.51,0,0,0,.13-.16,1.26,1.26,0,0,1,1.05-.66q3.44-.25,6.89-.34a1.63,1.63,0,0,1,1.11.32,1.44,1.44,0,0,0,.64.29c.36.06.43.29.17.55a.55.55,0,0,0-.17.53c.28,1.47.57,3,.85,4.42a.5.5,0,0,0,.61.46c.86-.06,1.73-.07,2.6-.08.37,0,.51-.13.51-.5,0-1.68,0-3.36-.05-5a.54.54,0,0,0-.33-.57c-.31-.12-.18-.3,0-.41a1.3,1.3,0,0,1,.95-.09c.28.07.49.2.23.52a.51.51,0,0,0-.1.36c0,1.77.07,3.53.09,5.3,0,.3.15.42.45.42s.42-.13.42-.43c0-1.32,0-2.64,0-3.95,0-.17,0-.37.14-.46s.29-.37.29-.63c0-.77,0-1.54,0-2.31,0-.34.25-.53.46-.38s.14.27.14.42c0,.76.05,1.52.07,2.27,0,.17,0,.41.14.46.52.18.42.61.44,1,.05,1.14.08,2.28.14,3.41,0,.6.27.76.85.61a.68.68,0,0,0,.22-.12.5.5,0,0,1,.56,0,1,1,0,0,0,.64.15c.48,0,1,0,1.43,0a3.2,3.2,0,0,0,1.65-.12.42.42,0,0,1,.36,0,1.5,1.5,0,0,0,.77.17,11.93,11.93,0,0,1,1.34.14.69.69,0,0,1,.48.31,4.54,4.54,0,0,1,.76,2.32c0,1-.07,2-.08,3,.06-.56.43-.65.88-.64.61,0,1.21,0,1.81,0s.73.15.67.71c-.08.73-.22,1.46-.35,2.19a.53.53,0,0,1-.55.43,10.58,10.58,0,0,0-1.13.15.43.43,0,0,0-.29.7.57.57,0,0,1,0,.66,1.7,1.7,0,0,0-.25,1.32.42.42,0,0,1-.38.55.57.57,0,0,0-.45.38l-7.81.08c.06-.14-.06-.21-.16-.26a.87.87,0,0,0-.28-.05.37.37,0,0,1-.32-.39c0-.77-.09-.84-.85-.71-.46.09-.6,0-.69-.48,0-.1,0-.2,0-.29,0-.27-.16-.37-.42-.35a9.19,9.19,0,0,0-2.12.2c-.68.23-1.48-.12-2.06.5-.05.05-.18,0-.28,0L164.4,21c-.15,0-.33,0-.39.19a4.2,4.2,0,0,1-.88,1.5Zm4-13.45c.12-.23.13-.57.37-.78a1.1,1.1,0,0,0,.32-1.11c-.08-.48.05-.72.41-.83a.76.76,0,0,1,1,.4.39.39,0,0,0,.19.21c.21.09.22.15,0,.3a.58.58,0,0,0-.06.92,7.87,7.87,0,0,0,1.23,1.15c.16.12.32.35.54.2s.51-.35.51-.68c0-.83,0-1.66,0-2.49a.28.28,0,0,0-.3-.32c-1.33,0-2.66,0-4,.15a.28.28,0,0,0-.27.27ZM164.44,6c-.22.57-.37,1.14-.63,1.67a1.94,1.94,0,0,0-.29,1.62l-.08.06c-.18-.16-.13-.44-.28-.64,0,.29,0,.55,0,.82,0,.69,0,.69.72.65a3,3,0,0,1,.42,0c.4,0,.52-.16.48-.53C164.66,8.42,164.55,7.21,164.44,6Zm5.66,13.66.92-.06c.69,0,.66-.05.77-.71.07-.43-.11-.59-.48-.66-.55-.09-.88,0-.95.41s-.17.46-.47.49c-.12,0-.23.06-.22.2a.3.3,0,0,0,.23.32A.76.76,0,0,0,170.1,19.65ZM164.73,5.31a.47.47,0,0,0-.13.46l.24,2.09c.07.64.12,1.28.19,1.92,0,.2.11.36.36.31s.2-.22.17-.39-.07-.53-.11-.79C165.26,7.72,165.05,6.54,164.73,5.31ZM163,6.7a3,3,0,0,0,.07.74c0,.19.14.24.28.07A4,4,0,0,0,164,6.39c0-.09.05-.22-.08-.23a2.09,2.09,0,0,0-.83,0C162.87,6.26,163,6.54,163,6.7Z"/><polygon class="cls-1" points="0 18.39 22.23 18.39 25.17 20.18 30.57 19.28 40.7 19.28 47.73 21 50.64 21.4 54.97 22.07 57.64 27.47 62.92 28.36 65.28 32.8 65.28 35.41 75.36 35.55 85.29 37.57 87.09 43.62 87.43 50.73 88.67 51.81 95.15 51.65 101.36 51.65 101.76 45.45 104.39 37.76 109.41 37.39 114.51 37.23 114.63 35.61 115.59 32.55 116.2 32.43 119.42 32.03 124.91 32.19 125.72 25.29 132.66 24.63 136.22 22.73 142.54 22.31 144.13 22.52 171.95 21.33 178.16 21.33 200 21.82 200 100 0 100 0 18.39"/></g></svg>