<svg xmlns="http://www.w3.org/2000/svg" viewBox="0 0 200 100"><defs><style>.cls-1{fill:#ccc;}.cls-2{fill:none;stroke:#708088;stroke-miterlimit:10;stroke-width:0.5px;}.cls-3{fill:#9b9b9b;}.cls-4{fill:#708088;}.cls-5{font-size:3px;font-family:WorkSans-Medium, Work Sans;font-weight:500;}.cls-6{letter-spacing:-0.07em;}.cls-7{letter-spacing:-0.01em;}.cls-8{letter-spacing:0em;}.cls-9{letter-spacing:-0.01em;}.cls-10{font-family:WorkSans-Light, Work Sans;font-weight:300;}.cls-11{letter-spacing:-0.01em;}.cls-12{letter-spacing:-0.02em;}.cls-13{letter-spacing:-0.03em;}.cls-14{letter-spacing:-0.02em;}.cls-15{letter-spacing:-0.02em;}.cls-16{letter-spacing:0em;}.cls-17{letter-spacing:-0.02em;}.cls-18{letter-spacing:-0.02em;}.cls-19{letter-spacing:0em;}.cls-20{letter-spacing:-0.01em;}.cls-21{letter-spacing:0em;}.cls-22{letter-spacing:-0.02em;}.cls-23{letter-spacing:-0.02em;}.cls-24{letter-spacing:-0.1em;}.cls-25{font-family:WorkSans-ExtraLight, Work Sans;font-weight:200;}.cls-26{letter-spacing:-0.02em;}.cls-27{letter-spacing:-0.03em;}.cls-28{letter-spacing:-0.01em;}.cls-29{letter-spacing:-0.03em;}.cls-30{letter-spacing:-0.02em;}.cls-31{letter-spacing:-0.03em;}.cls-32{letter-spacing:-0.02em;}.cls-33{letter-spacing:-0.01em;}.cls-34{letter-spacing:0em;}.cls-35{letter-spacing:-0.01em;}.cls-36{letter-spacing:0em;}.cls-37{letter-spacing:-0.01em;}.cls-38{letter-spacing:-0.01em;}.cls-39{letter-spacing:-0.02em;}</style></defs><title>riñihuazo</title><g id="Capa_2" data-name="Capa 2"><path class="cls-1" d="M42.9,8.68a7.15,7.15,0,0,1,2.54-1.51,1.73,1.73,0,0,1,1-.16c.08,0,.17,0,.17.13s-.07.12-.14.13a7.72,7.72,0,0,0-2.48,1,2.67,2.67,0,0,0-1.31,1.51,4,4,0,0,1-.87,1.5c.07.09.14.05.2,0s.17,0,.21,0a.14.14,0,0,1-.13.18c-.86.14-1.19,1-1.79,1.42a7.88,7.88,0,0,0-1.43,1.62,3.61,3.61,0,0,0-.71,2.49,9.27,9.27,0,0,1-.74,4.35,3.12,3.12,0,0,0-.26,1.45c.21,2.36.15,4.72.13,7.08,0,.47-.07.52-.54.49-.26,0-.51,0-.77,0s-.39-.11-.37-.38c.06-.83.07-1.67.17-2.49a16.83,16.83,0,0,0,.13-2.24c0-.82,0-1.64,0-2.45,0-1.62.08-3.25,0-4.86a37.87,37.87,0,0,0-.5-4.75c0-.08-.06-.17,0-.24a5.38,5.38,0,0,0-.14-2.73,18.65,18.65,0,0,0-.22-2,16.24,16.24,0,0,0-.91-2.53,2.45,2.45,0,0,1-.27-.92c0-.09,0-.2.09-.24s.16.06.21.13A10.29,10.29,0,0,1,35,6.5,8.88,8.88,0,0,1,35.7,9s0,.1,0,.11c.45.19.2.54.2.84a2.85,2.85,0,0,0,.07.71,23.31,23.31,0,0,1,.32,3l.3,2.39c0,.12,0,.3.19.31s.17-.15.25-.23a2.32,2.32,0,0,0,.44-2,.32.32,0,0,0-.23-.3,2,2,0,0,1-.32-.17c-.13-.09-.33-.21-.22-.37s.25.05.37.11c.41.25.63.14.64-.34a17.39,17.39,0,0,0,0-1.77,3.63,3.63,0,0,0-.67-1.45,1.38,1.38,0,0,0-.69-.7.21.21,0,0,1-.15-.25c.07-.16.2-.1.31-.06a1,1,0,0,1,.52.36c.22.32.45.63.67.94.14,0,.12-.12.12-.18a29.11,29.11,0,0,0,.37-3.72c0-.86.71-1.22,1-1.84a.14.14,0,0,1,.14,0c.08,0,.06.11,0,.17a.36.36,0,0,1-.07.1,4.47,4.47,0,0,0-.77,2.77c0,.32.09.46.42.32a1.35,1.35,0,0,1,.6-.08c.1,0,.25,0,.26.12s-.16.16-.27.15a2.79,2.79,0,0,0-.75.16.4.4,0,0,0-.34.38,20.43,20.43,0,0,0-.2,2.2c0,.47,0,.95,0,1.42,0,.27.15.31.34.21a7,7,0,0,0,.65-.39,2.16,2.16,0,0,1,1.21-.4.52.52,0,0,0,.57-.58,2,2,0,0,1,.68-1.63,3.92,3.92,0,0,0,.89-1.73c.17-.53.49-1,.68-1.54s.47-1.25.67-1.89c0-.14.08-.37.3-.31s.12.26.08.42a32.53,32.53,0,0,1-1.24,3.47c0,.07-.1.19-.08.22C43.38,8.27,43,8.44,42.9,8.68Zm-2.45,3.21a.93.93,0,0,0-.54.11c-.31.19-.61.39-.92.57a1.3,1.3,0,0,0-.65,1.63A13.91,13.91,0,0,1,40.45,11.89Z"/><path class="cls-1" d="M179,8.88a4.23,4.23,0,0,1,.61-1.32,1.19,1.19,0,0,0,.18-1.12,4,4,0,0,1-.17-1.38c0-.43,0-.88-.64-.7a.92.92,0,0,1,0-.17c.19-.26.62-.28.62-.73a2.84,2.84,0,0,0-.36-1.71c-.43-.66-1-1.17-1.43-1.85-.14-.23-.43-.45-.11-.71s.51,0,.69.24.53.67.8,1,.33.28.58,0a9.64,9.64,0,0,1,2.06-2.17c.28-.19.29-.5.33-.79a4.71,4.71,0,0,1,.8-1.9,1.3,1.3,0,0,0-.28-1.32,5.76,5.76,0,0,1-1.55-1.86,2.5,2.5,0,0,1,0-2,2.9,2.9,0,0,1,.36,1.33c.11,1,.48,1.31,1.42,1.12.06.11-.05.15-.09.22s-.58.07-.37.46a.79.79,0,0,0,1.06.27c.33-.24.67-.47,1-.69.1-.07.22-.2.33,0s0,.25-.11.33c-.3.22-.6.44-.91.65s-.44.43-.2.73,0,.68,0,1c0,.07,0,.14.06.27a3.87,3.87,0,0,0,.87-1c.07-.1.14-.19.27-.12a.21.21,0,0,1,.08.29,2.64,2.64,0,0,1-.44.79c-.17.17-.36.26-.23.53s.15.33.36.29a.73.73,0,0,0,.6-.43c.07-.15.06-.34.15-.47.22-.35.63-.3.87.11-.21.05-.52-.21-.61.12s.24.05.3.19,0,.08,0,.09c-.7.51-.7.5-.06,1.11.22.21.54.35.62.69,0,.13.14.29,0,.37-.57.34-.15.49.13.6s.4.42.46.73c-.23,0-.27-.15-.38-.23-.28-.19-.5-.55-1-.29-.12.07-.37,0-.53-.1a3.45,3.45,0,0,0-1.65-.22,1,1,0,0,0-.82.85c0,.34.11.51.48.35.13,0,.27-.11.41-.15s.19,0,.26,0-.21,1-.41,1a2.89,2.89,0,0,0-.69.21c-.25.12-.45.26-.36.59,0,.07,0,.2,0,.21-.66.28-.27.56,0,.8-.16.19-.3.09-.43,0s-.37,0-.38.22-.18.39-.37.52-.42.28-.42.56-.14.66.12.84.37-.23.58-.33l1.15-.56a2.28,2.28,0,0,0,1.61-1.95c.31.45.33.45.74.14a3.52,3.52,0,0,1,.5-.36c.16-.08.4-.15.32.2s.12.19.23.21l.88.13c.09,0,.19.07.17.18s-.13.11-.22.1c-.32,0-.64,0-.95,0a1.93,1.93,0,0,0-1.6.78,3.63,3.63,0,0,1-1.14,1c-.11.06-.27.13-.3.23s-.37.52.17.56c.08,0,.16.07.24.2-.46,0-.92.07-1.38.08a.61.61,0,0,0-.65.5,21.12,21.12,0,0,0-.94,5.47,3.45,3.45,0,0,0,.2,1.31,4,4,0,0,1,0,2.15,23.79,23.79,0,0,0-.29,3.67c0,.61-.09,1.22-.09,1.83a17.29,17.29,0,0,0,1,6.13c.06.15.19.32.05.47s-.32.05-.47,0a15.23,15.23,0,0,0-2-.41c-.59-.15-.64-.28-.23-.7a.84.84,0,0,0,.27-.69c-.1-1.52,0-3.06-.29-4.57a1,1,0,0,1,0-.38,4.66,4.66,0,0,0-.1-2.95,1.37,1.37,0,0,0-.37-.62c-.16-.17-.29-.35-.14-.59a.55.55,0,0,1,.59-.33c.47.12.52-.12.57-.49a29.88,29.88,0,0,0,.06-4.73,1.17,1.17,0,0,0-.36-.91,6.73,6.73,0,0,1-1.85-2.95,1.67,1.67,0,0,0-.54-.82.34.34,0,0,1-.06-.57.4.4,0,0,1,.63,0,2.92,2.92,0,0,1,.7,1,7.67,7.67,0,0,0,1.2,2.19Zm5.8-11.73A8.1,8.1,0,0,0,183.4-2c-.13.09-.41.15-.33.37s.33.23.54.23a4.18,4.18,0,0,1,1.53.22c.48.18.69-.23.9-.47s-.2-.33-.33-.48a7.27,7.27,0,0,0-.55-.56A.42.42,0,0,0,184.79-2.85Zm-4.38,4.32c.15.12-.06.66.44.43a4.86,4.86,0,0,0,.91-.65c.13-.1.28-.29,0-.34s-.39-.22-.21-.48a.23.23,0,0,0,0-.26.14.14,0,0,0-.19-.05A3.76,3.76,0,0,0,180.41,1.47Z"/><path class="cls-1" d="M37.36-14.73c1.26,0,.68.86.6,1.2-.16.66.2.89.6,1.14.25.16.54.28.66.57.18.46.44.29.67.07s.42-.39.74-.14c.13.11.28,0,.4-.08.39-.32.65-.24,1,.2a3,3,0,0,1,.47,1,.7.7,0,0,0,.52.5,1.38,1.38,0,0,1,1,1.19.93.93,0,0,0,.16.54c.36.36.1.52-.17.71.45.14.51.52.53.89a.89.89,0,0,1-.56.82c-.38.25-.82.54-1.32.21a.22.22,0,0,0-.32.11.24.24,0,0,0,.06.34c.4.2.48.69.84.93.1.07.34.13.17.37s-.22.36-.49.31a1.46,1.46,0,0,1-1.09-.92c-.13-.31-.08-.69-.56-.28-.12.1-.41,0-.61,0s-.45,0-.52.3c.64-.14.94.15.75.79s.34.92.67,1.24a12,12,0,0,0,1.32,1.25c.4.29.3.88.17,1.3s-.61.33-.93.4c-.16,0-.38,0-.54.08s-.63.38-.09.73a4.76,4.76,0,0,1,.71.71c.11.12.23.27.14.45s-.27.17-.45.12-.39-.07-.52.28a2.85,2.85,0,0,1-.92,1c-.21.16-.29-.1-.39-.26s-.16-.41-.45-.37c-.13,0-.19.06-.17.2s.08.51.39.59a2.39,2.39,0,0,1,.75.33c.25.16.47.33.35.65s0,.72-.57.54c-.12,0-.11,0-.12.14a.69.69,0,0,1-1.05.47A1.3,1.3,0,0,0,38,5.79a1.14,1.14,0,0,1-1.41-.37A1.72,1.72,0,0,0,35,4.87c-.08,0-.21,0-.22.1-.16.57-.46.36-.74.14s-.47-.31-.57.14c-.06.26-.22.2-.38.08s-.15-.25-.3-.12a.25.25,0,0,0,0,.35c.36.5.2.83-.3,1.1-.19.1-.26.23,0,.41s.26.8.43,1.19a.31.31,0,0,1-.22.35c-.36.05-.64.35-1,.37-.66,0-.6.4-.52.84l.09.56c.06.37.08.32.51.51a.59.59,0,0,1,.22.7c-.06.18-.31.48-.44.32-.41-.49-1.38-.29-1.38-1.26a1,1,0,0,0-.39.69A14.11,14.11,0,0,1,28,15.21a1.18,1.18,0,0,1-.14.22c-1.15.92-1.13,2.09-.82,3.39a16.86,16.86,0,0,1,.4,3.47c0,.39-.05,3.52,0,3.95a9.35,9.35,0,0,1-.33,3c-.09.29-.23.55-.58.6s-.76,0-.75-.58-.06-1,0-1.46a17.18,17.18,0,0,0,0-1.88c0-.35,0-2.33,0-2.78a36.84,36.84,0,0,0-.42-4.93,1.88,1.88,0,0,0-.74-1.15,20.61,20.61,0,0,1-3.42-3.82,5.77,5.77,0,0,0-2-1.73,2.85,2.85,0,0,1-1.22-1.32c-.22-.5-.54-1.1-1.31-.87-.12,0-.22,0-.25-.11-.17-.58-.49-.45-.87-.22s-.69.39-.71-.27c0-.18-.22-.18-.31-.28-.22-.28-.84.26-.87-.44A3.48,3.48,0,0,0,12.72,8c-.36,0-.76.08-.74-.5,0-.12-.2-.27-.26-.17-.3.49-.86.24-1.24.48s-.59,0-.86-.13c-.06,0-.67-.51.09-.6a2.29,2.29,0,0,0,.43-1.2c-.22-.28-.44,0-.67,0a6.5,6.5,0,0,1-3.05.56C6.27,6.38,6,6.3,6,6.12s-.18-.29-.35-.41S5,5.34,5.56,5c.07,0,.13-.09.1-.2-.18-.73,0-1.34.65-1.33,1,0,1.14-.7,1.45-1.31a.54.54,0,0,0,0-.11s0,0,0-.09a1.16,1.16,0,0,0-.89.6c-.16.24-.39.49-.72.24-.11-.08-.23-.27-.2-.37.07-.28.38-.17.6-.25A1.29,1.29,0,0,1,6.31.4,3.28,3.28,0,0,1,7.83-1.07c.17-.07.32-.33.11-.34-.48,0-.72-.51-1.19-.53-.24,0-.35,0-.36.25A.49.49,0,0,1,6-1.17a.3.3,0,0,1-.31-.17A.51.51,0,0,1,5.78-2a3.16,3.16,0,0,0,.63-1.44c.13-.57.37-1,1.06-1C6.78-5,6.78-5,7.32-5.54a.73.73,0,0,0-.08-.09c-.2-.09-.46.3-.61,0a.58.58,0,0,1,.25-.73,1.31,1.31,0,0,0,.33-.44A4.08,4.08,0,0,1,8.42-8a5.89,5.89,0,0,1,1.83-.69A2,2,0,0,1,12-8.5c.2.13.26,0,.36-.09A12.86,12.86,0,0,1,14.09-10c.16-.09.27-.33.16-.44-1-1-.18-1.87.2-2.79.15-.37.48-.64.42-1.19-.07-.73.74-1.21,1-1.9.61.08.66-.52,1-.79a1,1,0,0,1,.76-.27c.94.2,1.89-.33,2.82.08.11,0,.28-.07.42-.12s.37,0,.38.19c0,.84.56.33.83.26s.91-.14.53-.77c-.08-.14-.1-.34.07-.38.82-.18.7-.93.78-1.44.13-.83.71-1.06,1.34-1.2s1.22-.35,1.7.36c.19.28.53.71,1,.28a.49.49,0,0,1,.59.06.33.33,0,0,1,0,.47c-.16.2,0,.28.12.38s.52.33.51.62c0,.64.52.85.88,1.2.11.1.19,0,.27,0a2.58,2.58,0,0,1,2.74-.31c.62.23,1.22.5,1.21,1.32,0,.13,0,.3.17.3.85,0,1.68.39,2.54.15.32-.08.69-.3.93.08S37.93-15.16,37.36-14.73Zm-12.15,31a2.66,2.66,0,0,0-.54-2.78A30.86,30.86,0,0,1,21.4,8.74c-.19-.36-.36-.81-.94-.57-.1.05-.2,0-.26-.13s-.12-.47-.42-.31-.16.41-.08.66c.29.9,1,1.55,1.3,2.49C21.65,13.19,23.43,14.67,25.21,16.25ZM24.59,4.86c-.11-.34-.5-.73-.07-.89s.27-.31.28-.5a2.5,2.5,0,0,0-.72-1.63c-.14-.19-.45-.24-.5,0a11.21,11.21,0,0,1-.82,2.45c-.08.19,0,.37.23.48s.32.2.46,0C23.82,4.35,24.18,4.37,24.59,4.86Zm.5,7.32c-.05-.58.13-1.23-.19-1.33-.59-.19-.35-.49-.28-.78a.45.45,0,0,0-.12-.52,3.34,3.34,0,0,0-2.3-1A16.45,16.45,0,0,0,25.09,12.18Zm4.43-7.92c-.4.2-.21.53-.3.77a1.51,1.51,0,0,0-1.31.89.83.83,0,0,0,.48.94c.18.08.4.25.5,0,.24-.52.79-.81,1-1.38s-.17-.66-.33-1C29.49,4.48,29.52,4.38,29.52,4.26Zm-9.16,7.06a14.11,14.11,0,0,0-1.43-2.63C18,10.1,18.29,10.57,20.36,11.32Zm8.43-1.44c-.09,0-.25.08-.3.17a7,7,0,0,0-.76,1.72c-.07.28.19.38.4.35a.8.8,0,0,0,.63-.45c.23-.42.17-.92.47-1.34C29.39,10.09,29,10,28.79,9.88ZM15,5.84c.31.32.33.58-.1.76s-.44-.08-.5-.36A.26.26,0,0,0,14,6c-.11,0-.14.13-.08.19.39.4.55,1,1,1.29.12.09.3.23.39,0,.17-.38.63-.66.54-1.11S15.37,5.93,15,5.84Zm12,6.77a4.85,4.85,0,0,0-.24,2.48,12.94,12.94,0,0,0,1.09-1.3c.1-.18.18-.5,0-.49C27.3,13.33,27.28,12.81,27,12.61Z"/><path class="cls-2" d="M141.37,24.13a4.72,4.72,0,0,0,1.4-.43c2.86-1.57,8.54-7.56,9.39-8.38"/><path class="cls-3" d="M140.39,23.11l0-.35a.07.07,0,0,0-.07-.08l-4-.28a.08.08,0,0,0-.08.07l0,.35-1.59-.11,0,.76,6.94.48,0-.76Zm-4-.55,3.84.26,0,.28-3.84-.27Z"/><path class="cls-3" d="M142.26,23.94l-.72-.05h-.09l-3.31-.23H138l-3.31-.23h-.08l-.72-.05a.08.08,0,0,0-.08.07l0,.41a.08.08,0,0,0,.07.08l.72,0-.14,2,.31,0v.15l-.31,0v.21l3.39.23h.15l3.4.24v-.2l-.31,0v-.14l.31,0,.14-2,.72.05a.08.08,0,0,0,.08-.07l0-.41A.08.08,0,0,0,142.26,23.94Zm-7.69-.12-.64-.05v-.25l.65,0Zm7.58.52-.64,0,0-.26.64.05Z"/><path class="cls-3" d="M130.4,24.72l0-.35a.08.08,0,0,0-.08-.07l-4,.43a.06.06,0,0,0-.06.08l0,.35-1.57.17.08.76,6.91-.74-.08-.76Zm-4,.15,3.83-.41,0,.28-3.83.41Z"/><path class="cls-3" d="M132.43,25.48l-.71.07h-.09l-3.3.36h-.15l-3.3.35h-.08l-.72.08s-.07,0-.06.08l0,.41a.06.06,0,0,0,.08.06l.72-.07.21,2,.31,0,0,.14-.31,0,0,.2,3.38-.36.15,0,3.39-.36,0-.2-.3,0,0-.14.31,0-.21-2,.71-.08a.08.08,0,0,0,.07-.08l0-.41A.08.08,0,0,0,132.43,25.48Zm-7.59,1.22-.64.07,0-.26.64-.07Zm7.56-.81-.64.07,0-.26.64-.07Z"/><path class="cls-3" d="M53.15,23l-.72,0h-.09L49,22.72h-.15l-3.31-.19h-.09l-.71,0a.07.07,0,0,0-.08.07l0,.4a.08.08,0,0,0,.07.08l.72,0-.11,2,.31,0v.14l-.31,0v.2l3.39.2h.15l3.4.2v-.21H52v-.15l.31,0,.12-2,.72,0a.08.08,0,0,0,.08-.07l0-.41A.08.08,0,0,0,53.15,23Zm-7.69,0-.64,0v-.26l.65,0Zm7.59.44-.64,0v-.25l.64,0Z"/><path class="cls-3" d="M59.83,28.46l0-.35a.08.08,0,0,0-.08-.08l-4-.23a.08.08,0,0,0-.08.07l0,.35-1.58-.09-.05.76,7,.4,0-.76Zm-4-.51,3.84.23,0,.27-3.84-.22Z"/><path class="cls-3" d="M61.7,29.54l-.71,0H60.9l-3.31-.19h-.15l-3.31-.19H54l-.72,0s-.07,0-.08.07l0,.4a.08.08,0,0,0,.07.08l.72,0-.12,2,.31,0v.14l-.31,0,0,.2,3.4.2h.15l3.4.19v-.2l-.31,0V32l.31,0,.11-2,.72.05a.08.08,0,0,0,.08-.08l0-.4A.08.08,0,0,0,61.7,29.54ZM54,29.5l-.65,0,0-.25.64,0Zm7.59.44-.65,0,0-.25.64,0Z"/><path class="cls-3" d="M122.94,33.17l-.72,0h-.08l-3.32.19h-.15l-3.31.19h-.08l-.72,0a.07.07,0,0,0-.07.08l0,.4a.07.07,0,0,0,.08.07l.72,0,.12,2,.31,0v.14l-.31,0,0,.2,3.39-.19H119l3.4-.2v-.2l-.31,0v-.15h.31l-.12-2,.72,0a.07.07,0,0,0,.07-.08l0-.41A.08.08,0,0,0,122.94,33.17ZM115.3,34l-.64,0,0-.25.65,0Zm7.59-.44-.65,0v-.25l.64,0Z"/><path class="cls-3" d="M72.61,36.15h-8.4a.09.09,0,0,0-.08.08v.4a.09.09,0,0,0,.08.08h.72v2h.31v.14h-.31v.2h7v-.2h-.32v-.14h.32v-2h.72a.08.08,0,0,0,.07-.08v-.4A.08.08,0,0,0,72.61,36.15Zm-7.68.41h-.64V36.3h.64Zm7.6,0h-.64V36.3h.64Z"/><path class="cls-4" d="M94.25,51l-.42.44c-.19.2-.37.4-.56.59a.52.52,0,0,0-.14.45A6,6,0,0,1,93,54.56,3.59,3.59,0,0,0,93,55a.27.27,0,0,0,0,.15,1.38,1.38,0,0,1,0,.7.26.26,0,0,0,0,.15.64.64,0,0,1,0,.49.14.14,0,0,1-.12.1l-.23,0c-.07,0-.14,0-.19,0s0,0-.06,0a.26.26,0,0,1-.17.14,2.57,2.57,0,0,1-1.48.06c-.13,0-.14-.1-.13-.2a.36.36,0,0,1,.24-.28,2,2,0,0,0,.6-.32.16.16,0,0,0,.07-.19,1,1,0,0,1,.1-.7.77.77,0,0,0,.06-.3,10.17,10.17,0,0,0,0-1.83,7.32,7.32,0,0,1,0-.81,1.08,1.08,0,0,1,.19-.65c.27-.4.49-.84.73-1.26a6.37,6.37,0,0,1,.56-.8s.06,0,0-.07,0,0-.07,0c-.18,0-.3,0-.33-.23a.28.28,0,0,0-.06-.14c0,.2-.22.21-.37.27-.51.17-1.05.24-1.57.36a.17.17,0,0,0-.14.12v0c-.07.15-.09.33-.28.42s-.1.11-.16.16,0,0-.06,0-.11.06-.14.12c-.19.42-.38.83-.56,1.25s-.27.71-.39,1.07a.3.3,0,0,0,.19.4l.47.19c.07,0,.08,0,0,.11a1.73,1.73,0,0,1-1.86.87.8.8,0,0,1-.5-.31.67.67,0,0,1-.05-.67,2.73,2.73,0,0,1,.34-.6.09.09,0,0,1,.12,0l.49.15a.24.24,0,0,0,.35-.16c.37-.89.76-1.78,1.16-2.66a.12.12,0,0,0,0-.14c-.08-.11-.07-.15,0-.25a3.82,3.82,0,0,0,.34-.36,1.44,1.44,0,0,0,.2-.39c.24-.51.47-1,.71-1.55a.17.17,0,0,0,0-.18,1.25,1.25,0,0,0-.08-.12.34.34,0,0,1-.09-.36,2,2,0,0,1,.08-.45c-.14.1-.21,0-.28-.06s-.16,0-.23-.09,0,0-.07,0,0,0-.08,0-.12.07-.17,0a.82.82,0,0,0-.29-.37c-.05,0-.08,0-.12,0a.27.27,0,0,1-.25.11c-.1,0-.13-.06-.1-.14l0,0a.24.24,0,0,0,0-.34,1,1,0,0,1-.13-.32,1.09,1.09,0,0,0-.12-.36.11.11,0,0,1,0-.1,1.16,1.16,0,0,1,1.11-.87,1.13,1.13,0,0,1,.79.42.17.17,0,0,0,.08.06c.09,0,.12.05.07.12s0,.1,0,.15a2.16,2.16,0,0,1,.22.36.13.13,0,0,0,.06.07c.09.08.1.07.16,0a1.35,1.35,0,0,1,.41-.38.92.92,0,0,1,.59-.06.33.33,0,0,0,.17,0l.5-.17a1.32,1.32,0,0,1,.39-.06.17.17,0,0,1,.18.15,2.32,2.32,0,0,1,0,.79.12.12,0,0,0,.06.16,5.54,5.54,0,0,1,1.18,1.14l.69.8a.12.12,0,0,1,0,.17l-.23.28c0,.05,0,.09,0,.14a2,2,0,0,1,0,1.75.47.47,0,0,0,0,.17A7.59,7.59,0,0,1,95.46,51a.28.28,0,0,0,0,.18l.09.21a.31.31,0,0,1,0,.31s0,.07,0,.1a2.39,2.39,0,0,1,.4,1.28,2.25,2.25,0,0,1,0,.44.27.27,0,0,0,0,.2,2.73,2.73,0,0,1,.17,1,1,1,0,0,0,0,.3.28.28,0,0,1-.16.34.53.53,0,0,1-.25,0,.74.74,0,0,1-.53-.17.3.3,0,0,0-.23,0,1,1,0,0,1-.67-.14.3.3,0,0,1-.17-.37.29.29,0,0,1,.35-.18h.13c.15,0,.16,0,.13-.16a.59.59,0,0,1,0-.19l.06-.52a.26.26,0,0,0,0-.15,6.39,6.39,0,0,1-.38-1.36c0-.28-.13-.55-.17-.83ZM90.7,49.19a1,1,0,0,0,.51-.21l.42-.3s.1,0,.09-.09,0-.14-.11-.17-.11-.08-.13-.16a2.6,2.6,0,0,0-.14-.46Z"/><path class="cls-4" d="M105.88,28.73a.59.59,0,0,0-.06-.16,1,1,0,0,1,.5-1.29.86.86,0,0,1,1,.41,2.74,2.74,0,0,1,.23.53.22.22,0,0,0,.16.16,1.33,1.33,0,0,1,.68.36c.18.2.45.34.64.53.4.39.76.8,1.15,1.2a3.47,3.47,0,0,0,.44.31,4,4,0,0,1,.92,1,.94.94,0,0,0,.91.4.28.28,0,0,1,.21.08.36.36,0,0,0,.34.08l2.34-.5c.29-.07.59-.12.89-.17s.22-.08.17-.25a.63.63,0,0,1,.57-.87l1-.21a.33.33,0,0,1,.42.28l.24,1.4a.36.36,0,0,1-.27.46c-.38.11-.78.22-1.17.3s-.61-.16-.66-.54,0-.26-.29-.21l-3.18.63a1.47,1.47,0,0,0-.41.18s0,.09,0,.13a.14.14,0,0,1-.11,0,1.41,1.41,0,0,0-.76-.08l-3.38.72c-.27.06-.27.07-.23.35.09.56.15,1.12.23,1.68a6.38,6.38,0,0,0,.15.76,1.51,1.51,0,0,1-.06.87,3.36,3.36,0,0,0-.13.89,20.68,20.68,0,0,0,0,2.08.94.94,0,0,0,.3.55,1.7,1.7,0,0,0,.71.42,1.09,1.09,0,0,1,.45.28c.1.08,0,.27-.14.27a3.07,3.07,0,0,1-.68,0c-.41-.06-.81-.15-1.21-.23l-.23-.07c-.13,0-.1-.13-.07-.24a1.33,1.33,0,0,0,.15-.54,13.93,13.93,0,0,0-.25-2.58,2.18,2.18,0,0,1-.06-.72,2.14,2.14,0,0,0-.21-1,4.14,4.14,0,0,1-.21-.59l-.33-1.1a.81.81,0,0,0-.14-.19c0,.17-.11.29-.13.41-.09.69-.15,1.37-.25,2.06a4.17,4.17,0,0,1-.2.75c0,.08-.12.14-.17.22a.4.4,0,0,0-.09.17c-.16.62-.31,1.23-.45,1.85a1.5,1.5,0,0,0,0,.42,2.4,2.4,0,0,0,0,.28.39.39,0,0,0,.08.22c.22.22.46.42.69.64a.86.86,0,0,1,.13.23.65.65,0,0,1-.23.09c-.29,0-.58,0-.87-.05s-.47-.27-.7-.43a.16.16,0,0,1,0-.12,4,4,0,0,0,.28-1.65c0-.49,0-1,0-1.49a.41.41,0,0,1,0-.11c.08-.41.16-.81.23-1.22a.29.29,0,0,0,0-.13c0-.27,0-.53,0-.8s0-.78,0-1.17-.06-.79-.1-1.18a.29.29,0,0,0-.07-.12c-.22-.19-.45-.37-.67-.57a.34.34,0,0,1-.09-.22,2.9,2.9,0,0,1,.21-1.09c.12-.3.2-.61.29-.92,0-.05,0-.1,0-.14l.51-1a1.32,1.32,0,0,1,.78-.59Zm5.8,3.86-.08-.11c-.25-.21-.48-.43-.73-.63l-.64-.49-1.61-1.16c-.24-.17-.31-.13-.41.14a.43.43,0,0,0,0,.07,4.12,4.12,0,0,0-.47,1.49.56.56,0,0,0,.11.48s0,.07,0,.09c-.16.34.12.61.11.94Z"/><path class="cls-4" d="M42.87,18.48c-.08.38-.18.76-.25,1.14s-.13.86-.2,1.3a0,0,0,0,1,0,0A14.7,14.7,0,0,0,42,23.22a1,1,0,0,0,0,.24c0,.22,0,.45,0,.67a2.07,2.07,0,0,0,0,.5c.08.34,0,.42-.33.39a3.65,3.65,0,0,1-.46-.07c-.13,0-.2-.12-.16-.24a3.34,3.34,0,0,1,.17-.44,2,2,0,0,0,.17-.4A7.8,7.8,0,0,0,41.31,22c0-.25,0-.51,0-.76a5.47,5.47,0,0,1,.12-1.15.13.13,0,0,0,0-.09,1,1,0,0,1-.06-.62c0-.12-.06-.24-.06-.35a4.11,4.11,0,0,0-.16-.93,3.2,3.2,0,0,1-.09-.62,4.07,4.07,0,0,1,0-.49c0-.24,0-.47,0-.7a2.35,2.35,0,0,1,0-.26,9.51,9.51,0,0,0-.1-1.77,2.13,2.13,0,0,0-.1-.49.19.19,0,0,0-.17-.12c-.31,0-.61,0-.92,0s-.23,0-.17.25a.15.15,0,0,1,0,.07.35.35,0,0,0-.29.35c0,.23,0,.46,0,.69,0,1.11,0,2.22,0,3.33,0,1.59,0,3.19,0,4.79,0,.22,0,.45,0,.67s0,.18.17.19a.85.85,0,0,1,.39.08.67.67,0,0,1,.31.34,10.43,10.43,0,0,1,.21,1.14H38.59c-.1-.41-.21-.79-.28-1.17s.12-.52.47-.47.24,0,.25-.21c0-1,.06-2.05.08-3.08,0-.56,0-1.11,0-1.67,0-1.58,0-3.15,0-4.72,0-.08-.08-.16-.11-.25l-.09-.36a.7.7,0,0,1,.18-.74.37.37,0,0,1,.47-.13.68.68,0,0,0,.87-.12,1.44,1.44,0,0,1,.42-.24c.24-.12.41-.34.7-.39.13,0,.16-.27.07-.42s-.15-.26-.24-.38a.76.76,0,0,1,.1-.94.9.9,0,0,1,1-.09,1.07,1.07,0,0,1,.35,1,.26.26,0,0,0,.05.21.8.8,0,0,0,.56.31,1,1,0,0,1,.86.43c.3.35.6.71.88,1.07a.71.71,0,0,1,.08.62,10.26,10.26,0,0,1-.68,1.72,3.67,3.67,0,0,1-.4.65s0,.06,0,.08a4.1,4.1,0,0,0,.06.49c.06.27.17.53.21.8.06.43.07.86.12,1.29s.11.85.14,1.28c0,.24,0,.49,0,.73,0,.73.06,1.46.14,2.18a1,1,0,0,0,.45.86c.21.13.45.24.66.37a4.63,4.63,0,0,1,.46.31.14.14,0,0,1,0,.14.19.19,0,0,1-.13.07l-.63,0-1.36-.22a.62.62,0,0,1-.22-.1.69.69,0,0,0,.1-.17,1.41,1.41,0,0,0,.07-.41,5.28,5.28,0,0,0-.31-1.47c-.09-.3-.14-.62-.22-.92,0-.1-.08-.2-.12-.3a1.17,1.17,0,0,1-.06-.2c0-.4-.06-.8-.11-1.2a4,4,0,0,0-.17-.49c-.06-.19-.09-.4-.15-.59a1.55,1.55,0,0,0-.14-.29ZM44,13.3a6.9,6.9,0,0,0,.06,2,.35.35,0,0,0,.13-.08.86.86,0,0,0,.13-.2c.12-.41.24-.82.35-1.23a.24.24,0,0,0-.09-.18C44.4,13.53,44.21,13.43,44,13.3Z"/><path class="cls-4" d="M74.28,29.65a2.5,2.5,0,0,1,1.89-.39,4.59,4.59,0,0,1,2.26,1.06.38.38,0,0,1,.14.24c0,.17.08.23.21.3A.55.55,0,0,1,79,31q.34.71.66,1.44c.15.37.26.75.4,1.12a.23.23,0,0,0,.12.15.3.3,0,0,1,0,.49c-.11.08-.22.18-.34.25s-.23.15-.36,0a.22.22,0,0,0-.21,0c-.37.17-.74.34-1.11.53a.23.23,0,0,0-.1.2,3.94,3.94,0,0,0,.19.77,3.14,3.14,0,0,1,.27,1.31,9.2,9.2,0,0,0,.31,2.45.31.31,0,0,1-.08.26,1.68,1.68,0,0,1-1.4.34c-.11,0-.21,0-.23-.17a.26.26,0,0,1,.14-.29,4.66,4.66,0,0,0,.47-.3c.08-.07.18-.15.19-.24a2.13,2.13,0,0,0,0-.83c-.17-.73-.39-1.45-.6-2.17a.2.2,0,0,0-.15-.12c-.16,0-.19-.1-.21-.22s0-.25,0-.4l-1.68.84a.19.19,0,0,0-.09.15c0,.42,0,.84,0,1.26A11.38,11.38,0,0,0,75.52,39c0,.23,0,.28-.22.32l-1.15.17-.7.07a.23.23,0,0,1-.27-.22c0-.16.08-.22.2-.28l.9-.42a.5.5,0,0,0,.25-.36,2.78,2.78,0,0,0-.07-1.14c-.08,0-.15.1-.22.1a1.8,1.8,0,0,1-.21-.08s-.06,0-.09,0l-2.27,1.43a2,2,0,0,1-.25.14l-.68.22a1.53,1.53,0,0,1-.36.07L69,39l-.18,0v0s.08-.08.12-.07a1,1,0,0,0,.6-.25.5.5,0,0,1,.28-.1c.39,0,.78,0,1.18,0a.69.69,0,0,0,.28-.08L73.68,37c.12-.07.29-.11.22-.32a.24.24,0,0,1,0-.1,1.35,1.35,0,0,0,.17-1.17c-.24,0-.25-.11-.24-.28s0-.57,0-.86a3.94,3.94,0,0,0,0-.69,4.83,4.83,0,0,0-.27-1.09,4.1,4.1,0,0,1-.37-.93c0-.11-.08-.17-.19-.14s-.15,0-.18-.13a1.2,1.2,0,0,0-.13-.31c-.1-.21-.27-.4-.18-.66a1.66,1.66,0,0,1,.19-.48.72.72,0,0,1,1-.32c.14.06.26.13.41.21ZM77,35.31c.06,0,.09-.19.09-.29,0-.28,0-.56,0-.84s0-.54.07-.81a5.13,5.13,0,0,0,0-.52c-.07,0-.11.06-.14.09-.34.36-.69.72-1,1.1a8,8,0,0,0-.71.94.72.72,0,0,0-.07.46,5.19,5.19,0,0,0,.17.71C75.85,35.87,76.42,35.6,77,35.31Zm1.3-.62.4-.19.32-.16c.13-.08.31-.14.36-.25a.83.83,0,0,0,0-.82c-.18-.3-.33-.62-.49-.93l-.07,0C78.74,33.15,78.29,33.85,78.27,34.69Zm-3.69-1.44c.18-.31,0-1.22.16-1.5-.21,0-.08.55-.33.5Z"/><path class="cls-4" d="M150.37,26.25c-.28-.19-.62-.69-.86-.88s-.34-.77-.71-1c-.18-.13.08-.4,0-.54-.29-.44-.15-.93-.22-1.39h0a6.65,6.65,0,0,1,3-5.61,10.06,10.06,0,0,0,1.06-.75c.08-.07.22-.11.18-.25s-.19-.11-.31-.11c-.4,0-.57-.16-.49-.56s.27-.84,0-1.27a.11.11,0,0,1,0-.08c0-.12,0-.23.15-.27a.28.28,0,0,1,.31.08c.06.07.11.15.18.25.09-1.22.18-2.4.19-3.59a.9.9,0,0,0-.19-.66.67.67,0,0,1,.11-1,.51.51,0,0,0,.13-.16,1.26,1.26,0,0,1,1.05-.66c2.3-.17,4.59-.28,6.89-.34a1.63,1.63,0,0,1,1.11.32,1.55,1.55,0,0,0,.64.29c.37.06.44.29.17.55a.52.52,0,0,0-.16.53l.84,4.42A.5.5,0,0,0,164,14c.87-.06,1.74-.07,2.61-.08.36,0,.51-.13.5-.5,0-1.68,0-3.36-.05-5a.53.53,0,0,0-.33-.57c-.31-.12-.18-.3,0-.41a1.27,1.27,0,0,1,.94-.09c.28.07.49.2.23.52a.52.52,0,0,0-.1.36c0,1.77.07,3.53.1,5.3,0,.3.14.42.44.42s.43-.12.42-.43c0-1.32,0-2.64,0-3.95,0-.17,0-.37.14-.46s.28-.37.28-.63c0-.77,0-1.54,0-2.31,0-.34.25-.53.47-.38s.13.27.14.42l.06,2.28c0,.16,0,.4.14.45.52.18.42.61.44,1,.06,1.14.08,2.28.14,3.41,0,.6.28.76.85.61a.68.68,0,0,0,.22-.12.5.5,0,0,1,.56,0,1,1,0,0,0,.64.15l1.43,0a3.19,3.19,0,0,0,1.65-.12.44.44,0,0,1,.37,0,1.58,1.58,0,0,0,.76.18,10,10,0,0,1,1.34.13.67.67,0,0,1,.48.31,4.54,4.54,0,0,1,.76,2.33c0,1-.06,2-.08,3,.07-.56.44-.65.89-.64s1.2,0,1.81,0,.73.15.66.71c-.08.73-.22,1.46-.35,2.2a.53.53,0,0,1-.55.42,10.58,10.58,0,0,0-1.13.15.43.43,0,0,0-.29.7.56.56,0,0,1,0,.66,1.79,1.79,0,0,0-.25,1.32.41.41,0,0,1-.37.55.57.57,0,0,0-.46.38l-7.8.08c.05-.14-.07-.21-.17-.26a.87.87,0,0,0-.28,0,.36.36,0,0,1-.31-.39c0-.77-.09-.84-.86-.71-.46.09-.6,0-.68-.48,0-.1,0-.2,0-.29,0-.27-.16-.37-.42-.35a9.19,9.19,0,0,0-2.12.2c-.68.23-1.48-.12-2.05.5,0,.05-.19,0-.29,0l-2.56.13c-.15,0-.33,0-.39.19a4.2,4.2,0,0,1-.88,1.5Zm3.95-13.45c.12-.23.14-.57.37-.78a1.1,1.1,0,0,0,.32-1.11c-.08-.48.05-.72.41-.83a.77.77,0,0,1,1,.4.39.39,0,0,0,.19.21c.21.09.22.15,0,.3a.58.58,0,0,0,0,.92,7.39,7.39,0,0,0,1.22,1.15c.16.12.32.35.55.2s.5-.35.5-.68c0-.83,0-1.66,0-2.49,0-.19-.08-.32-.3-.32-1.33,0-2.66.05-4,.15a.27.27,0,0,0-.27.28C154.32,11.07,154.32,12,154.32,12.8ZM162,9.52c-.22.56-.37,1.13-.63,1.66a1.94,1.94,0,0,0-.29,1.62s0,0-.07.06c-.19-.16-.14-.44-.29-.64,0,.29,0,.55,0,.82,0,.7,0,.69.72.65a3,3,0,0,1,.42,0c.4,0,.52-.16.48-.53C162.23,11.94,162.13,10.73,162,9.52Zm5.66,13.66c.37,0,.65-.06.92-.07.69,0,.66-.05.77-.71.07-.43-.11-.59-.48-.66-.55-.09-.87,0-.95.41s-.17.46-.47.49c-.11,0-.22.06-.22.2a.31.31,0,0,0,.23.32C167.56,23.18,167.66,23.17,167.67,23.18ZM162.3,8.83a.49.49,0,0,0-.13.46c.08.7.17,1.39.24,2.09s.13,1.28.2,1.92c0,.2.1.36.35.31s.2-.22.17-.39-.07-.53-.11-.79C162.83,11.24,162.62,10.06,162.3,8.83Zm-1.75,1.39a3,3,0,0,0,.07.74c0,.19.14.24.28.08a3.74,3.74,0,0,0,.65-1.13c0-.09.06-.22-.08-.23a2,2,0,0,0-.82,0C160.45,9.78,160.59,10.06,160.55,10.22Z"/><polygon class="cls-1" points="-2.43 21.91 19.8 21.91 22.75 23.7 28.14 22.8 38.27 22.8 45.3 24.52 48.22 24.92 52.55 25.59 55.22 30.99 60.49 31.88 62.85 36.31 62.85 38.93 72.93 39.07 82.86 41.09 84.66 47.14 85 54.25 86.24 55.33 92.72 55.17 98.94 55.17 99.34 48.97 101.97 41.28 106.98 40.91 112.09 40.75 112.2 39.13 113.17 36.07 113.78 35.95 116.99 35.55 122.48 35.71 123.29 28.81 130.23 28.15 133.8 26.25 140.12 25.83 141.7 26.05 169.52 24.85 175.73 24.85 200 25.34 200 103.52 -2.43 103.52 -2.43 21.91"/><text class="cls-5" transform="translate(134.98 42.81)"><tspan class="cls-6">T</tspan><tspan class="cls-7" x="1.66" y="0">r</tspan><tspan class="cls-8" x="2.87" y="0">acto</tspan><tspan class="cls-9" x="9.33" y="0">r</tspan><tspan x="10.53" y="0">es</tspan><tspan class="cls-10"><tspan x="0" y="3.6">Las g</tspan><tspan class="cls-11" x="7.34" y="3.6">r</tspan><tspan x="8.44" y="3.6">andes maquinarias poco </tspan><tspan x="0" y="7.2">podían hace</tspan><tspan class="cls-12" x="17.17" y="7.2">r</tspan><tspan x="18.23" y="7.2" xml:space="preserve"> en e</tspan><tspan class="cls-13" x="25.24" y="7.2">l</tspan><tspan x="25.97" y="7.2" xml:space="preserve"> bar</tspan><tspan class="cls-14" x="31.49" y="7.2">r</tspan><tspan x="32.56" y="7.2">o a</tspan><tspan class="cls-15" x="36.88" y="7.2">r</tspan><tspan x="37.95" y="7.2">cil</tspan><tspan class="cls-16" x="41.08" y="7.2">l</tspan><tspan x="41.89" y="7.2">oso </tspan><tspan x="0" y="10.8">de</tspan><tspan class="cls-13" x="3.49" y="10.8">l</tspan><tspan class="cls-17" x="4.22" y="10.8"> </tspan><tspan x="5.1" y="10.8">taco sin hundi</tspan><tspan class="cls-18" x="24.98" y="10.8">r</tspan><tspan x="26.07" y="10.8">s</tspan><tspan class="cls-19" x="27.58" y="10.8">e</tspan><tspan x="29.24" y="10.8">. </tspan><tspan class="cls-20" x="30.84" y="10.8">P</tspan><tspan x="32.57" y="10.8">o</tspan><tspan class="cls-12" x="34.32" y="10.8">r</tspan><tspan x="35.38" y="10.8" xml:space="preserve"> el</tspan><tspan class="cls-21" x="38.82" y="10.8">l</tspan><tspan class="cls-22" x="39.63" y="10.8">o</tspan><tspan x="41.32" y="10.8">, sus </tspan><tspan x="0" y="14.4">labo</tspan><tspan class="cls-14" x="6.03" y="14.4">r</tspan><tspan x="7.09" y="14.4">es e</tspan><tspan class="cls-11" x="12.89" y="14.4">r</tspan><tspan x="13.98" y="14.4">an principalme</tspan><tspan class="cls-9" x="34.92" y="14.4">n</tspan><tspan x="36.67" y="14.4">te de </tspan><tspan x="0" y="18">t</tspan><tspan class="cls-11" x="1.13" y="18">r</tspan><tspan x="2.23" y="18">anspo</tspan><tspan class="cls-23" x="10.74" y="18">r</tspan><tspan x="11.83" y="18">te de</tspan><tspan class="cls-13" x="19.06" y="18">l</tspan><tspan x="19.79" y="18" xml:space="preserve"> bar</tspan><tspan class="cls-14" x="25.31" y="18">r</tspan><tspan class="cls-22" x="26.37" y="18">o</tspan><tspan x="28.07" y="18">.</tspan></tspan></text><text class="cls-5" transform="translate(18.97 44.72)"><tspan class="cls-24">T</tspan><tspan x="1.57" y="0">ar</tspan><tspan class="cls-11" x="4.52" y="0">r</tspan><tspan x="5.72" y="0">os</tspan><tspan class="cls-25"><tspan class="cls-12" x="0" y="3.6">A</tspan><tspan class="cls-26" x="1.73" y="3.6"> </tspan><tspan class="cls-27" x="2.55" y="3.6">f</tspan><tspan x="3.46" y="3.6">a</tspan><tspan class="cls-28" x="5.03" y="3.6">l</tspan><tspan x="5.76" y="3.6">t</tspan><tspan class="cls-29" x="6.79" y="3.6">a</tspan><tspan x="8.29" y="3.6" xml:space="preserve"> de instrume</tspan><tspan class="cls-30" x="25.61" y="3.6">n</tspan><tspan x="27.3" y="3.6">tos adecuados, </tspan><tspan x="0" y="7.2">e</tspan><tspan class="cls-31" x="1.63" y="7.2">l</tspan><tspan x="2.29" y="7.2" xml:space="preserve"> bar</tspan><tspan class="cls-31" x="7.59" y="7.2">r</tspan><tspan x="8.57" y="7.2">o se depositó en</tspan><tspan class="cls-32" x="31.12" y="7.2"> </tspan><tspan x="31.93" y="7.2">tar</tspan><tspan class="cls-31" x="35.61" y="7.2">r</tspan><tspan x="36.59" y="7.2">os de </tspan><tspan x="0" y="10.8">pi</tspan><tspan class="cls-30" x="2.38" y="10.8">n</tspan><tspan x="4.07" y="10.8">tu</tspan><tspan class="cls-33" x="6.83" y="10.8">r</tspan><tspan class="cls-29" x="7.86" y="10.8">a y</tspan><tspan class="cls-34" x="11.55" y="10.8"> </tspan><tspan class="cls-35" x="12.43" y="10.8">l</tspan><tspan x="13.16" y="10.8">eche que </tspan><tspan class="cls-36" x="26.63" y="10.8">l</tspan><tspan x="27.37" y="10.8">uego e</tspan><tspan class="cls-33" x="36.45" y="10.8">r</tspan><tspan class="cls-29" x="37.48" y="10.8">a</tspan><tspan x="38.98" y="10.8"> </tspan><tspan x="0" y="14.4">l</tspan><tspan class="cls-37" x="0.75" y="14.4">l</tspan><tspan class="cls-38" x="1.48" y="14.4">ev</tspan><tspan x="4.49" y="14.4">ados </tspan><tspan class="cls-29" x="11.91" y="14.4">a</tspan><tspan x="13.41" y="14.4" xml:space="preserve"> l</tspan><tspan class="cls-29" x="15.03" y="14.4">a</tspan><tspan x="16.53" y="14.4" xml:space="preserve"> cim</tspan><tspan class="cls-29" x="22.5" y="14.4">a</tspan><tspan x="24" y="14.4" xml:space="preserve"> de</tspan><tspan class="cls-31" x="28.28" y="14.4">l</tspan><tspan class="cls-22" x="28.94" y="14.4"> </tspan><tspan x="29.76" y="14.4">tac</tspan><tspan class="cls-39" x="33.97" y="14.4">o</tspan><tspan x="35.62" y="14.4">.</tspan></tspan></text></g></svg>