<svg xmlns="http://www.w3.org/2000/svg" viewBox="0 0 200 100"><defs><style>.cls-1{fill:#2bbba0;}.cls-2{fill:#9b9b9b;}.cls-3{fill:#708088;}.cls-4{fill:#ccc;}</style></defs><title>6</title><g id="Capa_2" data-name="Capa 2"><rect class="cls-1" x="93.37" y="43.24" width="13.88" height="10.31"/><polygon class="cls-1" points="79.34 15.55 106.28 43.6 105.32 44.24 79.3 15.84 79.34 15.55"/><rect class="cls-2" x="93.31" y="27.38" width="1.15" height="26.03" transform="translate(-5.11 14.99) rotate(-8.89)"/><rect class="cls-2" x="106.67" y="27.33" width="1.15" height="26.03" transform="translate(10.43 -20.95) rotate(11.72)"/><polygon class="cls-2" points="107.16 40.51 107.04 40.82 107.16 41.12 107.25 41.29 107.25 41.55 100.93 41.55 93.14 41.51 92.82 41.37 93.45 40.41 106.53 40.41 107.09 40.35 107.17 40.45 107.16 40.51"/><polygon class="cls-2" points="92.24 36.07 92.37 35.76 92.24 35.46 92.14 35.28 92.14 35.02 99.11 35.02 107.72 35.06 108.07 35.21 107.37 36.17 92.93 36.17 92.31 36.23 92.22 36.13 92.24 36.07"/><polygon class="cls-1" points="117.26 17.03 95.06 43.56 95.72 45.3 117.34 17.19 117.26 17.03"/><path class="cls-3" d="M79.55,15.4a.36.36,0,0,1-.21-.11c-.37-.3-.74-.6-1.1-.91a1.37,1.37,0,0,1-.41-.42.09.09,0,0,0-.14,0,.11.11,0,0,1-.14,0l-.22-.11h0s-2.19-1.16-3.94-1.94c-2-.87-4.84,1.88-5,2l-1.92,1.69a13.65,13.65,0,0,1-7,3.08l.07.73A14.41,14.41,0,0,0,67,16.12l1.94-1.7c.73-.71,2.9-2.42,4.16-1.86,1.72.77,3.87,1.91,3.89,1.92l.22.22a.14.14,0,0,0,.12.05l.13.05,1.56,1a.27.27,0,0,1,.14.14c0,.1.12.1.18,0l.28-.39C79.67,15.48,79.64,15.41,79.55,15.4Z"/><path class="cls-3" d="M76.79,13.58l-.12-.09-.17-.09-.23-.06-.21-.08-.17.15-.32.6-.25.51-.18.59-.44.1.11-.47.41-.79,0-.33-.08-.46-.13-.4L75,12.54l0-.15.09-.27.16-.37,0-.35h.1c.1,0,.18-.09.12-.18a1.23,1.23,0,0,1-.13-.41,1.28,1.28,0,0,0-.36-.64s-.12-.12-.19-.12-.06,0-.21-.19h-.22c-.05.16-.14.09-.23.13a1,1,0,0,0-.67.69.93.93,0,0,1-.14.36.1.1,0,0,0,0,.14.07.07,0,0,0,.11,0l.09,0-.14.92L72.91,12l-.71.25-1.1,2-.09.83-.06.34v.13l-.55,1.34.21,1.23.23.07.09.31.16.31.18.33-.09.85.25.19-.22.15-.09.72-.15.08v.36l-.22.09v.24l-.39.31V23l-.41.61-.32.32v.22l.32.36.77.32.21.08,0-.43-.09-.4.28-.36.45-.43.3-.27v.62l.28.45.21.36-.24.61.21.16,1.35.48h.52L74,25.24l-.44-.19-.31-.39,0-.21.13-.22-.1-.46.18-1.16,0-1.31,0-2.46-.15-1.23.28-1.29h1.1l1.09-.47.06-.31,0-.56.24-.49.37-.29.27-.35.08-.14Z"/><path class="cls-3" d="M133.2,24.17c0-.14,0-.28-.07-.42s-.06-.13-.16-.12a7.89,7.89,0,0,1-2.22-.15,2.2,2.2,0,0,1-1.16-.57,2.56,2.56,0,0,1-.71-1.55,7.83,7.83,0,0,1,.12-2.05,7.81,7.81,0,0,0,.14-1.44,2.93,2.93,0,0,0-.69-1.79c-.13-.15-.14-.22,0-.39s.25-.34.36-.52a1.21,1.21,0,0,0,.17-.83,1.34,1.34,0,0,1,0-.4,1,1,0,0,0-.17-.67c-.07-.13-.22-.15-.34-.21s-.18-.06-.17-.2-.06-.07-.1-.09c-.27-.18-.55-.34-.83-.49l-.07,0c-.14.06-.19-.05-.25-.14a.53.53,0,0,0-.52-.28c-.29,0-.57,0-.85,0a.18.18,0,0,1-.2-.11c-.06-.1-.1-.21-.23-.24s0,0,0,0l-.08.05c0-.07,0-.15,0-.22a1,1,0,0,1,0-.43.32.32,0,0,1,0-.09.26.26,0,0,0,0-.21s0,0,0-.05l.12-.16c.08-.09,0-.18,0-.25a.3.3,0,0,1-.08-.08.62.62,0,0,0-.28-.25l-.13,0s-.05,0-.06,0-.06-.06-.1,0h-.07a.61.61,0,0,0-.44,0,1.17,1.17,0,0,0-.6.45.21.21,0,0,1-.13.09l-.49.14c-.07,0-.09,0-.07.11a.38.38,0,0,0,.27.28.84.84,0,0,0,.31,0s0,0,0,0a.5.5,0,0,1,0,.27.88.88,0,0,0-.07.32.08.08,0,0,0,.09.1l.09,0a0,0,0,0,1,0,0s0,0,0,0,0,.12,0,.16a.24.24,0,0,1,.11.15.19.19,0,0,0,.11.16l0,0,0,0,.43,0-.15.08s0,0,0,.06a.26.26,0,0,0,0,.21.16.16,0,0,1-.08.2l-.62.41a1,1,0,0,0-.42.77c0,.06,0,.11-.07.14a.07.07,0,0,0,0,0,6.8,6.8,0,0,1-.46.6.51.51,0,0,0-.14.43c0,.1,0,.17-.13.16a.24.24,0,0,0-.2.12.35.35,0,0,1-.35.18.25.25,0,0,0-.24.11.7.7,0,0,1-.53.23l-.35,0s-.07,0-.08,0-.14,0-.23,0-.36-.23-.55-.33-.21,0-.22.11l-.37.19a.11.11,0,0,1-.13,0,.08.08,0,0,0-.13,0,1.18,1.18,0,0,1-.38.39l-1,.84a.36.36,0,0,1-.2.11c-.08,0-.11.07-.06.15a2.88,2.88,0,0,0,.26.35c.06.07.13.07.17,0a.25.25,0,0,1,.12-.13L119,16.5a.28.28,0,0,1,.12,0,.17.17,0,0,0,.12-.06c.07.06.18.07.26.12a.65.65,0,0,0,.29.07l.21,0a.45.45,0,0,1,.44.26.07.07,0,0,0,.08.05c.19,0,.29.12.42.23.35.3.65.66,1,1a3.51,3.51,0,0,0,.77.61,1.7,1.7,0,0,0,.69.19c.08,0,.12,0,.12.12,0,.38,0,.77.07,1.15,0,.11,0,.22.1.3s0,.11,0,.17v.78a.84.84,0,0,0,.11.41,1.7,1.7,0,0,1,.17.54,3.22,3.22,0,0,0,.18.86.51.51,0,0,1,0,.45.74.74,0,0,0,0,.51.18.18,0,0,1,0,.14,1.58,1.58,0,0,1-.28.3,1.43,1.43,0,0,0-.31.34.89.89,0,0,0-.08.17c-.1.28,0,.44.31.44a1.16,1.16,0,0,0,1-.5.6.6,0,0,1,.47-.29.55.55,0,0,0,.39-.2.35.35,0,0,0,0-.46,1,1,0,0,1-.13-.4,4.54,4.54,0,0,0-.09-.51.45.45,0,0,1,0-.34.28.28,0,0,0,0-.13.38.38,0,0,1,0-.15,3.75,3.75,0,0,0,.12-1.06,8,8,0,0,0,0-1.29s0,0,0-.07h0l.07.16c.17.48.43.92.55,1.41a5.75,5.75,0,0,0,.27.83,2,2,0,0,0,.13.25.75.75,0,0,1,.09.34.9.9,0,0,0,.18.59.25.25,0,0,1,0,.17.37.37,0,0,0,.14.4.89.89,0,0,1,.22.29,1.06,1.06,0,0,0,.82.53c.28,0,.44-.19.36-.48a.94.94,0,0,0-.34-.52A.32.32,0,0,1,128,24a1,1,0,0,1,0-.55.28.28,0,0,0,0-.22l-.18-.53a4,4,0,0,1-.11-.85c0-.51-.15-1-.23-1.52,0-.09,0-.18,0-.25s0-.09,0-.13c-.08-.47-.16-1-.23-1.42a.17.17,0,0,0-.08-.14s0-.06,0-.11a4.64,4.64,0,0,1,0-1.66.15.15,0,0,1,.07-.11l.34-.18c.06,0,.1,0,.14,0a1.83,1.83,0,0,1,.54.78,2.61,2.61,0,0,1,.14,1.3c-.07.66-.2,1.31-.25,2a4.2,4.2,0,0,0,.31,2.1,2.74,2.74,0,0,0,1.86,1.57,8.49,8.49,0,0,0,2.75.22C133.2,24.29,133.22,24.25,133.2,24.17Zm-9.47-6.1c-.06.2-.07.21-.28.21h-.07a1.31,1.31,0,0,1-.78-.42c-.38-.37-.75-.76-1.13-1.14-.06-.06-.06-.1,0-.13l.44-.17a2.29,2.29,0,0,0,.74-.39,2.72,2.72,0,0,0,.57-.65s0-.1.11-.12a.39.39,0,0,1,.06.18c.09.36.17.72.26,1.08a1.3,1.3,0,0,1,0,.62.36.36,0,0,0,0,.23A.94.94,0,0,1,123.73,18.07Zm4.09-3.59a.21.21,0,0,0,0,.26c0,.06,0,.13,0,.19a.89.89,0,0,0-.24.46c0,.08-.07.1-.14.09s-.19,0-.2-.06c0-.47-.06-.9-.08-1.32,0-.18,0-.18.18-.15h.11c.2,0,.38,0,.43.26h0A.16.16,0,0,1,127.82,14.48Z"/><polygon class="cls-4" points="0 17.03 8.93 17.03 44.58 18.49 48.94 17.76 57.13 17.76 62.81 19.15 65.16 19.47 68.66 20.01 70.81 24.37 76.92 26.71 80.16 29.54 85.13 30.9 91.68 33.21 93.56 37.85 94.88 52.26 95.88 53.13 101.12 53 106.14 53 106.46 38.9 108.59 32.69 112.64 32.39 117.63 28.48 125.71 24.49 131.42 22.08 134.3 20.54 139.41 20.2 140.69 20.38 163.16 19.41 168.18 19.41 199.16 19.81 199.16 100 0 100 0 17.03"/><path class="cls-4" d="M45.32,4.24a7.36,7.36,0,0,1,2.55-1.52,1.92,1.92,0,0,1,1-.16c.08,0,.17,0,.17.14a.15.15,0,0,1-.14.12,7.63,7.63,0,0,0-2.48,1,2.67,2.67,0,0,0-1.31,1.51,3.84,3.84,0,0,1-.88,1.5c.08.09.14,0,.2,0s.18-.05.21,0,0,.16-.12.17c-.86.15-1.19,1-1.79,1.42a8.23,8.23,0,0,0-1.44,1.62,3.6,3.6,0,0,0-.7,2.49A9.38,9.38,0,0,1,39.83,17a3,3,0,0,0-.26,1.45c.21,2.36.15,4.72.13,7.08,0,.47-.07.52-.55.5a6.45,6.45,0,0,0-.76,0c-.28,0-.39-.11-.37-.38,0-.83.06-1.66.17-2.48a15.43,15.43,0,0,0,.12-2.25c0-.82,0-1.64.06-2.45,0-1.62.08-3.25,0-4.86a37.87,37.87,0,0,0-.5-4.75c0-.08-.06-.17,0-.23a5.3,5.3,0,0,0-.13-2.74,18.17,18.17,0,0,0-.22-1.95,16.92,16.92,0,0,0-.91-2.53A2.37,2.37,0,0,1,36.3.41c0-.1,0-.21.09-.25s.16.07.21.14a10.19,10.19,0,0,1,.79,1.75,8.88,8.88,0,0,1,.74,2.53s0,.1,0,.11c.45.2.2.54.2.84a2.93,2.93,0,0,0,.07.72,24.84,24.84,0,0,1,.32,3c.1.8.19,1.59.3,2.39,0,.13,0,.3.19.32s.17-.15.25-.24a2.28,2.28,0,0,0,.43-2,.31.31,0,0,0-.22-.3,1.91,1.91,0,0,1-.32-.16c-.13-.09-.33-.22-.22-.37s.25,0,.36.11c.42.24.64.13.65-.35s0-1.18,0-1.77a3.63,3.63,0,0,0-.67-1.45,1.42,1.42,0,0,0-.69-.7.19.19,0,0,1-.15-.25c.06-.16.2-.1.31-.06a1,1,0,0,1,.52.36c.22.32.45.63.67.94.13,0,.12-.11.12-.18a31.07,31.07,0,0,0,.37-3.71c0-.87.7-1.23,1-1.85a.16.16,0,0,1,.14,0c.07,0,.06.11,0,.18a.27.27,0,0,1-.06.1A4.36,4.36,0,0,0,41,3c0,.32.08.46.42.33A1.33,1.33,0,0,1,42,3.2c.11,0,.26,0,.27.12s-.16.16-.27.16a2.38,2.38,0,0,0-.75.15.41.41,0,0,0-.34.38,20.67,20.67,0,0,0-.2,2.2c0,.47,0,1,0,1.43,0,.26.14.3.34.2s.43-.26.65-.39A2.07,2.07,0,0,1,43,7.06a.53.53,0,0,0,.58-.58,2,2,0,0,1,.68-1.64,4,4,0,0,0,.89-1.73c.16-.53.49-1,.68-1.53s.47-1.26.66-1.9c.05-.14.09-.37.3-.3s.13.26.09.41a32.53,32.53,0,0,1-1.24,3.47c0,.08-.11.19-.08.22C45.8,3.82,45.42,4,45.32,4.24Zm-2.44,3.2a.92.92,0,0,0-.54.12l-.92.56a1.32,1.32,0,0,0-.66,1.63A14.86,14.86,0,0,1,42.88,7.44Z"/><path class="cls-4" d="M181.41,4.43A4.18,4.18,0,0,1,182,3.12,1.24,1.24,0,0,0,182.21,2,4,4,0,0,1,182,.62c0-.43,0-.89-.63-.71,0-.1,0-.14,0-.17.19-.26.62-.28.62-.72a2.86,2.86,0,0,0-.36-1.72c-.43-.65-1-1.17-1.44-1.85-.13-.23-.42-.45-.1-.71s.51,0,.68.24.54.67.8,1,.34.28.58,0a9.87,9.87,0,0,1,2.06-2.17c.29-.19.3-.5.34-.79a4.59,4.59,0,0,1,.79-1.89,1.29,1.29,0,0,0-.27-1.32,5.79,5.79,0,0,1-1.55-1.87,2.48,2.48,0,0,1-.06-2,2.85,2.85,0,0,1,.37,1.32c.11,1,.48,1.32,1.42,1.12.06.11-.05.15-.09.22s-.58.08-.37.46a.76.76,0,0,0,1,.27l1-.69c.11-.07.23-.2.34,0s0,.25-.12.33c-.29.23-.59.44-.9.65s-.44.43-.2.74,0,.68,0,1c0,.07,0,.14.05.27a3.92,3.92,0,0,0,.88-1c.06-.1.14-.19.26-.12a.21.21,0,0,1,.09.29,2.52,2.52,0,0,1-.44.79c-.17.17-.36.27-.23.53s.15.34.35.3A.76.76,0,0,0,187.6-8a2.35,2.35,0,0,1,.15-.47c.22-.35.62-.3.87.12-.21,0-.52-.21-.61.11s.24.06.3.19,0,.08,0,.1c-.7.5-.69.49-.06,1.1.23.22.54.35.62.7,0,.12.15.28,0,.36-.58.34-.15.49.13.6s.4.42.45.74c-.23,0-.26-.16-.38-.23-.28-.19-.5-.56-.95-.3-.12.07-.37,0-.53-.1A3.28,3.28,0,0,0,186-5.33a1,1,0,0,0-.82.85c0,.34.11.5.47.35l.42-.16c.09,0,.19,0,.26,0a1.23,1.23,0,0,1-.41,1,2.4,2.4,0,0,0-.69.21c-.26.12-.46.25-.37.59,0,.06,0,.19,0,.21-.66.28-.27.55,0,.8-.16.19-.3.09-.43,0s-.38,0-.39.22-.18.38-.36.52-.42.28-.43.55-.13.67.13.84.37-.22.58-.32c.39-.19.76-.39,1.15-.57a2.29,2.29,0,0,0,1.61-1.94c.31.44.33.45.74.14a3.24,3.24,0,0,1,.49-.36c.17-.09.41-.16.33.19s.11.19.23.21l.88.13c.09,0,.18.07.16.19s-.12.1-.22.09c-.31,0-.63,0-.94,0a2,2,0,0,0-1.6.78,3.63,3.63,0,0,1-1.14,1c-.11.06-.27.13-.3.23s-.37.52.17.56c.08,0,.16.07.23.21-.45,0-.91.07-1.37.07a.63.63,0,0,0-.66.5,21.61,21.61,0,0,0-.93,5.47,3.42,3.42,0,0,0,.2,1.31,4.27,4.27,0,0,1,0,2.16,23.57,23.57,0,0,0-.3,3.66c0,.62-.08,1.23-.08,1.84a17,17,0,0,0,1,6.12c.05.15.18.32.05.47s-.32.06-.47,0a13.93,13.93,0,0,0-2-.42c-.58-.14-.63-.27-.22-.69a.86.86,0,0,0,.27-.7c-.11-1.52,0-3.05-.29-4.56a.69.69,0,0,1,0-.38,4.65,4.65,0,0,0-.1-2.95,1.32,1.32,0,0,0-.37-.62c-.16-.17-.29-.36-.15-.6a.55.55,0,0,1,.6-.32c.47.11.52-.13.57-.5a31.11,31.11,0,0,0,.06-4.73,1.21,1.21,0,0,0-.37-.91,6.83,6.83,0,0,1-1.84-2.94,1.65,1.65,0,0,0-.54-.83.34.34,0,0,1-.06-.57c.2-.23.4-.21.63,0a2.88,2.88,0,0,1,.7,1,7.54,7.54,0,0,0,1.2,2.19Zm5.8-11.73a8.42,8.42,0,0,0-1.38.85c-.13.1-.41.16-.33.38s.32.23.53.22a4.15,4.15,0,0,1,1.53.22c.49.18.7-.23.91-.47s-.2-.32-.33-.48a7.14,7.14,0,0,0-.55-.55A.46.46,0,0,0,187.21-7.3ZM182.84-3c.14.13-.06.67.44.43a5.15,5.15,0,0,0,.91-.64c.13-.11.28-.3,0-.34s-.39-.22-.22-.49a.21.21,0,0,0,0-.26.14.14,0,0,0-.19,0A3.85,3.85,0,0,0,182.84-3Z"/><path class="cls-4" d="M39.78-19.18c1.26,0,.68.86.6,1.21-.15.65.21.88.61,1.14s.53.27.65.56c.19.46.44.29.67.08s.43-.4.74-.14c.13.1.29,0,.41-.08.39-.33.65-.24,1,.2a2.91,2.91,0,0,1,.47,1,.71.71,0,0,0,.52.51,1.34,1.34,0,0,1,1,1.19,1,1,0,0,0,.17.53c.35.36.09.52-.18.71.46.15.51.52.54.9a1,1,0,0,1-.56.82c-.38.24-.82.53-1.32.2a.24.24,0,0,0-.33.11.24.24,0,0,0,.07.34c.4.21.48.69.84.93.1.07.34.13.17.38s-.23.35-.49.3a1.45,1.45,0,0,1-1.09-.92c-.14-.31-.08-.69-.57-.28-.11.1-.4,0-.61,0s-.45,0-.52.3c.65-.15.95.14.76.78s.33.93.67,1.24a12.9,12.9,0,0,0,1.31,1.25c.41.3.31.88.18,1.31s-.61.32-.94.4c-.16,0-.37,0-.53.08s-.63.37-.1.72a4.34,4.34,0,0,1,.71.71c.12.12.24.27.14.45s-.27.18-.44.12-.39-.06-.53.29a2.79,2.79,0,0,1-.91,1c-.21.17-.29-.09-.4-.26s-.16-.41-.45-.37c-.12,0-.18.07-.17.21s.09.51.39.58A2.52,2.52,0,0,1,43-.4c.26.16.48.33.35.65s0,.72-.56.54c-.12,0-.11,0-.12.15a.71.71,0,0,1-1.06.47,1.25,1.25,0,0,0-1.16-.06A1.15,1.15,0,0,1,39,1,1.74,1.74,0,0,0,37.38.42c-.07,0-.2,0-.21.11-.16.56-.46.35-.74.13S36,.36,35.85.8c-.06.26-.21.21-.37.08s-.15-.24-.3-.12a.25.25,0,0,0,0,.35c.36.5.2.83-.3,1.1-.19.11-.27.24,0,.42s.25.79.43,1.18a.31.31,0,0,1-.22.35c-.36,0-.64.36-1,.38-.66,0-.61.4-.52.83l.09.57c.06.36.08.31.51.5a.59.59,0,0,1,.22.7c-.06.18-.31.48-.45.32-.4-.49-1.37-.29-1.37-1.25a.94.94,0,0,0-.39.69,14.41,14.41,0,0,1-1.76,3.87,1.1,1.1,0,0,1-.14.21c-1.15.92-1.13,2.09-.82,3.4a16.77,16.77,0,0,1,.4,3.46c0,.4-.05,3.53-.05,3.95a9.31,9.31,0,0,1-.32,3,.72.72,0,0,1-.58.6c-.45.06-.76,0-.75-.58s-.06-1,0-1.46a17,17,0,0,0,0-1.87c0-.36,0-2.33,0-2.78a37.12,37.12,0,0,0-.41-4.94A1.89,1.89,0,0,0,27,12.63a20.92,20.92,0,0,1-3.41-3.82,6.08,6.08,0,0,0-2-1.73,2.8,2.8,0,0,1-1.22-1.32c-.23-.5-.54-1.09-1.31-.87-.13,0-.22,0-.26-.11-.16-.57-.48-.45-.86-.22s-.69.39-.71-.27c0-.18-.23-.18-.31-.28-.22-.28-.84.27-.88-.43a3.8,3.8,0,0,0-.84-.08c-.35,0-.75.08-.73-.5,0-.11-.2-.27-.26-.17-.3.49-.86.24-1.24.49s-.6,0-.86-.14c-.06,0-.67-.5.09-.6a2.38,2.38,0,0,0,.43-1.19c-.22-.29-.44-.06-.67,0A6.53,6.53,0,0,1,8.85,2c-.16,0-.38-.1-.38-.29s-.19-.29-.35-.41S7.47.89,8,.56c.07-.05.12-.09.1-.2C7.9-.37,8.11-1,8.74-1c1,0,1.13-.7,1.45-1.32a.37.37,0,0,0,.05-.11.2.2,0,0,0,0-.08,1.11,1.11,0,0,0-.89.59c-.17.24-.39.5-.72.25-.11-.08-.23-.27-.2-.38.07-.27.38-.17.6-.25A1.3,1.3,0,0,1,8.73-4a3.38,3.38,0,0,1,1.52-1.47c.18-.07.33-.32.12-.34-.48,0-.72-.51-1.19-.53-.25,0-.35,0-.36.26a.49.49,0,0,1-.39.51.29.29,0,0,1-.31-.17.53.53,0,0,1,.08-.65,3,3,0,0,0,.63-1.44c.13-.57.37-1,1.07-1-.7-.53-.7-.55-.16-1.07a.31.31,0,0,0-.07-.09c-.2-.09-.46.3-.61,0a.59.59,0,0,1,.24-.73,1,1,0,0,0,.33-.44,4.38,4.38,0,0,1,1.22-1.17,5.58,5.58,0,0,1,1.82-.68,2,2,0,0,1,1.8.19c.2.13.26,0,.36-.1a14.35,14.35,0,0,1,1.68-1.44c.16-.09.28-.32.17-.44-1-1-.18-1.86.2-2.79.15-.37.47-.64.42-1.19-.07-.73.73-1.21,1-1.9.61.08.66-.52,1-.79a1,1,0,0,1,.76-.27c.94.2,1.9-.33,2.83.08.1,0,.28-.07.42-.11s.37,0,.38.19c0,.83.56.33.83.25s.9-.14.53-.77c-.08-.14-.11-.34.07-.38.82-.18.69-.92.78-1.44.13-.83.71-1.06,1.33-1.2s1.22-.35,1.7.36c.2.28.53.71,1,.29a.49.49,0,0,1,.6.05.35.35,0,0,1,0,.47c-.16.2,0,.28.12.39s.51.32.51.61c0,.64.52.85.88,1.2.11.11.19,0,.27,0A2.6,2.6,0,0,1,35-22.21c.62.24,1.23.5,1.21,1.32,0,.13,0,.3.18.3a9.42,9.42,0,0,0,2.54.16c.31-.09.69-.31.92.07S40.36-19.6,39.78-19.18Zm-12.15,31A2.62,2.62,0,0,0,27.1,9,30.64,30.64,0,0,1,23.83,4.3c-.2-.37-.36-.82-.94-.57a.21.21,0,0,1-.26-.14c-.09-.17-.12-.47-.43-.3s-.15.4-.07.65c.29.91,1,1.55,1.3,2.49C24.08,8.74,25.85,10.22,27.63,11.8ZM27,.41c-.1-.33-.49-.73-.06-.89s.27-.3.28-.49a2.48,2.48,0,0,0-.73-1.64c-.14-.19-.44-.24-.49,0a11.38,11.38,0,0,1-.82,2.45c-.08.19,0,.37.23.48s.32.2.45,0C26.24-.1,26.61-.08,27,.41Zm.5,7.33c-.05-.59.14-1.23-.18-1.34-.59-.19-.35-.48-.28-.78a.44.44,0,0,0-.12-.51,3.37,3.37,0,0,0-2.3-1A16.44,16.44,0,0,0,27.51,7.74ZM31.94-.19c-.4.2-.2.53-.3.77a1.52,1.52,0,0,0-1.3.89.82.82,0,0,0,.48.94c.17.08.4.25.5,0,.24-.52.78-.81,1-1.39S32.1.4,32,.09A.78.78,0,0,1,31.94-.19ZM22.79,6.88a14.81,14.81,0,0,0-1.43-2.64C20.47,5.65,20.72,6.13,22.79,6.88Zm8.43-1.44c-.09,0-.25.07-.3.16a6.78,6.78,0,0,0-.76,1.72c-.07.28.19.39.39.35a.78.78,0,0,0,.64-.44c.23-.43.17-.93.46-1.35C31.82,5.65,31.47,5.53,31.22,5.44ZM17.37,1.39c.32.32.34.58-.09.76s-.44-.08-.51-.36a.26.26,0,0,0-.34-.2.11.11,0,0,0-.07.19c.39.39.55,1,1,1.29.11.08.3.22.38,0,.18-.37.64-.65.55-1.11S17.8,1.48,17.37,1.39Zm12,6.78a4.81,4.81,0,0,0-.23,2.47,12.94,12.94,0,0,0,1.09-1.3c.1-.17.17-.5,0-.49C29.73,8.88,29.71,8.36,29.37,8.17Z"/></g></svg>