<svg xmlns="http://www.w3.org/2000/svg" viewBox="0 0 200 100"><defs><style>.cls-1{fill:#2bbba0;}.cls-2{fill:#9b9b9b;}.cls-3{fill:#708088;}.cls-4{fill:#ccc;}</style></defs><title>riñihuazo</title><g id="Capa_2" data-name="Capa 2"><rect class="cls-1" x="85.25" y="54.91" width="16.62" height="10.31"/><polygon class="cls-1" points="71.22 27.22 98.16 55.27 97.2 55.91 71.19 27.5 71.22 27.22"/><rect class="cls-2" x="85.19" y="39.05" width="1.15" height="26.03" transform="translate(-7.01 13.87) rotate(-8.89)"/><rect class="cls-2" x="98.56" y="39" width="1.15" height="26.03" transform="translate(12.63 -19.05) rotate(11.72)"/><polygon class="cls-2" points="99.04 52.18 98.92 52.48 99.04 52.78 99.13 52.96 99.13 53.22 92.81 53.22 85.02 53.18 84.7 53.03 85.33 52.08 98.42 52.08 98.97 52.01 99.06 52.12 99.04 52.18"/><polygon class="cls-2" points="84.12 47.73 84.25 47.43 84.12 47.13 84.02 46.95 84.02 46.69 91 46.69 99.6 46.73 99.95 46.88 99.26 47.84 84.81 47.84 84.2 47.9 84.1 47.79 84.12 47.73"/><polygon class="cls-1" points="109.15 28.7 86.95 55.23 87.6 56.96 109.22 28.86 109.15 28.7"/><path class="cls-3" d="M71.43,27.07a.39.39,0,0,1-.21-.11L70.12,26a1.24,1.24,0,0,1-.41-.41.09.09,0,0,0-.14,0,.12.12,0,0,1-.14,0l-.21-.11h0s-2.2-1.16-3.94-1.94c-2-.88-4.84,1.88-5,2L58.4,27.24a13.65,13.65,0,0,1-7,3.08l.07.73a14.56,14.56,0,0,0,7.39-3.26l1.93-1.7c.74-.71,2.91-2.42,4.16-1.86,1.72.77,3.87,1.9,3.89,1.92l.22.21a.14.14,0,0,0,.13.06.31.31,0,0,1,.12,0l1.56,1a.34.34,0,0,1,.14.15.1.1,0,0,0,.18,0c.1-.12.19-.25.28-.38S71.52,27.07,71.43,27.07Z"/><path class="cls-3" d="M68.68,25.25l-.12-.09-.18-.09L68.15,25l-.21-.08-.17.15-.31.6-.26.5-.18.6-.44.1.12-.47.4-.79,0-.33-.08-.46-.13-.4-.09-.23,0-.14.09-.27.16-.37,0-.36h.1c.1,0,.18-.09.12-.17a1.23,1.23,0,0,1-.13-.41,1.31,1.31,0,0,0-.36-.65s-.12-.11-.18-.11-.07,0-.22-.19h-.21c-.06.16-.15.08-.24.13a1.07,1.07,0,0,0-.67.69.93.93,0,0,1-.14.36.11.11,0,0,0,0,.14.07.07,0,0,0,.11,0l.09,0-.14.91-.48-.05-.71.25L63,26l-.09.83-.06.34v.13l-.54,1.34.2,1.22.24.07.08.32.16.31.18.33-.09.85.26.19-.23.15-.09.71-.15.09v.36l-.22.09v.24l-.38.31v.86l-.42.61-.31.31v.23l.31.35.77.33.21.08,0-.44-.08-.4.28-.35.44-.44.3-.26v.62l.28.45.21.35-.24.61.21.17,1.36.47h.52l-.24-.47-.43-.2-.31-.38v-.21l.13-.22-.1-.46.18-1.16L65.42,33V30.51l-.15-1.23.29-1.3h1.1l1.08-.46.06-.31v-.57l.24-.49.37-.28.27-.36.07-.13Z"/><path class="cls-3" d="M125.09,35.84c0-.14,0-.28-.07-.42s-.06-.13-.16-.13a7.58,7.58,0,0,1-2.23-.14,2.25,2.25,0,0,1-1.16-.58,2.56,2.56,0,0,1-.71-1.54,7.84,7.84,0,0,1,.13-2.05,7,7,0,0,0,.13-1.45,3,3,0,0,0-.68-1.78c-.13-.16-.14-.22,0-.39s.24-.35.35-.53a1.12,1.12,0,0,0,.17-.82,1.34,1.34,0,0,1,0-.4.93.93,0,0,0-.17-.67c-.07-.13-.22-.15-.33-.22s-.19-.06-.18-.19-.06-.07-.1-.1c-.26-.17-.54-.33-.82-.48l-.07,0c-.15.06-.2-.05-.26-.14a.53.53,0,0,0-.52-.28h-.85a.21.21,0,0,1-.2-.11c-.06-.1-.1-.21-.23-.24s0,0,0,0l-.08,0c0-.07,0-.14,0-.21a1.29,1.29,0,0,1,0-.44.24.24,0,0,1,0-.08.33.33,0,0,0,0-.22s0,0,0-.05l.12-.15c.07-.1,0-.18,0-.25a.38.38,0,0,1-.09-.09.57.57,0,0,0-.27-.24l-.14-.05s0,0,0,0-.07-.05-.11,0,0,0-.06,0a.58.58,0,0,0-.45,0,1.12,1.12,0,0,0-.6.45.25.25,0,0,1-.13.09l-.49.14c-.06,0-.08.05-.07.11a.4.4,0,0,0,.28.28,1.05,1.05,0,0,0,.31,0,0,0,0,0,1,0,0,.62.62,0,0,1,0,.27,1.65,1.65,0,0,0-.07.32c0,.06,0,.09.1.1l.08,0s0,0,0,0,0,0,0,0a.14.14,0,0,0,0,.16.22.22,0,0,1,.11.14.2.2,0,0,0,.12.17l0,0v0l.44,0-.15.08s0,0-.06.06a.26.26,0,0,0,0,.21.16.16,0,0,1-.09.19c-.21.14-.41.29-.62.42a1,1,0,0,0-.42.76c0,.06,0,.12-.07.14a.1.1,0,0,0,0,.05c-.14.22-.31.4-.46.6a.47.47,0,0,0-.14.43c0,.1,0,.17-.14.16a.2.2,0,0,0-.19.12.36.36,0,0,1-.35.18.28.28,0,0,0-.25.11.68.68,0,0,1-.52.23l-.36,0s-.07,0-.08,0-.14,0-.22,0-.37-.22-.56-.32-.2,0-.21.11l-.38.19a.1.1,0,0,1-.13,0,.08.08,0,0,0-.13,0,1.15,1.15,0,0,1-.38.38c-.33.29-.68.57-1,.85a.3.3,0,0,1-.19.1.09.09,0,0,0-.07.15,3.32,3.32,0,0,0,.26.36c.06.07.13.07.17,0a.29.29,0,0,1,.13-.14l1.45-.9.11-.05c.06,0,.1,0,.12-.05s.18.06.26.12a.69.69,0,0,0,.29.07l.21,0a.42.42,0,0,1,.44.26s.05.06.08.05c.19,0,.3.12.42.23.35.3.66.66,1,1a3.23,3.23,0,0,0,.76.62,1.7,1.7,0,0,0,.69.19c.09,0,.12,0,.12.12,0,.38.05.76.08,1.15,0,.1,0,.21.09.29s0,.11,0,.17c0,.26,0,.53,0,.79a.86.86,0,0,0,.1.41,1.42,1.42,0,0,1,.17.54,3.24,3.24,0,0,0,.19.86.52.52,0,0,1,0,.45.87.87,0,0,0-.05.51.13.13,0,0,1,0,.13,1.38,1.38,0,0,1-.28.31,1.34,1.34,0,0,0-.3.33.7.7,0,0,0-.09.17c-.09.28,0,.45.31.44a1.13,1.13,0,0,0,1-.49.6.6,0,0,1,.48-.29.57.57,0,0,0,.38-.2.35.35,0,0,0,0-.46.93.93,0,0,1-.12-.4c0-.17-.07-.34-.1-.51a.53.53,0,0,1,0-.35.23.23,0,0,0,0-.12.26.26,0,0,1,0-.15,3.8,3.8,0,0,0,.13-1.06,9.27,9.27,0,0,0,0-1.29.19.19,0,0,1,0-.07h0a.77.77,0,0,1,.07.16,11.44,11.44,0,0,1,.55,1.41,6.18,6.18,0,0,0,.27.83c0,.08.08.17.13.25a.75.75,0,0,1,.1.33,1,1,0,0,0,.17.6.17.17,0,0,1,0,.17.39.39,0,0,0,.14.4,1,1,0,0,1,.23.29,1.08,1.08,0,0,0,.81.53c.28,0,.44-.19.36-.49a.9.9,0,0,0-.34-.51.34.34,0,0,1-.12-.22.91.91,0,0,1,0-.54.34.34,0,0,0,0-.22c-.06-.18-.12-.35-.17-.53a4.15,4.15,0,0,1-.12-.85c0-.51-.15-1-.23-1.53,0-.08,0-.17,0-.25s0-.08,0-.12l-.24-1.42c0-.06,0-.11-.08-.14s0-.07,0-.11a4.88,4.88,0,0,1,0-1.66.15.15,0,0,1,.07-.11l.35-.18c.06,0,.09,0,.13,0a1.78,1.78,0,0,1,.54.78,2.71,2.71,0,0,1,.15,1.29c-.08.67-.21,1.32-.25,2a4.09,4.09,0,0,0,.31,2.1,2.77,2.77,0,0,0,1.86,1.57A8.43,8.43,0,0,0,125,36C125.08,36,125.1,35.92,125.09,35.84Zm-9.48-6.11c-.06.2-.07.22-.27.22h-.08a1.26,1.26,0,0,1-.77-.42c-.39-.38-.76-.76-1.13-1.14-.07-.07-.07-.1,0-.13l.45-.18a2,2,0,0,0,.73-.38,3,3,0,0,0,.58-.65.2.2,0,0,1,.1-.12.36.36,0,0,1,.07.17c.08.36.17.72.25,1.08a1.23,1.23,0,0,1,0,.63.33.33,0,0,0,0,.22A.94.94,0,0,1,115.61,29.73Zm4.09-3.58a.22.22,0,0,0,0,.25.15.15,0,0,1,0,.19.84.84,0,0,0-.23.47.1.1,0,0,1-.14.08c-.08,0-.19,0-.21-.05,0-.48,0-.9-.08-1.32,0-.19,0-.19.18-.16l.11,0c.21,0,.38,0,.43.26h0A.15.15,0,0,1,119.7,26.15Z"/><path class="cls-4" d="M45.32,9.15a7.36,7.36,0,0,1,2.55-1.52,1.82,1.82,0,0,1,1-.15c.08,0,.17,0,.17.13a.13.13,0,0,1-.14.12,7.88,7.88,0,0,0-2.48,1,2.64,2.64,0,0,0-1.31,1.51,4,4,0,0,1-.88,1.5c.08.09.14,0,.2,0s.18,0,.21.05a.13.13,0,0,1-.12.18c-.86.14-1.19.95-1.79,1.42A8.18,8.18,0,0,0,41.27,15a3.64,3.64,0,0,0-.7,2.5,9.4,9.4,0,0,1-.74,4.35,3,3,0,0,0-.26,1.45c.21,2.35.15,4.71.13,7.07,0,.47-.07.53-.55.5-.25,0-.51,0-.76,0s-.39-.11-.37-.38c0-.83.06-1.67.17-2.49a15.29,15.29,0,0,0,.12-2.24c0-.82,0-1.64.06-2.46,0-1.62.08-3.24,0-4.85a38,38,0,0,0-.5-4.76.47.47,0,0,1,0-.23,5.31,5.31,0,0,0-.13-2.74,18.77,18.77,0,0,0-.22-2,17.33,17.33,0,0,0-.91-2.53,2.28,2.28,0,0,1-.27-.92c0-.09,0-.2.09-.24s.16.06.21.13A10.19,10.19,0,0,1,37.39,7a9,9,0,0,1,.74,2.54s0,.1,0,.11c.45.19.2.54.2.83a2.89,2.89,0,0,0,.07.72,25.06,25.06,0,0,1,.32,3c.1.8.19,1.6.3,2.4,0,.12,0,.3.19.31s.17-.15.25-.23a2.3,2.3,0,0,0,.43-2,.32.32,0,0,0-.22-.3,1.37,1.37,0,0,1-.32-.16c-.13-.09-.33-.21-.22-.37s.25,0,.36.11c.42.25.64.14.65-.35s0-1.18,0-1.77a3.65,3.65,0,0,0-.67-1.44,1.38,1.38,0,0,0-.69-.7c-.1,0-.2-.13-.15-.25s.2-.1.31-.06a1,1,0,0,1,.52.36c.22.32.45.63.67.94.13,0,.12-.12.12-.19a30.67,30.67,0,0,0,.37-3.71c0-.86.7-1.22,1-1.84,0,0,.1,0,.14,0s.06.11,0,.17a.21.21,0,0,1-.06.1A4.41,4.41,0,0,0,41,7.88c0,.32.08.46.42.32A1.32,1.32,0,0,1,42,8.12c.11,0,.26,0,.27.12s-.16.15-.27.15a2.71,2.71,0,0,0-.75.16.39.39,0,0,0-.34.38,20.43,20.43,0,0,0-.2,2.2c0,.47,0,.95,0,1.42,0,.26.14.31.34.21s.43-.26.65-.4A2.23,2.23,0,0,1,43,12a.53.53,0,0,0,.58-.58,2,2,0,0,1,.68-1.63A4,4,0,0,0,45.1,8c.16-.53.49-1,.68-1.54s.47-1.25.66-1.89c.05-.14.09-.37.3-.31s.13.26.09.41a32.7,32.7,0,0,1-1.24,3.48c0,.07-.11.19-.08.22C45.8,8.74,45.42,8.9,45.32,9.15Zm-2.44,3.21a.93.93,0,0,0-.54.11c-.31.18-.61.39-.92.57a1.32,1.32,0,0,0-.66,1.63A14.42,14.42,0,0,1,42.88,12.36Z"/><path class="cls-4" d="M181.41,13.13a4.24,4.24,0,0,1,.62-1.32,1.22,1.22,0,0,0,.18-1.12A4,4,0,0,1,182,9.32c0-.44,0-.89-.63-.71,0-.1,0-.15,0-.17.19-.26.62-.28.62-.72A2.86,2.86,0,0,0,181.68,6c-.43-.65-1-1.17-1.44-1.85-.13-.23-.42-.45-.1-.71s.51,0,.68.24.54.67.8,1,.34.28.58,0a9.87,9.87,0,0,1,2.06-2.17c.29-.19.3-.5.34-.79a4.69,4.69,0,0,1,.79-1.9,1.3,1.3,0,0,0-.27-1.32,5.76,5.76,0,0,1-1.55-1.86,2.5,2.5,0,0,1-.06-2,2.92,2.92,0,0,1,.37,1.33c.11,1,.48,1.31,1.42,1.12.06.11-.05.15-.09.22s-.58.08-.37.46a.77.77,0,0,0,1,.27l1-.69c.11-.07.23-.2.34,0s0,.25-.12.33c-.29.22-.59.44-.9.65s-.44.43-.2.73,0,.68,0,1c0,.07,0,.14.05.27A3.92,3.92,0,0,0,187-.69c.06-.1.14-.19.26-.12a.21.21,0,0,1,.09.29,2.52,2.52,0,0,1-.44.79c-.17.17-.36.26-.23.53s.15.33.35.29a.75.75,0,0,0,.61-.43,2.35,2.35,0,0,1,.15-.47c.22-.35.62-.3.87.11-.21,0-.52-.2-.61.12s.24,0,.3.19,0,.08,0,.09c-.7.51-.69.5-.06,1.11.23.21.54.35.62.7,0,.12.15.28,0,.36-.58.34-.15.49.13.6s.4.42.45.74c-.23,0-.26-.16-.38-.24-.28-.19-.5-.55-.95-.29-.12.07-.37,0-.53-.1A3.4,3.4,0,0,0,186,3.36a1,1,0,0,0-.82.85c0,.34.11.51.47.36l.42-.16c.09,0,.19,0,.26,0s-.21,1-.41,1a2.75,2.75,0,0,0-.69.21c-.26.12-.46.26-.37.59,0,.07,0,.2,0,.21-.66.29-.27.56,0,.8-.16.19-.3.09-.43,0s-.38,0-.39.23-.18.38-.36.51-.42.28-.43.56-.13.66.13.84.37-.23.58-.33l1.15-.56a2.29,2.29,0,0,0,1.61-1.95c.31.45.33.46.74.14a5.6,5.6,0,0,1,.49-.36c.17-.08.41-.15.33.2s.11.19.23.21l.88.13c.09,0,.18.07.16.18s-.12.11-.22.1c-.31,0-.63,0-.94,0a1.93,1.93,0,0,0-1.6.78,3.63,3.63,0,0,1-1.14,1c-.11.06-.27.13-.3.23s-.37.52.17.56c.08,0,.16.07.23.21-.45,0-.91.07-1.37.07a.63.63,0,0,0-.66.5,21.54,21.54,0,0,0-.93,5.47,3.45,3.45,0,0,0,.2,1.31,4.23,4.23,0,0,1,0,2.15,23.8,23.8,0,0,0-.3,3.67c0,.61-.08,1.22-.08,1.83a17.07,17.07,0,0,0,1,6.13c.05.15.18.32.05.47s-.32.05-.47,0a15.38,15.38,0,0,0-2-.41c-.58-.15-.63-.27-.22-.7a.84.84,0,0,0,.27-.69c-.11-1.52,0-3.05-.29-4.57a.7.7,0,0,1,0-.38,4.66,4.66,0,0,0-.1-2.95,1.37,1.37,0,0,0-.37-.62c-.16-.17-.29-.35-.15-.59a.55.55,0,0,1,.6-.32c.47.11.52-.13.57-.5a31.13,31.13,0,0,0,.06-4.73,1.21,1.21,0,0,0-.37-.91,6.81,6.81,0,0,1-1.84-2.95,1.67,1.67,0,0,0-.54-.82.34.34,0,0,1-.06-.57c.2-.23.4-.21.63,0a2.92,2.92,0,0,1,.7,1,7.54,7.54,0,0,0,1.2,2.19Zm5.8-11.73a8.42,8.42,0,0,0-1.38.85c-.13.09-.41.15-.33.37s.32.23.53.23a4.15,4.15,0,0,1,1.53.22c.49.18.7-.23.91-.47s-.2-.33-.33-.48-.36-.37-.55-.56A.45.45,0,0,0,187.21,1.4Zm-4.37,4.32c.14.12-.06.67.44.43a4.73,4.73,0,0,0,.91-.65c.13-.1.28-.29,0-.34s-.39-.22-.22-.48a.21.21,0,0,0,0-.26.14.14,0,0,0-.19,0A3.85,3.85,0,0,0,182.84,5.72Z"/><path class="cls-4" d="M39.78-14.26c1.26,0,.68.86.6,1.2-.15.66.21.88.61,1.14s.53.28.65.57c.19.46.44.29.67.07s.43-.4.74-.14c.13.11.29,0,.41-.08.39-.32.65-.24,1,.2a2.87,2.87,0,0,1,.47,1,.7.7,0,0,0,.52.5,1.35,1.35,0,0,1,1,1.19,1,1,0,0,0,.17.54c.35.35.09.52-.18.71.46.14.51.52.54.89a.93.93,0,0,1-.56.82c-.38.25-.82.54-1.32.21-.12-.08-.25,0-.33.11a.25.25,0,0,0,.07.34c.4.2.48.69.84.93.1.07.34.13.17.37s-.23.36-.49.31a1.46,1.46,0,0,1-1.09-.93c-.14-.3-.08-.69-.57-.28-.11.1-.4,0-.61,0s-.45,0-.52.3c.65-.14.95.15.76.79s.33.92.67,1.24A14.1,14.1,0,0,0,45.26-1c.41.29.31.87.18,1.3s-.61.33-.94.4c-.16,0-.37,0-.53.08s-.63.38-.1.73a3.92,3.92,0,0,1,.71.7c.12.13.24.27.14.46s-.27.17-.44.11-.39-.06-.53.29a2.63,2.63,0,0,1-.91,1c-.21.17-.29-.09-.4-.25s-.16-.42-.45-.37c-.12,0-.18.06-.17.2s.09.51.39.58a2.55,2.55,0,0,1,.75.34c.26.16.48.33.35.64s0,.73-.56.55c-.12,0-.11,0-.12.14a.7.7,0,0,1-1.06.47,1.28,1.28,0,0,0-1.16-.06A1.15,1.15,0,0,1,39,5.89a1.72,1.72,0,0,0-1.62-.55c-.07,0-.2,0-.21.1-.16.57-.46.36-.74.13s-.47-.3-.58.15c-.06.26-.21.2-.37.08s-.15-.25-.3-.12a.24.24,0,0,0,0,.34c.36.5.2.84-.3,1.11-.19.1-.27.23,0,.41s.25.8.43,1.19a.31.31,0,0,1-.22.35c-.36.05-.64.35-1,.37-.66,0-.61.4-.52.84l.09.56c.06.37.08.32.51.5a.61.61,0,0,1,.22.71c-.06.18-.31.48-.45.32-.4-.5-1.37-.29-1.37-1.26a1,1,0,0,0-.39.69,14.41,14.41,0,0,1-1.76,3.87,1.18,1.18,0,0,1-.14.22c-1.15.92-1.13,2.09-.82,3.39a16.78,16.78,0,0,1,.4,3.47c0,.39-.05,3.52-.05,3.95a9.34,9.34,0,0,1-.32,3c-.09.29-.24.55-.58.59s-.76,0-.75-.57-.06-1,0-1.46a17.18,17.18,0,0,0,0-1.88c0-.35,0-2.33,0-2.78a36.83,36.83,0,0,0-.41-4.93A1.91,1.91,0,0,0,27,17.54a20.28,20.28,0,0,1-3.41-3.82,5.93,5.93,0,0,0-2-1.72,2.85,2.85,0,0,1-1.22-1.32c-.23-.51-.54-1.1-1.31-.87-.13,0-.22,0-.26-.11-.16-.58-.48-.45-.86-.22s-.69.39-.71-.27c0-.19-.23-.18-.31-.29-.22-.27-.84.27-.88-.43a3.42,3.42,0,0,0-.84-.07c-.35,0-.75.08-.73-.5,0-.12-.2-.27-.26-.17-.3.49-.86.23-1.24.48s-.6,0-.86-.14c-.06,0-.67-.5.09-.59a2.42,2.42,0,0,0,.43-1.2c-.22-.28-.44,0-.67,0a6.53,6.53,0,0,1-3.05.56c-.16,0-.38-.11-.38-.29s-.19-.3-.35-.42S7.47,5.81,8,5.48a.18.18,0,0,0,.1-.2c-.19-.73,0-1.34.65-1.33,1,0,1.13-.7,1.45-1.31l.05-.11a.29.29,0,0,0,0-.09A1.11,1.11,0,0,0,9.32,3c-.17.25-.39.5-.72.25-.11-.08-.23-.27-.2-.37.07-.28.38-.18.6-.25A1.3,1.3,0,0,1,8.73.87,3.33,3.33,0,0,1,10.25-.6c.18-.07.33-.33.12-.34-.48,0-.72-.51-1.19-.53-.25,0-.35,0-.36.25a.5.5,0,0,1-.39.52.28.28,0,0,1-.31-.18.51.51,0,0,1,.08-.64A3.05,3.05,0,0,0,8.83-3c.13-.57.37-1,1.07-1-.7-.53-.7-.54-.16-1.06a.31.31,0,0,0-.07-.09c-.2-.1-.46.3-.61,0a.57.57,0,0,1,.24-.72,1.09,1.09,0,0,0,.33-.44,4.24,4.24,0,0,1,1.22-1.17,5.83,5.83,0,0,1,1.82-.69,2,2,0,0,1,1.8.19c.2.13.26,0,.36-.1a15.37,15.37,0,0,1,1.68-1.44c.16-.08.28-.32.17-.43-1-1-.18-1.87.2-2.79.15-.37.47-.65.42-1.19-.07-.74.73-1.21,1-1.9.61.08.66-.52,1-.8a1,1,0,0,1,.76-.26c.94.19,1.9-.33,2.83.07.1.05.28-.06.42-.11s.37,0,.38.19c0,.84.56.33.83.26s.9-.14.53-.77c-.08-.14-.11-.34.07-.38.82-.18.69-.93.78-1.44.13-.83.71-1.06,1.33-1.2s1.22-.35,1.7.36c.2.28.53.71,1,.28a.51.51,0,0,1,.6.06.35.35,0,0,1,0,.47c-.16.2,0,.27.12.38s.51.32.51.61c0,.64.52.86.88,1.2.11.11.19,0,.27,0A2.56,2.56,0,0,1,35-17.29c.62.23,1.23.49,1.21,1.32,0,.13,0,.29.18.29a9,9,0,0,0,2.54.16c.31-.08.69-.3.92.08S40.36-14.69,39.78-14.26Zm-12.15,31a2.63,2.63,0,0,0-.53-2.77,30.17,30.17,0,0,1-3.27-4.73c-.2-.37-.36-.81-.94-.57-.11,0-.21,0-.26-.13S22.51,8,22.2,8.2s-.15.41-.07.66c.29.9,1,1.55,1.3,2.49C24.08,13.66,25.85,15.14,27.63,16.71ZM27,5.33c-.1-.34-.49-.73-.06-.89s.27-.31.28-.5A2.5,2.5,0,0,0,26.5,2.3c-.14-.18-.44-.23-.49.06a11.76,11.76,0,0,1-.82,2.45.38.38,0,0,0,.23.47c.14.09.32.21.45,0C26.24,4.82,26.61,4.84,27,5.33Zm.5,7.32c-.05-.58.14-1.23-.18-1.33-.59-.19-.35-.49-.28-.79a.44.44,0,0,0-.12-.51,3.36,3.36,0,0,0-2.3-1A16.62,16.62,0,0,0,27.51,12.65Zm4.43-7.92c-.4.19-.2.53-.3.77a1.5,1.5,0,0,0-1.3.89.83.83,0,0,0,.48.94c.17.08.4.25.5,0,.24-.52.78-.81,1-1.38S32.1,5.31,32,5A.82.82,0,0,1,31.94,4.73Zm-9.15,7.06a15.17,15.17,0,0,0-1.43-2.64C20.47,10.57,20.72,11,22.79,11.79Zm8.43-1.44c-.09.05-.25.08-.3.16a6.94,6.94,0,0,0-.76,1.72c-.07.28.19.39.39.36a.8.8,0,0,0,.64-.45c.23-.42.17-.93.46-1.35C31.82,10.56,31.47,10.44,31.22,10.35Zm-13.85-4c.32.32.34.58-.09.76s-.44-.08-.51-.36a.26.26,0,0,0-.34-.21.11.11,0,0,0-.07.19c.39.39.55,1,1,1.29.11.08.3.22.38,0,.18-.38.64-.66.55-1.11S17.8,6.4,17.37,6.31Zm12,6.77a4.85,4.85,0,0,0-.23,2.48,11.92,11.92,0,0,0,1.09-1.31c.1-.17.17-.49,0-.48C29.73,13.8,29.71,13.28,29.37,13.08Z"/><polygon class="cls-4" points="0 20.98 21.1 20.98 24.02 22.77 29.37 21.88 39.43 21.88 46.4 23.58 49.29 23.98 53.58 24.64 56.23 30 63.73 32.86 67.7 36.34 73.81 38.01 81.85 40.84 84.17 46.54 85.78 64.23 87.01 65.3 93.44 65.15 99.61 65.15 100 47.83 102.61 40.21 107.59 39.84 113.72 35.04 123.64 30.14 130.66 27.18 134.19 25.29 140.46 24.88 142.03 25.09 169.63 23.9 175.79 23.9 200 24.39 200 100 0 100 0 20.98"/></g></svg>